<svg width="115" height="36" fill="none" xmlns="http://www.w3.org/2000/svg"><path d="M27.699 3.768A16.745 16.745 0 0017.483.328 16.91 16.91 0 008.56 2.883a17.135 17.135 0 00-6.273 6.9 17.346 17.346 0 001.507 17.96A35.317 35.317 0 0018.77 18.82a35.814 35.814 0 008.961-15.052" fill="#fff"/><path d="M31.706 8.489c1.435 4.856-.034 9.948-4.34 13.286-5.142 3.81-12.688 3.844-23.038 7.082a16.986 16.986 0 0011.075 6.253 16.901 16.901 0 0012.283-3.218 17.223 17.223 0 006.668-10.903 17.34 17.34 0 00-2.648-12.534M49.4 12.198c2.872 0 5.109 2.36 5.109 5.396 0 3.035-2.137 5.395-4.941 5.395-3.239-.067-5.209-2.36-5.242-5.26 0-3.035 2.337-5.497 5.108-5.497l-.033-.034zm.368 13.455a7.61 7.61 0 005.442-2.26 8.137 8.137 0 002.27-5.732c0-4.586-3.505-8.16-7.946-8.16-3.672 0-6.677 2.427-7.679 6.002a18.384 18.384 0 00-.334 3.71V30.61c0 .203.167.337.334.337h2.003c.2 0 .334-.168.334-.337v-7.183c1.436 1.417 3.339 2.159 5.075 2.226m36.41-13.455c2.871 0 5.108 2.36 5.108 5.396 0 3.035-2.137 5.395-4.941 5.395-3.239-.067-5.209-2.36-5.242-5.26 0-3.035 2.337-5.497 5.108-5.497l-.033-.034zm.367 13.455a7.61 7.61 0 005.442-2.26 8.137 8.137 0 002.27-5.732c0-4.586-3.505-8.16-7.945-8.16-3.673 0-6.678 2.427-7.68 6.002a18.392 18.392 0 00-.334 3.71V30.61c0 .203.168.337.334.337h2.004c.2 0 .334-.168.334-.337v-7.183c1.435 1.417 3.338 2.159 5.074 2.226m-17.78-8.733l-2.003-.102a9.438 9.438 0 00-3.338.607v-.101c.233-2.36 2.203-4.384 4.607-4.721l.668-.034c2.27 0 4.44 1.686 5.108 4.047-1.67.506-3.172.472-5.075.337l.033-.034zm7.68.033c-.668-4.99-4.775-7.183-7.68-7.082-5.909.135-8.346 5.227-7.812 9.206.467 4.08 3.806 6.947 7.812 6.947.334 0 .668-.034 1.002-.067 2.137-.27 4.007-1.18 5.409-2.934.2-.236.133-.472-.067-.607-.6-.337-1.836-.944-1.836-.944-.334-.203-.501-.068-.668.067-2.504 3.035-7.345 2.124-8.814-1.585v-.067c1.502-.675 2.838-.607 4.474-.338 1.67.237 3.071.338 4.54.102 2.438-.472 3.406-1.18 3.406-1.18.334-.237.334-.405.334-.742l-.1-.776zm20.032 6.373c1.736 1.619 3.672 2.53 6.11 2.53h.066c4.274-.034 6.177-2.361 6.177-4.722 0-3.203-3.005-4.046-3.906-4.282-1.002-.203-2.17-.405-3.139-.675-.5-.134-2.103-.674-2.103-1.888 0-1.349 1.469-2.023 2.838-2.023 1.168 0 2.103.202 3.339 1.18.267.202.534.202.767.034l1.336-1.214c.234-.236.167-.439-.067-.675-1.669-1.349-3.238-1.854-5.475-1.854-3.206 0-5.61 2.09-5.61 4.822 0 2.192 1.77 3.71 5.009 4.383l2.003.405c1.335.236 2.07.944 2.003 1.956-1.102 3.204-5.442 2.09-7.278.27h-.034c-.233-.203-.334-.203-.6-.034l-1.603 1.349c-.167.202-.1.337.067.54l.1-.102zm18.029-12.814a.337.337 0 00-.334-.337h-2.003a.337.337 0 00-.334.337v14.5a.337.337 0 00.334.338h2.003a.337.337 0 00.334-.337v-14.5zm-1.336-1.855c1.015 0 1.837-.83 1.837-1.854a1.846 1.846 0 00-1.837-1.855c-1.014 0-1.836.83-1.836 1.855 0 1.024.822 1.854 1.836 1.854z" fill="#fff"/></svg>