<svg width="108" height="24" fill="none" xmlns="http://www.w3.org/2000/svg"><path d="M46.618 1.387c0-.74.625-1.363 1.362-1.363.74 0 1.363.625 1.363 1.363V20.96h9.679a12.261 12.261 0 01-.808-.74c-2.148-2.15-3.466-5.084-3.466-8.342 0-2.774.947-5.315 2.54-7.325a11.89 11.89 0 012.335-2.242A11.825 11.825 0 0166.553.07c1.386 0 2.773.254 4.067.74 2.518.925 3.466 1.78 5.243 3.582L87.16 15.693c1.548 1.548 3.165 3.536 5.13 4.46a9.092 9.092 0 003.88.854 9.128 9.128 0 006.445-2.657 9.17 9.17 0 002.564-5.084h-8.317a1.38 1.38 0 01-1.362-1.363c0-.74.624-1.362 1.362-1.362h9.772a1.38 1.38 0 011.362 1.362c0 3.258-1.34 6.217-3.466 8.342-2.148 2.149-5.082 3.467-8.34 3.467-1.8 0-3.51-.415-5.035-1.133-2.473-1.155-4.067-3.189-5.961-5.062l-11.297-11.3c-1.248-1.248-2.473-2.242-4.182-2.889a9.012 9.012 0 00-3.142-.554 9.15 9.15 0 00-4.967 1.48 9.108 9.108 0 00-2.934 3.142 9.109 9.109 0 00-1.155 4.483 9.136 9.136 0 002.656 6.447 9.094 9.094 0 006.445 2.657c1.27 0 2.519-.278 3.65-.762 1.94-.855 3.187-2.288 4.62-3.744l3.835-3.836 1.94 1.941-3.856 3.859c-1.78 1.78-3.05 3.235-5.452 4.298a11.81 11.81 0 01-4.713.994h-18.85a1.383 1.383 0 01-1.087-1.341V1.48l-.087-.093zM27.836 10.49h-.532a1.38 1.38 0 00-1.362 1.362c0 .738.625 1.363 1.362 1.363h14.44a1.38 1.38 0 001.362-1.363c0-.738-.625-1.362-1.363-1.362H27.836zm0-10.469h-.532a1.38 1.38 0 00-1.362 1.363c0 .738.625 1.363 1.362 1.363h14.44a1.38 1.38 0 001.362-1.363c0-.738-.625-1.363-1.363-1.363H27.836z" fill="#fff"/><path d="M41.745 20.936c.74 0 1.363.625 1.363 1.363a1.38 1.38 0 01-1.363 1.363h-15.5a11.725 11.725 0 01-7.763-3.235l-6.516-6.516v-.022H7.902v-.022c-.694-.093-1.226-.647-1.226-1.34 0-.694.532-1.27 1.226-1.341v-.024h7.992a4.19 4.19 0 004.204-4.205 4.192 4.192 0 00-4.204-4.206H2.727v19.572a1.38 1.38 0 01-1.363 1.363A1.382 1.382 0 010 22.323V.833A1.28 1.28 0 01.323.346 1.5 1.5 0 01.9 0h14.947a6.922 6.922 0 016.93 6.932 6.922 6.922 0 01-6.93 6.933h-.115l4.713 4.715a9.081 9.081 0 005.683 2.357h15.616z" fill="#fff"/><path d="M91.574.97a11.97 11.97 0 014.62-.948c.74 0 1.363.625 1.363 1.363s-.624 1.363-1.362 1.363c-1.27 0-2.473.254-3.557.715-1.594.694-2.588 1.641-3.767 2.82l-4.713 4.715-1.94-1.94 4.713-4.714c1.479-1.48 2.587-2.518 4.643-3.374z" fill="#FFC600"/></svg>