<svg width="46" height="46" fill="none" xmlns="http://www.w3.org/2000/svg"><path d="M32.583 3.833c5.75 0 9.584 3.834 9.584 9.584v3.833m-38.334 0v-3.833c0-5.75 3.834-9.584 9.584-9.584h11.059M42.167 28.75v3.833c0 5.75-3.834 9.584-9.584 9.584H21.984M3.833 28.75v3.833c0 5.75 3.834 9.584 9.584 9.584" stroke="#461F72" stroke-width="2" stroke-miterlimit="10" stroke-linecap="round" stroke-linejoin="round"/><path d="M12.842 17.748L23 23.632l10.082-5.845M23 34.06V23.612" stroke="#B266FF" stroke-width="2" stroke-linecap="round" stroke-linejoin="round"/><path d="M20.623 12.056l-6.133 3.412c-1.38.766-2.53 2.702-2.53 4.293v6.497c0 1.591 1.13 3.527 2.53 4.294l6.133 3.411c1.304.729 3.45.729 4.773 0l6.133-3.411c1.38-.767 2.53-2.703 2.53-4.294v-6.497c0-1.59-1.13-3.527-2.53-4.293l-6.133-3.412c-1.323-.748-3.47-.748-4.773 0z" stroke="#B266FF" stroke-width="2" stroke-linecap="round" stroke-linejoin="round"/></svg>