<svg width="46" height="46" viewBox="0 0 46 46" fill="none" xmlns="http://www.w3.org/2000/svg">
<path d="M32.5833 3.83337C38.3333 3.83337 42.1666 7.66671 42.1666 13.4167V17.25" stroke="#461F72" stroke-width="2" stroke-miterlimit="10" stroke-linecap="round" stroke-linejoin="round"/>
<path d="M3.83331 17.25V13.4167C3.83331 7.66671 7.66665 3.83337 13.4166 3.83337H24.4758" stroke="#461F72" stroke-width="2" stroke-miterlimit="10" stroke-linecap="round" stroke-linejoin="round"/>
<path d="M42.1667 28.75V32.5833C42.1667 38.3333 38.3334 42.1667 32.5834 42.1667H21.9842" stroke="#461F72" stroke-width="2" stroke-miterlimit="10" stroke-linecap="round" stroke-linejoin="round"/>
<path d="M3.83331 28.75V32.5833C3.83331 38.3333 7.66665 42.1667 13.4166 42.1667" stroke="#461F72" stroke-width="2" stroke-miterlimit="10" stroke-linecap="round" stroke-linejoin="round"/>
<path d="M12.8417 17.7483L23 23.6325L33.0817 17.7867" stroke="#B266FF" stroke-width="2" stroke-linecap="round" stroke-linejoin="round"/>
<path d="M23 34.0591V23.6133" stroke="#B266FF" stroke-width="2" stroke-linecap="round" stroke-linejoin="round"/>
<path d="M20.6233 12.0559L14.49 15.4676C13.11 16.2343 11.96 18.1701 11.96 19.7609V26.2584C11.96 27.8493 13.0908 29.7851 14.49 30.5517L20.6233 33.9634C21.9267 34.6917 24.0733 34.6917 25.3958 33.9634L31.5292 30.5517C32.9092 29.7851 34.0592 27.8493 34.0592 26.2584V19.7609C34.0592 18.1701 32.9283 16.2343 31.5292 15.4676L25.3958 12.0559C24.0733 11.3084 21.9267 11.3084 20.6233 12.0559Z" stroke="#B266FF" stroke-width="2" stroke-linecap="round" stroke-linejoin="round"/>
</svg>
