<svg width="46" height="46" fill="none" xmlns="http://www.w3.org/2000/svg"><path d="M12.842 17.748L23 23.632l10.082-5.845M23 34.06V23.612" stroke="#B266FF" stroke-width="2" stroke-linecap="round" stroke-linejoin="round"/><path d="M11.94 19.742c0-1.591 1.132-3.527 2.53-4.294l6.134-3.411c1.304-.729 3.45-.729 4.773 0l6.133 3.411c1.38.767 2.53 2.703 2.53 4.294v6.497c0 1.591-1.13 3.527-2.53 4.294l-6.133 3.411c-1.304.729-3.45.729-4.773 0l-6.133-3.411c-.69-.384-1.323-1.055-1.783-1.84" stroke="#B266FF" stroke-width="2" stroke-linecap="round" stroke-linejoin="round"/><path d="M42.167 28.75c0 7.417-6 13.417-13.417 13.417l2.012-3.355M3.833 17.25c0-7.418 6-13.417 13.417-13.417l-2.012 3.354" stroke="#461F72" stroke-width="2" stroke-linecap="round" stroke-linejoin="round"/></svg>