<svg width="46" height="46" viewBox="0 0 46 46" fill="none" xmlns="http://www.w3.org/2000/svg">
<path d="M3.8335 28.75V21.25C3.8335 19.0409 5.62436 17.25 7.8335 17.25H38.1668C40.376 17.25 42.1668 19.0409 42.1668 21.25V36.25C42.1668 38.4591 40.376 40.25 38.1668 40.25H7.83349C5.62435 40.25 3.8335 38.4591 3.8335 36.25V35.5952" stroke="#62029E" stroke-width="2" stroke-linecap="round" stroke-linejoin="round"/>
<path d="M3.8335 28.75H27.3811M42.1668 28.75H35.8692" stroke="#62029E" stroke-width="2" stroke-linecap="round" stroke-linejoin="round"/>
<path d="M7.6665 40.25V44.0833" stroke="#62029E" stroke-width="2" stroke-linecap="round" stroke-linejoin="round"/>
<path d="M38.3335 40.25V44.0833" stroke="#62029E" stroke-width="2" stroke-linecap="round" stroke-linejoin="round"/>
<path d="M42.1665 24.9167V32.5834" stroke="#62029E" stroke-width="2" stroke-linecap="round" stroke-linejoin="round"/>
<path d="M23 17.2499V9.58325" stroke="#A94DCA" stroke-width="2" stroke-linecap="round" stroke-linejoin="round"/>
<path fill-rule="evenodd" clip-rule="evenodd" d="M30.6668 9.58341C30.6668 5.34923 27.2344 1.91675 23.0002 1.91675C18.766 1.91675 15.3335 5.34923 15.3335 9.58341H30.6668Z" stroke="#A94DCA" stroke-width="2" stroke-linecap="round" stroke-linejoin="round"/>
</svg>
