<svg width="46" height="46" fill="none" xmlns="http://www.w3.org/2000/svg"><path d="M6.076 14.26L23 24.054l16.81-9.737M23 41.42V24.034" stroke="#461F72" stroke-width="2" stroke-linecap="round" stroke-linejoin="round"/><path d="M4.58 28.424V17.576c0-2.645 1.898-5.865 4.217-7.15l10.235-5.673c2.185-1.226 5.75-1.226 7.936 0l10.235 5.674c2.319 1.284 4.216 4.504 4.216 7.149v10.848c0 .096 0 .173-.019.268a7.515 7.515 0 00-4.983-1.859c-1.802 0-3.47.633-4.792 1.687a7.61 7.61 0 00-2.875 5.98c0 1.438.402 2.798 1.112 3.948.172.307.383.595.613.863l-3.508 1.936c-2.184 1.226-5.75 1.226-7.935 0L8.797 35.573" stroke="#461F72" stroke-width="2" stroke-linecap="round" stroke-linejoin="round"/><path d="M44.083 34.327a7.397 7.397 0 01-1.035 3.968c-.383.69-.9 1.322-1.476 1.84a7.64 7.64 0 01-5.002 2.032 7.585 7.585 0 01-6.632-3.584 7.46 7.46 0 01-1.188-3.93 7.607 7.607 0 012.74-6.037 7.722 7.722 0 014.754-1.783 7.666 7.666 0 017.84 7.494z" stroke="#B266FF" stroke-width="2" stroke-miterlimit="10" stroke-linecap="round" stroke-linejoin="round"/><path d="M33.427 34.557l1.936 1.84 4.005-3.871" stroke="#B266FF" stroke-width="2" stroke-linecap="round" stroke-linejoin="round"/></svg>