<svg width="28" height="28" fill="none" xmlns="http://www.w3.org/2000/svg"><path d="M3.698 8.68L14 14.642l10.232-5.927M14 25.212V14.63" stroke="#461F72" stroke-width="2" stroke-linecap="round" stroke-linejoin="round"/><path d="M2.788 17.302v-6.604c0-1.61 1.155-3.57 2.567-4.351l6.23-3.454c1.33-.746 3.5-.746 4.83 0l6.23 3.454c1.412.781 2.567 2.741 2.567 4.351v6.604c0 .058 0 .105-.012.163a4.574 4.574 0 00-3.033-1.132 4.67 4.67 0 00-2.917 1.027A4.632 4.632 0 0017.5 21c0 .875.245 1.703.677 2.403a3.3 3.3 0 00.373.525l-2.135 1.179c-1.33.746-3.5.746-4.83 0l-6.23-3.454" stroke="#461F72" stroke-width="2" stroke-linecap="round" stroke-linejoin="round"/><path d="M26.833 21c0 1.4-.618 2.648-1.586 3.5a4.666 4.666 0 01-3.08 1.167A4.665 4.665 0 0117.5 21c0-1.47.677-2.788 1.75-3.64A4.665 4.665 0 0126.833 21z" stroke="#B266FF" stroke-width="2" stroke-miterlimit="10" stroke-linecap="round" stroke-linejoin="round"/><path d="M22.458 19.541v1.75L21 22.166" stroke="#B266FF" stroke-width="2" stroke-miterlimit="10" stroke-linecap="round" stroke-linejoin="round"/></svg>