<svg width="46" height="46" fill="none" xmlns="http://www.w3.org/2000/svg"><path d="M6.076 14.26L23 24.054l16.81-9.737M23 41.42V24.034" stroke="#461F72" stroke-width="2" stroke-linecap="round" stroke-linejoin="round"/><path d="M4.58 17.576c0-2.645 1.898-5.865 4.217-7.15l10.235-5.692c2.185-1.207 5.77-1.207 7.955 0l10.235 5.693c2.319 1.284 4.216 4.504 4.216 7.149v10.83c0 2.644-1.897 5.864-4.216 7.148l-10.235 5.693c-2.185 1.207-5.77 1.207-7.955 0L8.797 35.554c-2.319-1.284-4.216-4.504-4.216-7.149v-1.572" stroke="#461F72" stroke-width="2" stroke-linecap="round" stroke-linejoin="round"/><path d="M32.583 25.377v-7.015L20.95 11.634l-2.012-1.15-4.543-2.626" stroke="#B266FF" stroke-width="2" stroke-linecap="round" stroke-linejoin="round"/></svg>