<svg width="46" height="46" viewBox="0 0 46 46" fill="none" xmlns="http://www.w3.org/2000/svg">
<path d="M6.07593 14.26L23.0001 24.0541L39.8092 14.3174" stroke="#461F72" stroke-width="2" stroke-linecap="round" stroke-linejoin="round"/>
<path d="M23 41.4191V24.0349" stroke="#461F72" stroke-width="2" stroke-linecap="round" stroke-linejoin="round"/>
<path d="M4.58081 17.5759C4.58081 14.9309 6.47828 11.711 8.79744 10.4268L19.0324 4.73424C21.2174 3.52674 24.8016 3.52674 26.9866 4.73424L37.2216 10.4268C39.5408 11.711 41.4383 14.9309 41.4383 17.5759V28.4051C41.4383 31.0501 39.5408 34.2701 37.2216 35.5543L26.9866 41.2468C24.8016 42.4543 21.2174 42.4543 19.0324 41.2468L8.79744 35.5543C6.47828 34.2701 4.58081 31.0501 4.58081 28.4051V26.8335" stroke="#461F72" stroke-width="2" stroke-linecap="round" stroke-linejoin="round"/>
<path d="M32.5834 25.3768V18.3618L20.9493 11.6343L18.9368 10.4842L14.3943 7.8584" stroke="#B266FF" stroke-width="2" stroke-linecap="round" stroke-linejoin="round"/>
</svg>
