<svg width="46" height="46" fill="none" xmlns="http://www.w3.org/2000/svg"><path d="M20.81 38.333h-9.39a7.587 7.587 0 01-7.587-7.586c0-1.152.255-2.296.931-3.229 1.988-2.744 7.378-8.351 18.236-8.351s16.248 5.607 18.236 8.351c.676.933.93 2.077.93 3.229a7.587 7.587 0 01-7.586 7.586h-5.79" stroke="#62029E" stroke-width="2" stroke-linecap="round" stroke-linejoin="round"/><path d="M11.5 8.625v3.833" stroke="#A94DCA" stroke-width="2" stroke-linecap="round"/><path d="M13.416 21.083v3.834" stroke="#62029E" stroke-width="2" stroke-linecap="round"/><path d="M34.5 8.625v3.833" stroke="#A94DCA" stroke-width="2" stroke-linecap="round"/><path d="M32.584 21.083v3.834" stroke="#62029E" stroke-width="2" stroke-linecap="round"/><path d="M23 6.708v5.75" stroke="#A94DCA" stroke-width="2" stroke-linecap="round"/><path d="M23 19.167v7.666m15.333-2.45C35.368 21.83 30.482 19.167 23 19.167S10.632 21.83 7.666 24.383" stroke="#62029E" stroke-width="2" stroke-linecap="round"/></svg>