<svg width="46" height="46" fill="none" xmlns="http://www.w3.org/2000/svg"><path d="M15.333 42.167h15.334c7.705 0 9.085-3.086 9.487-6.843l1.438-15.333c.517-4.677-.824-8.491-9.009-8.491H13.417c-8.184 0-9.526 3.814-9.009 8.49l1.438 15.334c.402 3.757 1.782 6.843 9.487 6.843zm0-30.667V9.967c0-3.393 0-6.134 6.134-6.134h3.066c6.134 0 6.134 2.741 6.134 6.134V11.5m10.829 9.583a31.595 31.595 0 01-14.663 5.789M5.022 21.6c4.312 2.952 9.18 4.735 14.145 5.29" stroke="#461F72" stroke-width="2" stroke-miterlimit="10" stroke-linecap="round" stroke-linejoin="round"/><path d="M26.833 24.917v1.955c0 2.089-.019 3.795-3.833 3.795-3.795 0-3.833-1.687-3.833-3.776v-1.974c0-1.917 0-1.917 1.916-1.917h3.834c1.916 0 1.916 0 1.916 1.917z" stroke="#B266FF" stroke-width="2" stroke-miterlimit="10" stroke-linecap="round" stroke-linejoin="round"/></svg>