<svg width="46" height="46" fill="none" xmlns="http://www.w3.org/2000/svg"><path d="M38.66 10.158l-.92 16.694c-.116-.019-.23-.019-.365-.019H8.625c-.134 0-.249 0-.364.02l-.92-16.695a5.743 5.743 0 015.712-6.325h19.895a5.743 5.743 0 015.712 6.325zM15.315 3.833v9.584M23 3.833v3.834" stroke="#A94DCA" stroke-width="2" stroke-linecap="round" stroke-linejoin="round"/><path d="M18.208 37.375V34.5H8.625a3.747 3.747 0 01-2.703-1.13 3.748 3.748 0 01-1.13-2.703c0-1.975 1.533-3.623 3.469-3.815.115-.019.23-.019.364-.019h28.75c.134 0 .249 0 .364.02.92.076 1.725.479 2.338 1.111.786.767 1.208 1.86 1.112 3.048-.172 2.012-1.993 3.488-4.025 3.488h-9.373v2.875A4.793 4.793 0 0123 42.167a4.793 4.793 0 01-4.792-4.792z" stroke="#62029E" stroke-width="2" stroke-linecap="round" stroke-linejoin="round"/></svg>