<svg width="46" height="46" viewBox="0 0 46 46" fill="none" xmlns="http://www.w3.org/2000/svg">
<path d="M3.83325 7.95425C3.83325 5.21342 5.2133 3.83337 7.95413 3.83337H16.1958C18.9366 3.83337 20.3165 5.21342 20.3165 7.95425V11.5" stroke="#B266FF" stroke-width="2" stroke-miterlimit="10" stroke-linecap="round" stroke-linejoin="round"/>
<path d="M12.8416 34.5001H7.95413C5.2133 34.5001 3.83325 33.12 3.83325 30.3792V15.41" stroke="#B266FF" stroke-width="2" stroke-miterlimit="10" stroke-linecap="round" stroke-linejoin="round"/>
<path d="M25.6833 11.5V7.95425C25.6833 5.21342 27.0633 3.83337 29.8041 3.83337H38.0458C40.7866 3.83337 42.1666 5.21342 42.1666 7.95425V30.3792C42.1666 33.12 40.7866 34.5 38.0458 34.5H33.2925" stroke="#B266FF" stroke-width="2" stroke-miterlimit="10" stroke-linecap="round" stroke-linejoin="round"/>
<path d="M33.2926 16.1383V37.5284C33.2926 40.6142 31.7593 42.1667 28.6735 42.1667H17.4801C14.3943 42.1667 12.8418 40.6142 12.8418 37.5284V16.1383C12.8418 13.0525 14.3943 11.5 17.4801 11.5H28.6735C31.7593 11.5 33.2926 13.0525 33.2926 16.1383Z" stroke="#461F72" stroke-width="2" stroke-miterlimit="10" stroke-linecap="round" stroke-linejoin="round"/>
<path d="M19.1667 21.0834H26.8334" stroke="#B266FF" stroke-width="2" stroke-miterlimit="10" stroke-linecap="round" stroke-linejoin="round"/>
<path d="M19.1667 26.8334H26.8334" stroke="#B266FF" stroke-width="2" stroke-miterlimit="10" stroke-linecap="round" stroke-linejoin="round"/>
<path d="M23 42.1666V36.4166" stroke="#461F72" stroke-width="2" stroke-miterlimit="10" stroke-linecap="round" stroke-linejoin="round"/>
</svg>
