<svg width="46" height="46" fill="none" xmlns="http://www.w3.org/2000/svg"><path d="M3.833 21.083c0-3.833 1.917-5.75 5.75-5.75h9.584v21.084c0 3.833 1.916 5.75 5.75 5.75H9.583c-3.833 0-5.75-1.917-5.75-5.75V28.75" stroke="#62029E" stroke-width="2" stroke-miterlimit="10" stroke-linecap="round" stroke-linejoin="round"/><path d="M19.378 7.667c-.154.575-.211 1.207-.211 1.916v5.75H9.583V11.5a3.845 3.845 0 013.834-3.833h5.96z" stroke="#62029E" stroke-width="2" stroke-miterlimit="10" stroke-linecap="round" stroke-linejoin="round"/><path d="M26.834 15.333v9.584m7.666-9.584v9.584" stroke="#A94DCA" stroke-width="2" stroke-miterlimit="10" stroke-linecap="round" stroke-linejoin="round"/><path d="M32.584 32.583H28.75a1.922 1.922 0 00-1.916 1.917v7.667H34.5V34.5a1.922 1.922 0 00-1.916-1.917z" stroke="#62029E" stroke-width="2" stroke-miterlimit="10" stroke-linecap="round" stroke-linejoin="round"/><path d="M11.5 24.917v7.666" stroke="#A94DCA" stroke-width="2" stroke-miterlimit="10" stroke-linecap="round" stroke-linejoin="round"/><path d="M19.166 36.417V9.583c0-3.833 1.917-5.75 5.75-5.75h11.5c3.834 0 5.75 1.917 5.75 5.75v26.834c0 3.833-1.916 5.75-5.75 5.75h-11.5c-3.833 0-5.75-1.917-5.75-5.75z" stroke="#62029E" stroke-width="2" stroke-miterlimit="10" stroke-linecap="round" stroke-linejoin="round"/></svg>