<svg width="46" height="46" fill="none" xmlns="http://www.w3.org/2000/svg"><path d="M42.11 28.865v7.245c0 4.14-1.917 6.057-6.057 6.057H23.958V19.972l.901.191 8.625 1.936 3.891.863c2.53.555 4.6 1.859 4.715 5.539.02.115.02.23.02.364z" stroke="#B266FF" stroke-width="2" stroke-linecap="round" stroke-linejoin="round"/><path d="M10.542 17.25h6.65m-6.65 7.666h6.65" stroke="#461F72" stroke-width="2" stroke-linecap="round" stroke-linejoin="round"/><path d="M33.484 22.1v6.171a4.319 4.319 0 01-4.312 4.313 4.319 4.319 0 01-4.313-4.313v-8.107l8.625 1.935zm8.606 6.4a4.31 4.31 0 01-4.293 4.083 4.319 4.319 0 01-4.313-4.312v-6.172l3.891.863c2.53.555 4.6 1.859 4.715 5.539z" stroke="#B266FF" stroke-width="2" stroke-linecap="round" stroke-linejoin="round"/><path d="M3.776 11.404V9.756c0-5.022 3.737-7.303 8.318-5.06l8.51 4.178c1.84.9 3.354 3.297 3.354 5.328v27.965H7.82c-2.223 0-4.044-1.783-4.044-3.968V19.205" stroke="#461F72" stroke-width="2" stroke-linecap="round" stroke-linejoin="round"/></svg>