<svg width="46" height="46" fill="none" xmlns="http://www.w3.org/2000/svg"><path d="M3.833 7.954c0-2.74 1.38-4.12 4.121-4.12h8.242c2.74 0 4.12 1.38 4.12 4.12V11.5m-7.474 23H7.954c-2.74 0-4.12-1.38-4.12-4.12V15.41m21.849-3.91V7.954c0-2.74 1.38-4.12 4.121-4.12h8.242c2.74 0 4.12 1.38 4.12 4.12V30.38c0 2.741-1.38 4.121-4.12 4.121h-4.754" stroke="#B266FF" stroke-width="2" stroke-miterlimit="10" stroke-linecap="round" stroke-linejoin="round"/><path d="M33.293 16.138v21.39c0 3.086-1.534 4.639-4.62 4.639H17.48c-3.086 0-4.638-1.553-4.638-4.639v-21.39c0-3.086 1.552-4.638 4.638-4.638h11.194c3.085 0 4.619 1.553 4.619 4.638z" stroke="#461F72" stroke-width="2" stroke-miterlimit="10" stroke-linecap="round" stroke-linejoin="round"/><path d="M19.167 21.083h7.666m-7.666 5.75h7.666" stroke="#B266FF" stroke-width="2" stroke-miterlimit="10" stroke-linecap="round" stroke-linejoin="round"/><path d="M23 42.167v-5.75" stroke="#461F72" stroke-width="2" stroke-miterlimit="10" stroke-linecap="round" stroke-linejoin="round"/></svg>