<svg width="28" height="28" fill="none" xmlns="http://www.w3.org/2000/svg"><path d="M10.955 7.012c.21.292.362.56.467.817.105.244.163.49.163.711 0 .28-.082.56-.245.829a3.968 3.968 0 01-.653.828l-.887.921a.624.624 0 00-.187.467c0 .093.012.175.035.268.035.094.07.164.094.234.21.385.571.886 1.085 1.493a39.957 39.957 0 001.691 1.844c.63.618 1.237 1.19 1.855 1.715.607.513 1.109.863 1.505 1.073.059.023.129.058.21.093a.806.806 0 00.292.047c.198 0 .35-.07.478-.198l.887-.875c.292-.292.572-.514.84-.654.268-.163.537-.245.828-.245.222 0 .455.047.712.152.257.105.525.256.817.455l3.861 2.742c.304.21.514.454.642.746.117.292.187.583.187.91 0 .42-.094.852-.292 1.272-.198.42-.455.817-.793 1.19-.572.63-1.202 1.085-1.914 1.377a5.87 5.87 0 01-2.275.443c-1.19 0-2.461-.28-3.803-.852s-2.683-1.341-4.013-2.31a33.536 33.536 0 01-3.827-3.267 33.146 33.146 0 01-3.255-3.814c-.957-1.33-1.727-2.66-2.287-3.979-.56-1.33-.84-2.601-.84-3.815 0-.793.14-1.551.42-2.252A5.37 5.37 0 014.095 3.43c.747-.735 1.563-1.097 2.427-1.097.326 0 .653.07.945.21.303.14.571.35.781.654" stroke="#461F72" stroke-width="2" stroke-miterlimit="10" stroke-linecap="round" stroke-linejoin="round"/><path d="M21.583 10.5c0-.7-.548-1.774-1.365-2.649-.746-.804-1.738-1.434-2.718-1.434m2.345-3.745a8.199 8.199 0 00-2.345-.339m8.167 8.167a8.15 8.15 0 00-3.477-6.685" stroke="#B266FF" stroke-width="2" stroke-linecap="round" stroke-linejoin="round"/></svg>