<svg width="46" height="46" fill="none" xmlns="http://www.w3.org/2000/svg"><path d="M9.583 42.167h3.834c3.833 0 5.75-1.917 5.75-5.75v-3.834c0-3.833-1.917-5.75-5.75-5.75H9.583c-3.833 0-5.75 1.917-5.75 5.75v3.834M36.417 3.833h-3.834c-3.833 0-5.75 1.917-5.75 5.75v3.834c0 3.833 1.917 5.75 5.75 5.75h3.834c3.833 0 5.75-1.917 5.75-5.75V9.583M34.5 26.833a7.667 7.667 0 100 15.334 7.667 7.667 0 000-15.334z" stroke="#461F72" stroke-width="2" stroke-miterlimit="10" stroke-linecap="round" stroke-linejoin="round"/><path d="M11.5 3.833a7.667 7.667 0 100 15.334 7.667 7.667 0 000-15.334z" stroke="#B266FF" stroke-width="2" stroke-miterlimit="10" stroke-linecap="round" stroke-linejoin="round"/></svg>