<svg width="28" height="28" viewBox="0 0 28 28" fill="none" xmlns="http://www.w3.org/2000/svg">
<path d="M25.6667 15.1666V10.4999C25.6667 4.66659 23.3333 2.33325 17.5 2.33325H10.5C4.66668 2.33325 2.33334 4.66659 2.33334 10.4999V17.4999C2.33334 23.3333 4.66668 25.6666 10.5 25.6666H15.1667" stroke="#461F72" stroke-width="2" stroke-linecap="round" stroke-linejoin="round"/>
<path d="M25.6667 15.1666V10.4999C25.6667 4.66659 23.3333 2.33325 17.5 2.33325H10.5C4.66668 2.33325 2.33334 4.66659 2.33334 10.4999V17.4999C2.33334 23.3333 4.66668 25.6666 10.5 25.6666H15.1667" stroke="#461F72" stroke-width="2" stroke-linecap="round" stroke-linejoin="round"/>
<path d="M8.16666 12.53V16.2634" stroke="#461F72" stroke-width="2" stroke-linecap="round" stroke-linejoin="round"/>
<path d="M19.8333 12.53V16.2634" stroke="#461F72" stroke-width="2" stroke-linecap="round" stroke-linejoin="round"/>
<path d="M2.33334 15.1667V17.5001C2.33334 23.3334 4.66668 25.6667 10.5 25.6667H15.1667" stroke="#461F72" stroke-width="2" stroke-linecap="round" stroke-linejoin="round"/>
<path d="M25.6667 15.1666V10.4999C25.6667 4.66659 23.3333 2.33325 17.5 2.33325H10.5C4.66668 2.33325 2.33334 4.66659 2.33334 10.4999" stroke="#461F72" stroke-width="2" stroke-linecap="round" stroke-linejoin="round"/>
<path d="M18.6667 22.6683L20.51 24.4999L24.5 19.8333" stroke="#B266FF" stroke-width="2" stroke-linecap="round" stroke-linejoin="round"/>
<path d="M14 12.25V15.75" stroke="#461F72" stroke-width="2" stroke-linecap="round" stroke-linejoin="round"/>
</svg>
