<svg width="28" height="28" fill="none" xmlns="http://www.w3.org/2000/svg"><path d="M25.667 15.167V10.5c0-5.833-2.334-8.167-8.167-8.167h-7c-5.833 0-8.167 2.334-8.167 8.167v7c0 5.833 2.334 8.167 8.167 8.167h4.667" stroke="#461F72" stroke-width="2" stroke-linecap="round" stroke-linejoin="round"/><path d="M25.667 15.167V10.5c0-5.833-2.334-8.167-8.167-8.167h-7c-5.833 0-8.167 2.334-8.167 8.167v7c0 5.833 2.334 8.167 8.167 8.167h4.667m-7-13.137v3.733m11.666-3.733v3.733" stroke="#461F72" stroke-width="2" stroke-linecap="round" stroke-linejoin="round"/><path d="M2.333 15.167V17.5c0 5.833 2.334 8.167 8.167 8.167h4.667m10.5-10.5V10.5c0-5.833-2.334-8.167-8.167-8.167h-7c-5.833 0-8.167 2.334-8.167 8.167" stroke="#461F72" stroke-width="2" stroke-linecap="round" stroke-linejoin="round"/><path d="M18.667 22.668L20.51 24.5l3.99-4.667" stroke="#B266FF" stroke-width="2" stroke-linecap="round" stroke-linejoin="round"/><path d="M14 12.25v3.5" stroke="#461F72" stroke-width="2" stroke-linecap="round" stroke-linejoin="round"/></svg>