<svg width="46" height="46" fill="none" xmlns="http://www.w3.org/2000/svg"><path d="M17.25 24.917a8.082 8.082 0 00-3.105 2.74 1.97 1.97 0 000 2.186 8.083 8.083 0 003.105 2.74m11.902-7.666a8.082 8.082 0 013.105 2.74 1.971 1.971 0 010 2.186 8.083 8.083 0 01-3.105 2.74" stroke="#B266FF" stroke-width="2" stroke-linecap="round" stroke-linejoin="round"/><path d="M3.833 24.917v3.833c0 9.583 3.834 13.417 13.417 13.417h11.5c9.584 0 13.417-3.834 13.417-13.417v-11.5c0-9.583-3.834-13.417-13.417-13.417h-11.5c-9.583 0-13.416 3.834-13.416 13.417m.44-1.898l36.838-.019" stroke="#461F72" stroke-width="2" stroke-linecap="round" stroke-linejoin="round"/></svg>