<svg width="46" height="46" viewBox="0 0 46 46" fill="none" xmlns="http://www.w3.org/2000/svg">
<path d="M17.2501 24.9167C15.9851 25.5492 14.9309 26.4884 14.1451 27.6576C13.7042 28.3284 13.7042 29.1717 14.1451 29.8426C14.9309 31.0117 15.9851 31.9509 17.2501 32.5834" stroke="#B266FF" stroke-width="2" stroke-linecap="round" stroke-linejoin="round"/>
<path d="M29.1523 24.9167C30.4173 25.5492 31.4715 26.4884 32.2573 27.6576C32.6982 28.3284 32.6982 29.1717 32.2573 29.8426C31.4715 31.0117 30.4173 31.9509 29.1523 32.5834" stroke="#B266FF" stroke-width="2" stroke-linecap="round" stroke-linejoin="round"/>
<path d="M3.8335 24.9166V28.7499C3.8335 38.3333 7.66683 42.1666 17.2502 42.1666H28.7502C38.3335 42.1666 42.1668 38.3333 42.1668 28.7499V17.2499C42.1668 7.66659 38.3335 3.83325 28.7502 3.83325H17.2502C7.66683 3.83325 3.8335 7.66659 3.8335 17.2499" stroke="#461F72" stroke-width="2" stroke-linecap="round" stroke-linejoin="round"/>
<path d="M4.27393 15.3524L41.1123 15.3333" stroke="#461F72" stroke-width="2" stroke-linecap="round" stroke-linejoin="round"/>
</svg>
