<svg width="46" height="46" fill="none" xmlns="http://www.w3.org/2000/svg"><path d="M36.13 3.833h-5.176c-4.312 0-6.037 1.725-6.037 6.038v7.091c0 4.313 1.725 6.038 6.037 6.038h5.175c4.313 0 6.038-1.725 6.038-6.038v-5.539M9.87 42.167h5.176c4.312 0 6.037-1.725 6.037-6.038v-7.091c0-4.313-1.725-6.038-6.037-6.038H9.87c-4.313 0-6.038 1.725-6.038 6.038v5.769" stroke="#461F72" stroke-width="2" stroke-linecap="round" stroke-linejoin="round"/><path d="M42.167 28.75c0 7.417-6 13.417-13.417 13.417l2.012-3.355M3.833 17.25c0-7.417 6-13.417 13.417-13.417l-2.012 3.355" stroke="#B266FF" stroke-width="2" stroke-linecap="round" stroke-linejoin="round"/></svg>