<svg width="48" height="48" fill="none" xmlns="http://www.w3.org/2000/svg"><path d="M19.2 40h9.6c8 0 11.2-3.2 11.2-11.2v-9.6C40 11.2 36.8 8 28.8 8h-9.6C11.2 8 8 11.2 8 19.2v9.6c0 8 3.2 11.2 11.2 11.2z" stroke="#461F72" stroke-width="2" stroke-linecap="round" stroke-linejoin="round"/><path d="M14 21v6c0 5 2 7 7 7h6c5 0 7-2 7-7v-6c0-5-2-7-7-7h-6" stroke="#B266FF" stroke-width="2" stroke-linecap="round" stroke-linejoin="round"/><path d="M16.02 8V4M24 8V4m8 4V4m8 12h4m-4 8h4m-4 8h4m-12 8v4m-7.98-4v4m-8-4v4M4 16h4m-4 8h4m-4 8h4" stroke="#461F72" stroke-width="2" stroke-linecap="round" stroke-linejoin="round"/></svg>