<svg width="46" height="46" fill="none" xmlns="http://www.w3.org/2000/svg"><path d="M13.417 23C5.75 23 5.75 26.43 5.75 30.667v1.916c0 5.29 0 9.584 9.583 9.584h15.334c7.666 0 9.583-4.294 9.583-9.584v-1.916c0-4.236 0-7.667-7.667-7.667-1.916 0-2.453.402-3.45 1.15l-1.955 2.07c-2.261 2.415-6.095 2.415-8.376 0l-1.935-2.07c-.997-.747-1.534-1.15-3.45-1.15zm-3.834-3.91V23m26.834 0V11.5c0-4.236 0-7.667-7.667-7.667h-11.5c-7.667 0-7.667 3.431-7.667 7.667" stroke="#461F72" stroke-width="2" stroke-miterlimit="10" stroke-linecap="round" stroke-linejoin="round"/><path d="M19.8 17.633h6.382m0-5.75h1.61m-9.584 0h3.029" stroke="#B266FF" stroke-width="2" stroke-linecap="round" stroke-linejoin="round"/></svg>