<svg width="28" height="28" fill="none" xmlns="http://www.w3.org/2000/svg"><path d="M3.908 2.333h10.384c.863 0 1.575.712 1.575 1.575v1.727c0 .63-.397 1.412-.782 1.808l-3.383 2.987c-.467.397-.782 1.178-.782 1.808v3.384c0 .466-.315 1.096-.712 1.341l-1.096.712c-1.027.63-2.439-.082-2.439-1.342v-4.165c0-.548-.315-1.26-.63-1.656l-2.986-3.15c-.397-.397-.712-1.097-.712-1.575V3.978c-.012-.933.7-1.645 1.563-1.645z" stroke="#461F72" stroke-width="2" stroke-miterlimit="10" stroke-linecap="round" stroke-linejoin="round"/><path d="M25.667 10.5c0-3.64-.91-5.927-3.022-7.117-.595-.338-1.785-.595-2.87-.77M2.333 14v3.5c0 5.833 2.334 8.167 8.167 8.167h7c5.833 0 8.167-2.334 8.167-8.167v-2.333" stroke="#461F72" stroke-width="2" stroke-linecap="round" stroke-linejoin="round"/><path d="M15.167 15.167H21m-8.167 4.666H21" stroke="#B266FF" stroke-width="2" stroke-linecap="round" stroke-linejoin="round"/></svg>