<svg width="28" height="28" viewBox="0 0 28 28" fill="none" xmlns="http://www.w3.org/2000/svg">
<path d="M3.90831 2.33337H14.2917C15.155 2.33337 15.8666 3.04505 15.8666 3.90838V5.63502C15.8666 6.26502 15.47 7.04671 15.085 7.44338L11.7017 10.43C11.235 10.8267 10.92 11.6084 10.92 12.2384V15.6217C10.92 16.0884 10.605 16.7184 10.2083 16.9634L9.11167 17.675C8.08501 18.305 6.67331 17.5934 6.67331 16.3334V12.1684C6.67331 11.62 6.35833 10.9084 6.04333 10.5117L3.05667 7.3617C2.66 6.96504 2.34502 6.26503 2.34502 5.7867V3.97838C2.33335 3.04504 3.04498 2.33337 3.90831 2.33337Z" stroke="#461F72" stroke-width="2" stroke-miterlimit="10" stroke-linecap="round" stroke-linejoin="round"/>
<path d="M25.6667 10.5C25.6667 6.85996 24.7566 4.57329 22.645 3.38329C22.05 3.04495 20.86 2.78828 19.775 2.61328" stroke="#461F72" stroke-width="2" stroke-linecap="round" stroke-linejoin="round"/>
<path d="M2.33334 14V17.5C2.33334 23.3333 4.66668 25.6667 10.5 25.6667H17.5C23.3333 25.6667 25.6667 23.3333 25.6667 17.5V15.1667" stroke="#461F72" stroke-width="2" stroke-linecap="round" stroke-linejoin="round"/>
<path d="M15.1667 15.1666H21" stroke="#B266FF" stroke-width="2" stroke-linecap="round" stroke-linejoin="round"/>
<path d="M12.8333 19.8334H21" stroke="#B266FF" stroke-width="2" stroke-linecap="round" stroke-linejoin="round"/>
</svg>
