<svg width="46" height="46" fill="none" xmlns="http://www.w3.org/2000/svg"><path d="M21.62 3.833h-3.508c-3.45 0-4.216 1.725-4.657 3.853l-1.572 7.513h22.234l-1.572-7.513c-.44-2.108-1.208-3.853-4.658-3.853" stroke="#461F72" stroke-width="2" stroke-linecap="round" stroke-linejoin="round"/><path d="M36.723 25.74l.154 1.707c.153 1.629-1.15 3.028-2.818 3.028h-2.607c-1.495 0-1.705-.633-1.974-1.438l-.287-.824c-.384-1.13-.633-1.897-2.645-1.897h-7.111c-1.993 0-2.3.862-2.645 1.897l-.288.825c-.268.785-.479 1.437-1.974 1.437h-2.606c-1.668 0-2.971-1.4-2.818-3.028l.786-8.472c.192-2.09.594-3.795 4.236-3.795h17.729c3.642 0 4.044 1.706 4.236 3.795M11.883 11.02h-1.399m25.032 0h-1.4" stroke="#461F72" stroke-width="2" stroke-linecap="round" stroke-linejoin="round"/><path d="M14.662 20.758h4.16m8.356 0h4.16M23 32.583V34.5m0 5.75v1.917M5.75 34.5l-1.917 7.667M40.25 34.5l1.917 7.667" stroke="#B266FF" stroke-width="2" stroke-linecap="round" stroke-linejoin="round"/></svg>