<svg width="46" height="46" fill="none" xmlns="http://www.w3.org/2000/svg"><path d="M11.5 11.98v3.832M42.167 23v-5.75c0-9.583-3.834-13.417-13.417-13.417h-11.5c-9.583 0-13.417 3.834-13.417 13.417v11.5c0 9.583 3.834 13.417 13.417 13.417H23M19.167 11.98v3.832M11.5 30.667V34.5m7.667-3.833V34.5m7.666-20.604H34.5M3.833 23H34.5" stroke="#461F72" stroke-width="2" stroke-linecap="round" stroke-linejoin="round"/><path d="M41.323 38.966a6.21 6.21 0 01-5.386 3.105c-3.43 0-5.539-3.45-5.539-3.45m.134-5.865a6.195 6.195 0 015.405-3.124c4.16 0 6.23 3.45 6.23 3.45m0-3.853v3.834h-3.834m-4.101 5.539h-3.834v3.565" stroke="#B266FF" stroke-width="2" stroke-linecap="round" stroke-linejoin="round"/></svg>