<svg width="28" height="28" viewBox="0 0 28 28" fill="none" xmlns="http://www.w3.org/2000/svg">
<path d="M18.3517 2.33325C16.4967 2.33325 15.75 3.07992 15.75 4.93492V9.64825C15.75 11.5033 16.4967 12.2499 18.3517 12.2499H23.065C24.92 12.2499 25.6667 11.5033 25.6667 9.64825V4.93492C25.6667 3.07992 24.92 2.33325 23.065 2.33325" stroke="#461F72" stroke-width="2" stroke-linecap="round" stroke-linejoin="round"/>
<path d="M12.25 9.93992V4.64325C12.25 2.99825 11.5033 2.33325 9.64833 2.33325H4.935C3.07999 2.33325 2.33333 2.99825 2.33333 4.64325V9.92825C2.33333 11.5849 3.07999 12.2383 4.935 12.2383H9.64833C11.5033 12.2499 12.25 11.5849 12.25 9.93992Z" stroke="#461F72" stroke-width="2" stroke-linecap="round" stroke-linejoin="round"/>
<path d="M9.64833 25.6667C11.5033 25.6667 12.25 24.92 12.25 23.065V18.3517C12.25 16.4967 11.5033 15.75 9.64833 15.75H4.935C3.07999 15.75 2.33333 16.4967 2.33333 18.3517V23.065C2.33333 24.92 3.07999 25.6667 4.935 25.6667" stroke="#461F72" stroke-width="2" stroke-linecap="round" stroke-linejoin="round"/>
<path d="M16.9167 20.4167H23.9167" stroke="#B266FF" stroke-width="2" stroke-linecap="round"/>
<path d="M20.4167 23.9167V16.9167" stroke="#B266FF" stroke-width="2" stroke-linecap="round"/>
</svg>
