<svg width="28" height="28" fill="none" xmlns="http://www.w3.org/2000/svg"><path d="M18.352 2.333c-1.855 0-2.602.747-2.602 2.602v4.713c0 1.855.747 2.602 2.602 2.602h4.713c1.855 0 2.602-.747 2.602-2.602V4.935c0-1.855-.747-2.602-2.602-2.602M12.25 9.94V4.643c0-1.645-.747-2.31-2.602-2.31H4.935c-1.855 0-2.602.665-2.602 2.31v5.285c0 1.657.747 2.31 2.602 2.31h4.713c1.855.012 2.602-.653 2.602-2.298zM9.648 25.667c1.855 0 2.602-.747 2.602-2.602v-4.713c0-1.855-.747-2.602-2.602-2.602H4.935c-1.855 0-2.602.747-2.602 2.602v4.713c0 1.855.747 2.602 2.602 2.602" stroke="#461F72" stroke-width="2" stroke-linecap="round" stroke-linejoin="round"/><path d="M16.917 20.417h7m-3.5 3.5v-7" stroke="#B266FF" stroke-width="2" stroke-linecap="round"/></svg>