<svg width="46" height="46" fill="none" xmlns="http://www.w3.org/2000/svg"><path d="M17.308 26.833A6.76 6.76 0 0116.138 23 6.855 6.855 0 0123 16.138 6.855 6.855 0 0129.862 23 6.855 6.855 0 0123 29.862" stroke="#B266FF" stroke-width="2" stroke-linecap="round" stroke-linejoin="round"/><path d="M33.657 10.695c-3.24-2.3-6.881-3.546-10.657-3.546-6.766 0-13.072 3.987-17.46 10.887-1.726 2.702-1.726 7.245 0 9.947C9.927 34.883 16.233 38.87 23 38.87s13.072-3.987 17.46-10.887c1.726-2.702 1.726-7.245 0-9.947" stroke="#461F72" stroke-width="2" stroke-linecap="round" stroke-linejoin="round"/></svg>