<svg width="52" height="52" fill="none" xmlns="http://www.w3.org/2000/svg"><g clip-path="url(#clip0_918_1815)"><path fill="#fff" d="M10.4 9.1h31.2v33.8H10.4z"/><path d="M26 0a26 26 0 100 52 26 26 0 000-52zm6.589 23.537l-.431 3.623a.684.684 0 01-.684.609H27.71V38.51a.486.486 0 01-.48.489H23.4a.485.485 0 01-.479-.493l.02-10.738h-2.85a.684.684 0 01-.683-.684v-3.62a.684.684 0 01.684-.684h2.83v-3.51c0-4.061 2.418-6.271 5.952-6.271h2.897a.685.685 0 01.685.684v3.048a.684.684 0 01-.685.685h-1.775c-1.923.03-2.285.95-2.285 2.326v3.027h4.214a.684.684 0 01.664.767z" fill="#472566"/></g><defs><clipPath id="clip0_918_1815"><path fill="#fff" d="M0 0h52v52H0z"/></clipPath></defs></svg>