<svg width="46" height="46" fill="none" xmlns="http://www.w3.org/2000/svg"><path d="M42.167 24.917V17.25c0-9.583-3.834-13.416-13.417-13.416h-11.5c-9.583 0-13.417 3.833-13.417 13.416v11.5c0 9.584 3.834 13.417 13.417 13.417h7.667" stroke="#461F72" stroke-width="2" stroke-linecap="round" stroke-linejoin="round"/><path d="M14.05 27.773l4.56-5.923a1.924 1.924 0 012.703-.345l3.508 2.76c.843.652 2.05.498 2.702-.326l4.428-5.712" stroke="#461F72" stroke-width="2" stroke-linecap="round" stroke-linejoin="round"/><path d="M39.388 32.545c-.575-.096-1.265-.613-1.534-1.15l-.536-1.092c-1.035-2.09-2.722-2.09-3.738 0l-.537 1.092c-.268.537-.939 1.035-1.533 1.15l-.728.115c-2.185.364-2.703 1.974-1.131 3.565l.67.671c.441.46.69 1.342.556 1.955l-.095.403c-.595 2.645.805 3.66 3.105 2.28l.498-.287c.594-.345 1.553-.345 2.147 0l.498.287c2.32 1.4 3.718.364 3.105-2.28l-.096-.403" stroke="#B266FF" stroke-width="2" stroke-linecap="round" stroke-linejoin="round"/></svg>