<svg width="46" height="46" viewBox="0 0 46 46" fill="none" xmlns="http://www.w3.org/2000/svg">
<path d="M42.1666 24.9168V17.2502C42.1666 7.66683 38.3333 3.8335 28.75 3.8335H17.25C7.66665 3.8335 3.83331 7.66683 3.83331 17.2502V28.7502C3.83331 38.3335 7.66665 42.1668 17.25 42.1668H24.9166" stroke="#461F72" stroke-width="2" stroke-linecap="round" stroke-linejoin="round"/>
<path d="M14.0491 27.7726L18.6108 21.85C19.2625 21.0067 20.47 20.8534 21.3133 21.5051L24.8208 24.2651C25.6642 24.9167 26.8716 24.7634 27.5233 23.9392L31.9509 18.2275" stroke="#461F72" stroke-width="2" stroke-linecap="round" stroke-linejoin="round"/>
<path d="M39.3875 32.5452C38.8125 32.4494 38.1225 31.9319 37.8542 31.3952L37.3175 30.3027C36.2825 28.2135 34.5958 28.2135 33.58 30.3027L33.0433 31.3952C32.775 31.9319 32.1042 32.4302 31.51 32.5452L30.7817 32.6602C28.5967 33.0244 28.0792 34.6344 29.6508 36.2252L30.3217 36.8961C30.7625 37.3561 31.0116 38.2377 30.8775 38.8511L30.7817 39.2535C30.1875 41.8985 31.5866 42.9144 33.8866 41.5344L34.385 41.2469C34.9792 40.9019 35.9375 40.9019 36.5317 41.2469L37.03 41.5344C39.3492 42.9336 40.7483 41.8985 40.135 39.2535L40.0392 38.8511" stroke="#B266FF" stroke-width="2" stroke-linecap="round" stroke-linejoin="round"/>
</svg>
