<svg width="36" height="36" viewBox="0 0 36 36" fill="none" xmlns="http://www.w3.org/2000/svg">
<path d="M2.95508 19.0502L11.9551 19.0202C13.0801 19.0202 14.3401 19.8752 14.7601 20.9252L16.4701 25.2452C16.8601 26.2202 17.4751 26.2202 17.8651 25.2452L21.3001 16.5302C21.6301 15.6902 22.2451 15.6602 22.6651 16.4552L24.2251 19.4102C24.6901 20.2952 25.8901 21.0152 26.8801 21.0152H32.9701" stroke="#B266FF" stroke-width="2" stroke-linecap="round" stroke-linejoin="round"/>
<path d="M13.4551 3C5.95508 3 2.95508 6 2.95508 13.5V22.5C2.95508 30 5.95508 33 13.4551 33H22.4551C29.9551 33 32.9551 30 32.9551 22.5V13.5C32.9551 6 29.9551 3 22.4551 3H19.4551" stroke="#461F72" stroke-width="2" stroke-linecap="round" stroke-linejoin="round"/>
</svg>
