<svg width="46" height="46" fill="none" xmlns="http://www.w3.org/2000/svg"><path d="M23.633 33.446c-.345.115-.94.115-1.285 0-2.99-1.016-9.698-5.29-9.698-12.535 0-3.201 2.568-5.788 5.75-5.788 1.878 0 3.546.9 4.6 2.319a5.734 5.734 0 014.6-2.32c3.182 0 5.75 2.588 5.75 5.789 0 7.245-6.708 11.52-9.718 12.535z" stroke="#B266FF" stroke-width="2" stroke-linecap="round" stroke-linejoin="round"/><path d="M7.667 11.5A19.15 19.15 0 003.833 23c0 10.58 8.587 19.167 19.167 19.167 10.58 0 19.167-8.587 19.167-19.167C42.167 12.42 33.58 3.834 23 3.834c-2.74 0-5.367.575-7.724 1.629" stroke="#461F72" stroke-width="2" stroke-linecap="round" stroke-linejoin="round"/></svg>