<svg width="46" height="46" viewBox="0 0 46 46" fill="none" xmlns="http://www.w3.org/2000/svg">
<path d="M23.6325 33.4459C23.2875 33.5609 22.6933 33.5609 22.3483 33.4459C19.3583 32.4301 12.65 28.1559 12.65 20.9109C12.65 17.71 15.2183 15.1226 18.4 15.1226C20.2783 15.1226 21.9458 16.0234 23 17.4417C24.035 16.0425 25.7217 15.1226 27.6 15.1226C30.7817 15.1226 33.35 17.71 33.35 20.9109C33.35 28.1559 26.6417 32.4301 23.6325 33.4459Z" stroke="#B266FF" stroke-width="2" stroke-linecap="round" stroke-linejoin="round"/>
<path d="M7.66666 11.5002C5.27083 14.701 3.83333 18.6877 3.83333 23.0002C3.83333 33.5802 12.42 42.1668 23 42.1668C33.58 42.1668 42.1667 33.5802 42.1667 23.0002C42.1667 12.4202 33.58 3.8335 23 3.8335C20.2592 3.8335 17.6333 4.40851 15.2758 5.46267" stroke="#461F72" stroke-width="2" stroke-linecap="round" stroke-linejoin="round"/>
</svg>
