<svg width="46" height="46" viewBox="0 0 46 46" fill="none" xmlns="http://www.w3.org/2000/svg">
<path d="M36.4165 28.75C39.5921 28.75 42.1665 26.1756 42.1665 23C42.1665 19.8244 39.5921 17.25 36.4165 17.25C33.2409 17.25 30.6665 19.8244 30.6665 23C30.6665 26.1756 33.2409 28.75 36.4165 28.75Z" stroke="#461F72" stroke-width="2" stroke-linecap="round" stroke-linejoin="round"/>
<path d="M21.4093 22.9999H17.2502C13.0335 22.9999 9.5835 21.0833 9.5835 15.3333V30.6666" stroke="#B266FF" stroke-width="2" stroke-linecap="round" stroke-linejoin="round"/>
<path d="M9.5835 15.3333C12.7591 15.3333 15.3335 12.7589 15.3335 9.58325C15.3335 6.40761 12.7591 3.83325 9.5835 3.83325C6.40786 3.83325 3.8335 6.40761 3.8335 9.58325C3.8335 12.7589 6.40786 15.3333 9.5835 15.3333Z" stroke="#461F72" stroke-width="2" stroke-linecap="round" stroke-linejoin="round"/>
<path d="M9.5835 42.1667C12.7591 42.1667 15.3335 39.5924 15.3335 36.4167C15.3335 33.2411 12.7591 30.6667 9.5835 30.6667C6.40786 30.6667 3.8335 33.2411 3.8335 36.4167C3.8335 39.5924 6.40786 42.1667 9.5835 42.1667Z" stroke="#461F72" stroke-width="2" stroke-linecap="round" stroke-linejoin="round"/>
</svg>
