<svg width="52" height="52" viewBox="0 0 52 52" fill="none" xmlns="http://www.w3.org/2000/svg">
<g clip-path="url(#clip0_918_1831)">
<rect x="10.3999" y="9.1001" width="31.2" height="33.8" fill="white"/>
<path d="M25.9998 30.109C28.269 30.109 30.1085 28.2695 30.1085 26.0003C30.1085 23.7311 28.269 21.8916 25.9998 21.8916C23.7306 21.8916 21.8911 23.7311 21.8911 26.0003C21.8911 28.2695 23.7306 30.109 25.9998 30.109Z" fill="#472566"/>
<path d="M31.2548 15.6167H20.7454C19.3844 15.6167 18.0791 16.1573 17.1168 17.1197C16.1544 18.0821 15.6138 19.3873 15.6138 20.7483V31.2543C15.6138 32.6153 16.1544 33.9206 17.1168 34.8829C18.0791 35.8453 19.3844 36.3859 20.7454 36.3859H31.2548C32.6158 36.3859 33.9211 35.8453 34.8834 34.8829C35.8458 33.9206 36.3864 32.6153 36.3864 31.2543V20.7449C36.3855 19.3845 35.8445 18.0801 34.8822 17.1185C33.9199 16.1569 32.6152 15.6167 31.2548 15.6167ZM26.0001 32.7254C24.6697 32.7261 23.369 32.3322 22.2625 31.5936C21.156 30.8549 20.2934 29.8047 19.7838 28.5758C19.2742 27.3469 19.1406 25.9945 19.3997 24.6896C19.6588 23.3847 20.2991 22.1859 21.2396 21.245C22.1801 20.304 23.3785 19.6631 24.6833 19.4033C25.9881 19.1435 27.3406 19.2765 28.5697 19.7855C29.7989 20.2944 30.8495 21.1565 31.5887 22.2626C32.3279 23.3687 32.7225 24.6692 32.7225 25.9996C32.7207 27.7822 32.0119 29.4914 30.7517 30.7522C29.4915 32.0131 27.7827 32.7227 26.0001 32.7254ZM32.7635 20.9364C32.4344 20.9371 32.1125 20.8401 31.8385 20.6577C31.5646 20.4752 31.351 20.2156 31.2247 19.9117C31.0984 19.6077 31.0652 19.2731 31.1293 18.9503C31.1933 18.6274 31.3517 18.3309 31.5844 18.0982C31.8172 17.8654 32.1137 17.707 32.4366 17.643C32.7594 17.5789 33.094 17.6121 33.3979 17.7384C33.7019 17.8647 33.9615 18.0783 34.144 18.3522C34.3264 18.6262 34.4234 18.9481 34.4227 19.2772C34.4218 19.717 34.2467 20.1385 33.9358 20.4495C33.6248 20.7604 33.2033 20.9355 32.7635 20.9364Z" fill="#472566"/>
<path d="M26 0C20.8577 0 15.8309 1.52487 11.5552 4.38179C7.27951 7.23871 3.94703 11.2994 1.97915 16.0502C0.0112653 20.8011 -0.503622 26.0288 0.499595 31.0724C1.50281 36.1159 3.97907 40.7486 7.61524 44.3848C11.2514 48.0209 15.8842 50.4972 20.9277 51.5004C25.9712 52.5036 31.1989 51.9888 35.9498 50.0209C40.7007 48.053 44.7613 44.7205 47.6183 40.4448C50.4752 36.1692 52 31.1423 52 26C52 19.1044 49.2608 12.4912 44.3848 7.61522C39.5089 2.73928 32.8957 0 26 0V0ZM39 31.2547C38.9982 33.3084 38.1816 35.2773 36.7295 36.7295C35.2774 38.1816 33.3084 38.9982 31.2548 39H20.7453C18.6919 38.9973 16.7235 38.1804 15.2716 36.7285C13.8196 35.2765 13.0027 33.3081 13 31.2547V20.7453C13.0027 18.6919 13.8196 16.7235 15.2716 15.2715C16.7235 13.8196 18.6919 13.0027 20.7453 13H31.2548C33.3081 13.0027 35.2766 13.8196 36.7285 15.2715C38.1804 16.7235 38.9973 18.6919 39 20.7453V31.2547Z" fill="#472566"/>
</g>
<defs>
<clipPath id="clip0_918_1831">
<rect width="52" height="52" fill="white"/>
</clipPath>
</defs>
</svg>
