<svg width="52" height="52" fill="none" xmlns="http://www.w3.org/2000/svg"><g clip-path="url(#clip0_918_1831)"><path fill="#fff" d="M10.4 9.1h31.2v33.8H10.4z"/><path d="M26 30.109a4.109 4.109 0 100-8.217 4.109 4.109 0 000 8.217z" fill="#472566"/><path d="M31.255 15.617h-10.51a5.131 5.131 0 00-5.131 5.131v10.506a5.131 5.131 0 005.131 5.132h10.51a5.131 5.131 0 005.131-5.132v-10.51a5.131 5.131 0 00-5.131-5.127zM26 32.725A6.726 6.726 0 1132.722 26 6.733 6.733 0 0126 32.725zm6.764-11.789a1.663 1.663 0 11-.007-3.325 1.663 1.663 0 01.007 3.325z" fill="#472566"/><path d="M26 0a26 26 0 100 52 26 26 0 000-52zm13 31.255A7.752 7.752 0 0131.255 39h-10.51A7.755 7.755 0 0113 31.255v-10.51A7.755 7.755 0 0120.745 13h10.51A7.756 7.756 0 0139 20.745v10.51z" fill="#472566"/></g><defs><clipPath id="clip0_918_1831"><path fill="#fff" d="M0 0h52v52H0z"/></clipPath></defs></svg>