<svg width="46" height="46" fill="none" xmlns="http://www.w3.org/2000/svg"><path d="M18.956 28.405l2.779 2.146c.364.365 1.17.537 1.706.537h3.392c1.074 0 2.243-.805 2.511-1.878l2.147-6.555c.44-1.246-.364-2.338-1.706-2.338h-3.584c-.537 0-.978-.441-.901-1.074l.44-2.875c.173-.805-.363-1.706-1.168-1.974-.71-.268-1.61.096-1.974.633l-3.68 5.462" stroke="#B266FF" stroke-width="2" stroke-miterlimit="10"/><path d="M14.375 28.404v-8.778c0-1.265.537-1.706 1.802-1.706h.9c1.246 0 1.802.441 1.802 1.706v8.778c0 1.246-.537 1.706-1.802 1.706h-.9c-1.265 0-1.802-.44-1.802-1.706z" stroke="#B266FF" stroke-width="2" stroke-linecap="round" stroke-linejoin="round"/><path d="M28.098 38.352l-2.913 2.914a3.077 3.077 0 01-4.332 0l-2.913-2.914c-.498-.498-1.476-.9-2.166-.9h-4.12a3.076 3.076 0 01-3.067-3.067v-4.121c0-.69-.403-1.668-.901-2.166l-2.914-2.913a3.077 3.077 0 010-4.332l2.914-2.913c.498-.499.9-1.476.9-2.166v-4.121a3.076 3.076 0 013.067-3.067m6.249-.939l2.913-2.913a3.077 3.077 0 014.332 0l2.913 2.913c.498.499 1.476.901 2.166.901h4.12a3.076 3.076 0 013.067 3.067v4.12c0 .69.403 1.668.901 2.166l2.913 2.914a3.077 3.077 0 010 4.332l-2.913 2.913c-.498.498-.9 1.476-.9 2.166v4.12a3.076 3.076 0 01-3.067 3.067" stroke="#461F72" stroke-width="2" stroke-linecap="round" stroke-linejoin="round"/></svg>