<svg width="46" height="46" viewBox="0 0 46 46" fill="none" xmlns="http://www.w3.org/2000/svg">
<path d="M11.5 19.1667V15.3334C11.5 8.98921 13.4167 3.83337 23 3.83337C32.5833 3.83337 34.5 8.98921 34.5 15.3334V19.1667" stroke="#461F72" stroke-width="2" stroke-linecap="round" stroke-linejoin="round"/>
<path d="M18.2084 30.6667C18.2084 33.3117 20.355 35.4583 23 35.4583C25.645 35.4583 27.7917 33.3117 27.7917 30.6667C27.7917 28.0217 25.645 25.875 23 25.875" stroke="#B266FF" stroke-width="2" stroke-linecap="round" stroke-linejoin="round"/>
<path d="M42.1667 32.5833V28.75C42.1667 21.0833 40.25 19.1666 32.5834 19.1666H13.4167C5.75004 19.1666 3.83337 21.0833 3.83337 28.75V32.5833C3.83337 40.25 5.75004 42.1666 13.4167 42.1666H32.5834C35.9567 42.1666 38.2184 41.8025 39.6942 40.7291" stroke="#461F72" stroke-width="2" stroke-linecap="round" stroke-linejoin="round"/>
</svg>
