<svg width="46" height="46" fill="none" xmlns="http://www.w3.org/2000/svg"><path d="M11.5 19.167v-3.834c0-6.344 1.917-11.5 11.5-11.5s11.5 5.156 11.5 11.5v3.834" stroke="#461F72" stroke-width="2" stroke-linecap="round" stroke-linejoin="round"/><path d="M18.208 30.667A4.793 4.793 0 0023 35.458a4.793 4.793 0 004.792-4.791A4.793 4.793 0 0023 25.875" stroke="#B266FF" stroke-width="2" stroke-linecap="round" stroke-linejoin="round"/><path d="M42.167 32.583V28.75c0-7.667-1.917-9.583-9.584-9.583H13.417c-7.667 0-9.584 1.916-9.584 9.583v3.833c0 7.667 1.917 9.584 9.584 9.584h19.166c3.374 0 5.635-.364 7.111-1.438" stroke="#461F72" stroke-width="2" stroke-linecap="round" stroke-linejoin="round"/></svg>