<svg width="46" height="46" fill="none" xmlns="http://www.w3.org/2000/svg"><path d="M42.167 17.25v11.5c0 4.792-.959 8.146-3.105 10.312L26.834 26.833l14.815-14.815c.345 1.514.518 3.239.518 5.232z" stroke="#461F72" stroke-width="2" stroke-linecap="round" stroke-linejoin="round"/><path d="M3.833 17.25c0-9.583 3.834-13.417 13.417-13.417h11.5c7.59 0 11.577 2.415 12.9 8.184L12.017 41.65c-5.77-1.322-8.184-5.31-8.184-12.9v-3.947" stroke="#461F72" stroke-width="2" stroke-linecap="round" stroke-linejoin="round"/><path d="M39.062 39.062c-2.166 2.146-5.52 3.105-10.312 3.105h-11.5c-1.993 0-3.718-.173-5.232-.518l14.815-14.816 12.229 12.229z" stroke="#461F72" stroke-width="2" stroke-linecap="round" stroke-linejoin="round"/><path d="M11.96 15.295c1.303-5.616 9.736-5.616 11.04 0 .747 3.297-1.323 6.095-3.144 7.82-1.322 1.265-3.411 1.265-4.753 0-1.82-1.725-3.91-4.523-3.143-7.82z" stroke="#B266FF" stroke-width="2"/><path d="M17.432 16.675h.017" stroke="#B266FF" stroke-width="2" stroke-linecap="round" stroke-linejoin="round"/></svg>