<svg width="28" height="28" fill="none" xmlns="http://www.w3.org/2000/svg"><path d="M18.958 4.013a8.15 8.15 0 013.209 6.487 8.13 8.13 0 01-1.365 4.538 8.15 8.15 0 01-5.577 3.524 7.04 7.04 0 01-1.225.105 7.04 7.04 0 01-1.225-.105 8.15 8.15 0 01-5.577-3.524A8.13 8.13 0 015.833 10.5 8.16 8.16 0 0114 2.333" stroke="#461F72" stroke-width="2" stroke-linecap="round" stroke-linejoin="round"/><path d="M24.792 21.549l-1.925.454c-.432.105-.77.432-.864.864l-.408 1.715c-.222.933-1.412 1.213-2.03.478L14 18.667l-5.565 6.405c-.618.735-1.808.455-2.03-.479l-.408-1.715a1.162 1.162 0 00-.864-.863l-1.925-.455c-.886-.21-1.201-1.318-.56-1.96l4.55-4.55a8.15 8.15 0 005.577 3.523c.397.07.805.105 1.225.105.42 0 .828-.035 1.225-.105a8.15 8.15 0 005.577-3.523l4.55 4.55c.641.63.326 1.738-.56 1.948z" stroke="#461F72" stroke-width="2" stroke-linecap="round" stroke-linejoin="round"/><path d="M14.677 6.977l.688 1.376a.845.845 0 00.56.409l1.248.21c.794.128.98.711.409 1.283l-.969.968a.827.827 0 00-.198.712l.28 1.202c.222.945-.28 1.318-1.12.816l-1.167-.688a.818.818 0 00-.77 0l-1.166.688c-.84.49-1.342.129-1.12-.816l.28-1.202c.046-.222-.035-.548-.199-.712l-.968-.968c-.572-.572-.385-1.143.408-1.283l1.249-.21a.85.85 0 00.548-.409l.688-1.376c.339-.747.945-.747 1.319 0z" stroke="#B266FF" stroke-width="2" stroke-linecap="round" stroke-linejoin="round"/></svg>