<svg width="28" height="28" viewBox="0 0 28 28" fill="none" xmlns="http://www.w3.org/2000/svg">
<path d="M18.9583 4.01338C20.9067 5.50671 22.1667 7.85171 22.1667 10.5C22.1667 12.1917 21.665 13.7434 20.8017 15.0384C19.5417 16.9051 17.5467 18.2234 15.225 18.5617C14.8283 18.6317 14.42 18.6667 14 18.6667C13.58 18.6667 13.1717 18.6317 12.775 18.5617C10.4533 18.2234 8.45833 16.9051 7.19833 15.0384C6.335 13.7434 5.83333 12.1917 5.83333 10.5C5.83333 5.98504 9.485 2.33337 14 2.33337" stroke="#461F72" stroke-width="2" stroke-linecap="round" stroke-linejoin="round"/>
<path d="M24.7917 21.5485L22.8667 22.0035C22.435 22.1085 22.0967 22.4352 22.0033 22.8669L21.595 24.5819C21.3733 25.5152 20.1833 25.7952 19.565 25.0602L14 18.6668L8.435 25.0718C7.81666 25.8068 6.62666 25.5268 6.405 24.5935L5.99666 22.8785C5.89166 22.4468 5.55333 22.1085 5.13333 22.0152L3.20833 21.5602C2.32166 21.3502 2.00666 20.2418 2.64833 19.6002L7.19833 15.0502C8.45833 16.9168 10.4533 18.2352 12.775 18.5735C13.1717 18.6435 13.58 18.6785 14 18.6785C14.42 18.6785 14.8283 18.6435 15.225 18.5735C17.5467 18.2352 19.5417 16.9168 20.8017 15.0502L25.3517 19.6002C25.9933 20.2302 25.6783 21.3385 24.7917 21.5485Z" stroke="#461F72" stroke-width="2" stroke-linecap="round" stroke-linejoin="round"/>
<path d="M14.6767 6.97663L15.365 8.35328C15.4583 8.53995 15.7033 8.72662 15.925 8.76162L17.1733 8.97162C17.9667 9.09995 18.1533 9.68329 17.5817 10.255L16.6133 11.2233C16.45 11.3866 16.3567 11.7016 16.415 11.935L16.695 13.1366C16.9167 14.0816 16.415 14.4549 15.575 13.9533L14.4083 13.2649C14.1983 13.1366 13.8483 13.1366 13.6383 13.2649L12.4717 13.9533C11.6317 14.4433 11.13 14.0816 11.3517 13.1366L11.6317 11.935C11.6783 11.7133 11.5967 11.3866 11.4333 11.2233L10.465 10.255C9.89333 9.68329 10.08 9.11162 10.8733 8.97162L12.1217 8.76162C12.3317 8.72662 12.5767 8.53995 12.67 8.35328L13.3583 6.97663C13.6967 6.22996 14.3033 6.22996 14.6767 6.97663Z" stroke="#B266FF" stroke-width="2" stroke-linecap="round" stroke-linejoin="round"/>
</svg>
