<svg width="46" height="46" fill="none" xmlns="http://www.w3.org/2000/svg"><path d="M42.128 13.014c0-6.114-3.066-9.18-9.18-9.18H20.68c-5.616 0-8.664 2.587-9.104 7.743.46-.058.939-.077 1.437-.077H25.28c6.114 0 9.18 3.067 9.18 9.181v7.667c0 .498-.018.977-.076 1.437 5.156-.44 7.743-3.469 7.743-9.104" stroke="#B266FF" stroke-width="2" stroke-miterlimit="10" stroke-linecap="round" stroke-linejoin="round"/><path d="M3.833 20.68c0-5.615 2.588-8.662 7.744-9.103.46-.058.939-.077 1.437-.077h12.267c6.114 0 9.18 3.067 9.18 9.18v7.668c0 .498-.018.977-.076 1.437-.44 5.175-3.488 7.743-9.104 7.743h-.767c-.479 0-.939.23-1.226.614l-2.3 3.066c-1.016 1.361-2.665 1.361-3.68 0l-2.3-3.066c-.25-.326-.805-.614-1.227-.614h-.767c-6.114 0-9.18-1.514-9.18-9.18" stroke="#461F72" stroke-width="2" stroke-miterlimit="10" stroke-linecap="round" stroke-linejoin="round"/><path d="M25.866 25.396h.018m-6.726 0h.017m-6.725 0h.017" stroke="#461F72" stroke-width="2" stroke-linecap="round" stroke-linejoin="round"/></svg>