<svg width="28" height="28" fill="none" xmlns="http://www.w3.org/2000/svg"><path d="M20.125 11.877v3.068c0 .198-.012.385-.035.572-.175 2.065-1.4 3.091-3.64 3.091h-.303a.63.63 0 00-.49.245l-.922 1.225c-.408.549-1.062.549-1.47 0l-.922-1.225a.737.737 0 00-.49-.245h-.303c-2.45 0-3.675-.606-3.675-3.675v-3.068c0-2.24 1.038-3.465 3.092-3.64.186-.023.373-.035.571-.035h4.9c2.462.023 3.687 1.248 3.687 3.687z" stroke="#B266FF" stroke-width="2" stroke-miterlimit="10" stroke-linecap="round" stroke-linejoin="round"/><path d="M4.667 7a11.656 11.656 0 00-2.334 7c0 6.44 5.227 11.667 11.667 11.667 6.44 0 11.667-5.227 11.667-11.667C25.667 7.56 20.44 2.333 14 2.333c-1.668 0-3.267.35-4.702.992" stroke="#461F72" stroke-width="2" stroke-linecap="round" stroke-linejoin="round"/></svg>