<svg width="46" height="46" fill="none" xmlns="http://www.w3.org/2000/svg"><path d="M42.167 22.118v3.623c0 2.875-.959 5.27-2.645 6.957-1.668 1.668-4.064 2.626-6.939 2.626v4.083c0 1.533-1.705 2.453-2.97 1.61l-8.53-5.693H17.02a6.9 6.9 0 00.23-1.782 7.636 7.636 0 00-1.974-5.118 7.56 7.56 0 00-5.693-2.549 7.657 7.657 0 00-5.5 2.32 11.194 11.194 0 01-.25-2.454v-11.5c0-5.75 3.834-9.584 9.584-9.584h19.166c5.75 0 9.584 3.834 9.584 9.584" stroke="#461F72" stroke-width="2" stroke-miterlimit="10" stroke-linecap="round" stroke-linejoin="round"/><path d="M17.25 33.542c0 2.3-1.016 4.35-2.607 5.75a7.666 7.666 0 01-5.06 1.916 7.665 7.665 0 01-7.666-7.666 7.61 7.61 0 012.875-5.98 7.672 7.672 0 014.791-1.687 7.665 7.665 0 017.667 7.667z" stroke="#B266FF" stroke-width="2" stroke-miterlimit="10" stroke-linecap="round" stroke-linejoin="round"/><path d="M10.063 31.146v2.875l-2.396 1.437" stroke="#B266FF" stroke-width="2" stroke-miterlimit="10" stroke-linecap="round" stroke-linejoin="round"/><path d="M16.292 20.125h13.416" stroke="#461F72" stroke-width="2" stroke-miterlimit="10" stroke-linecap="round" stroke-linejoin="round"/></svg>