<svg width="46" height="46" viewBox="0 0 46 46" fill="none" xmlns="http://www.w3.org/2000/svg">
<path d="M42.1283 13.0143C42.1283 6.90018 39.0616 3.8335 32.9475 3.8335H20.6808C15.065 3.8335 12.0175 6.42101 11.5767 11.5768C12.0367 11.5193 12.5158 11.5002 13.0142 11.5002H25.2808C31.395 11.5002 34.4617 14.5668 34.4617 20.681V28.3477C34.4617 28.846 34.4425 29.3252 34.385 29.7852C39.5408 29.3443 42.1283 26.316 42.1283 20.681" stroke="#B266FF" stroke-width="2" stroke-miterlimit="10" stroke-linecap="round" stroke-linejoin="round"/>
<path d="M3.83333 20.6808C3.83333 15.065 6.42084 12.0175 11.5767 11.5767C12.0367 11.5192 12.5158 11.5 13.0142 11.5H25.2808C31.395 11.5 34.4617 14.5667 34.4617 20.6808V28.3475C34.4617 28.8458 34.4425 29.325 34.385 29.785C33.9442 34.96 30.8967 37.5283 25.2808 37.5283H24.5142C24.035 37.5283 23.575 37.7583 23.2875 38.1417L20.9875 41.2083C19.9717 42.5692 18.3233 42.5692 17.3075 41.2083L15.0075 38.1417C14.7583 37.8158 14.2025 37.5283 13.7808 37.5283H13.0142C6.90001 37.5283 3.83333 36.0142 3.83333 28.3475" stroke="#461F72" stroke-width="2" stroke-miterlimit="10" stroke-linecap="round" stroke-linejoin="round"/>
<path d="M25.8664 25.3958H25.8836" stroke="#461F72" stroke-width="2" stroke-linecap="round" stroke-linejoin="round"/>
<path d="M19.158 25.3958H19.1753" stroke="#461F72" stroke-width="2" stroke-linecap="round" stroke-linejoin="round"/>
<path d="M12.4497 25.3958H12.467" stroke="#461F72" stroke-width="2" stroke-linecap="round" stroke-linejoin="round"/>
</svg>
