<svg width="46" height="46" viewBox="0 0 46 46" fill="none" xmlns="http://www.w3.org/2000/svg">
<path d="M38.3333 21.1409V32.5834C38.3333 40.25 36.4166 42.1667 28.75 42.1667H17.25C9.58329 42.1667 7.66663 40.25 7.66663 32.5834V13.4167C7.66663 5.75004 9.58329 3.83337 17.25 3.83337H28.75C36.4166 3.83337 38.3333 5.75004 38.3333 13.4167" stroke="#461F72" stroke-width="2" stroke-linecap="round" stroke-linejoin="round"/>
<path d="M26.8333 10.5416H19.1666" stroke="#B266FF" stroke-width="2" stroke-linecap="round" stroke-linejoin="round"/>
<path d="M23 36.6083C24.6408 36.6083 25.9708 35.2782 25.9708 33.6375C25.9708 31.9967 24.6408 30.6666 23 30.6666C21.3593 30.6666 20.0292 31.9967 20.0292 33.6375C20.0292 35.2782 21.3593 36.6083 23 36.6083Z" stroke="#B266FF" stroke-width="2" stroke-linecap="round" stroke-linejoin="round"/>
</svg>
