<svg width="48" height="48" fill="none" xmlns="http://www.w3.org/2000/svg"><path d="M3.4 15.84c0-6.16 3.52-8.8 8.8-8.8h17.58c4.48 0 7.7 1.9 8.56 6.24.16.78.24 1.62.24 2.56v10.3c0 6.16-3.52 8.8-8.8 8.8H12.2c-.9 0-1.76-.08-2.56-.26-.5-.08-.98-.22-1.42-.38-3-1.12-4.82-3.72-4.82-8.16V24" stroke="#461F72" stroke-width="2" stroke-miterlimit="10" stroke-linecap="round" stroke-linejoin="round"/><path d="M44.6 30.02v2.12c0 6.16-3.52 8.8-8.8 8.8H18.22c-1.48 0-2.82-.2-3.98-.64-2.38-.88-4-2.7-4.58-5.62.8.18 1.66.26 2.56.26H29.8c5.28 0 8.8-2.64 8.8-8.8v-10.3c0-.94-.08-1.78-.24-2.56 3.82.78 6.24 3.46 6.24 8.56" stroke="#461F72" stroke-width="2" stroke-miterlimit="10" stroke-linecap="round" stroke-linejoin="round"/><path d="M26.28 21c0-2.92-2.36-5.28-5.28-5.28-2.92 0-5.28 2.36-5.28 5.28 0 2.92 2.36 5.28 5.28 5.28" stroke="#B266FF" stroke-width="2" stroke-miterlimit="10" stroke-linecap="round" stroke-linejoin="round"/></svg>