<svg width="48" height="48" viewBox="0 0 48 48" fill="none" xmlns="http://www.w3.org/2000/svg">
<path d="M4 13.4802C4 6.74024 5.68 5.06024 12.42 5.06024H33.48C40.22 5.06024 41.9 6.74024 41.9 13.4802" stroke="#461F72" stroke-width="2" stroke-linecap="round" stroke-linejoin="round"/>
<path d="M20 33.8998H12.42C5.68 33.8998 4 32.2198 4 25.4798V21.6998" stroke="#461F72" stroke-width="2" stroke-linecap="round" stroke-linejoin="round"/>
<path d="M20 42.94V33.9" stroke="#461F72" stroke-width="2" stroke-linecap="round" stroke-linejoin="round"/>
<path d="M4 25.9H20" stroke="#461F72" stroke-width="2" stroke-linecap="round" stroke-linejoin="round"/>
<path d="M13.4801 42.9398H20.0001" stroke="#461F72" stroke-width="2" stroke-linecap="round" stroke-linejoin="round"/>
<path d="M43.9999 25.6002C43.9999 20.8602 42.8199 19.6802 38.0799 19.6802H30.9799C26.2399 19.6802 25.0599 20.8602 25.0599 25.6002V37.0202C25.0599 41.7602 26.2399 42.9402 30.9799 42.9402H38.0799C42.8199 42.9402 43.9999 41.7602 43.9999 37.0202V33.8802" stroke="#B266FF" stroke-width="2" stroke-linecap="round" stroke-linejoin="round"/>
<path d="M34.489 36.5H34.507" stroke="#B266FF" stroke-width="2" stroke-linecap="round" stroke-linejoin="round"/>
</svg>
