<svg width="48" height="48" fill="none" xmlns="http://www.w3.org/2000/svg"><path d="M4 13.48c0-6.74 1.68-8.42 8.42-8.42h21.06c6.74 0 8.42 1.68 8.42 8.42M20 33.9h-7.58C5.68 33.9 4 32.22 4 25.48V21.7m16 21.24V33.9m-16-8h16m-6.52 17.04H20" stroke="#461F72" stroke-width="2" stroke-linecap="round" stroke-linejoin="round"/><path d="M44 25.6c0-4.74-1.18-5.92-5.92-5.92h-7.1c-4.74 0-5.92 1.18-5.92 5.92v11.42c0 4.74 1.18 5.92 5.92 5.92h7.1c4.74 0 5.92-1.18 5.92-5.92v-3.14m-9.511 2.62h.018" stroke="#B266FF" stroke-width="2" stroke-linecap="round" stroke-linejoin="round"/></svg>