<svg width="46" height="46" fill="none" xmlns="http://www.w3.org/2000/svg"><path d="M34.5 13.723a1.17 1.17 0 00-.364 0 4.932 4.932 0 01-4.754-4.945 4.933 4.933 0 014.945-4.945 4.945 4.945 0 014.945 4.945c-.019 2.684-2.127 4.85-4.772 4.945zm-1.974 13.954c2.626.44 5.52-.02 7.551-1.38 2.703-1.802 2.703-4.754 0-6.555-2.05-1.361-4.983-1.821-7.609-1.361m-21.026-4.658c.115-.019.25-.019.365 0a4.932 4.932 0 004.753-4.945 4.932 4.932 0 00-4.945-4.945A4.945 4.945 0 006.67 8.778c.02 2.684 2.127 4.85 4.772 4.945zm1.974 13.954c-2.625.44-5.52-.02-7.551-1.38-2.703-1.802-2.703-4.754 0-6.555 2.05-1.361 4.983-1.821 7.609-1.361" stroke="#461F72" stroke-width="2" stroke-linecap="round" stroke-linejoin="round"/><path d="M23 28.04a1.234 1.234 0 00-.364 0 4.932 4.932 0 01-4.754-4.944 4.933 4.933 0 014.945-4.945 4.945 4.945 0 014.945 4.945c-.019 2.683-2.127 4.868-4.772 4.945zm5.577 6.038c-3.047-2.031-8.088-2.031-11.155 0-2.702 1.802-2.702 4.754 0 6.555 3.067 2.051 8.089 2.051 11.155 0" stroke="#B266FF" stroke-width="2" stroke-linecap="round" stroke-linejoin="round"/></svg>