<svg width="28" height="28" fill="none" xmlns="http://www.w3.org/2000/svg"><path d="M2.333 9.333C2.333 4.667 3.5 3.5 8.167 3.5h11.666c4.667 0 5.834 1.167 5.834 5.833v9.334c0 4.666-1.167 5.833-5.834 5.833H8.167c-4.667 0-5.834-1.167-5.834-5.833v-4.2m14-5.134h5.834M17.5 14h4.667m-2.334 4.667h2.334" stroke="#461F72" stroke-width="2" stroke-linecap="round" stroke-linejoin="round"/><path d="M9.917 13.172a2.112 2.112 0 100-4.224 2.112 2.112 0 000 4.224zM14 19.052a3.524 3.524 0 00-3.197-3.174 9.011 9.011 0 00-1.773 0 3.534 3.534 0 00-3.197 3.174" stroke="#B266FF" stroke-width="2" stroke-linecap="round" stroke-linejoin="round"/></svg>