<svg width="28" height="28" fill="none" xmlns="http://www.w3.org/2000/svg"><path d="M14.793 4.62c.56.828.887 1.82.887 2.893-.012 2.8-2.217 5.075-4.993 5.169a2.115 2.115 0 00-.385 0A5.157 5.157 0 015.32 7.513c0-2.858 2.31-5.18 5.18-5.18" stroke="#461F72" stroke-width="2" stroke-linecap="round" stroke-linejoin="round"/><path d="M19.145 4.667a4.08 4.08 0 014.083 4.083 4.089 4.089 0 01-3.931 4.083 1.315 1.315 0 00-.304 0" stroke="#B266FF" stroke-width="2" stroke-linecap="round" stroke-linejoin="round"/><path d="M4.853 16.987c-2.823 1.89-2.823 4.97 0 6.848 3.209 2.147 8.47 2.147 11.679 0 2.823-1.89 2.823-4.97 0-6.848-3.197-2.135-8.459-2.135-11.679 0z" stroke="#461F72" stroke-width="2" stroke-linecap="round" stroke-linejoin="round"/><path d="M21.397 23.333c.84-.175 1.633-.513 2.286-1.015 1.82-1.365 1.82-3.616 0-4.981-.641-.49-1.423-.817-2.251-1.004" stroke="#B266FF" stroke-width="2" stroke-linecap="round" stroke-linejoin="round"/></svg>