<svg width="46" height="46" fill="none" xmlns="http://www.w3.org/2000/svg"><path d="M16.617 26.833h-8.95a3.845 3.845 0 00-3.834 3.834v11.5h12.784V26.833z" stroke="#461F72" stroke-width="2" stroke-miterlimit="10" stroke-linecap="round" stroke-linejoin="round"/><path d="M29.383 23a3.845 3.845 0 00-3.834-3.833h-5.117A3.845 3.845 0 0016.598 23v19.167h12.785v-11.5m8.95 1.916h-8.95v9.584h12.784v-5.75a3.845 3.845 0 00-3.834-3.834z" stroke="#461F72" stroke-width="2" stroke-miterlimit="10" stroke-linecap="round" stroke-linejoin="round"/><path d="M23.997 3.968l1.015 2.031c.135.288.499.556.805.594l1.84.307c1.17.192 1.457 1.054.614 1.878l-1.438 1.438c-.249.249-.383.709-.306 1.035l.402 1.763c.326 1.4-.422 1.936-1.648 1.208l-1.725-1.016c-.307-.192-.824-.192-1.131 0L20.7 14.222c-1.227.728-1.974.191-1.648-1.208l.402-1.763c.077-.326-.057-.805-.306-1.035l-1.419-1.418c-.843-.844-.575-1.687.614-1.879l1.84-.306c.306-.058.67-.326.805-.595l1.015-2.031c.556-1.112 1.438-1.112 1.994-.02z" stroke="#B266FF" stroke-width="2" stroke-linecap="round" stroke-linejoin="round"/></svg>