<svg width="46" height="46" viewBox="0 0 46 46" fill="none" xmlns="http://www.w3.org/2000/svg">
<path d="M16.6174 26.8334H7.66659C5.55825 26.8334 3.83325 28.5584 3.83325 30.6667V42.1667H16.6174V26.8334Z" stroke="#461F72" stroke-width="2" stroke-miterlimit="10" stroke-linecap="round" stroke-linejoin="round"/>
<path d="M29.3826 23C29.3826 20.8916 27.6576 19.1666 25.5492 19.1666H20.4317C18.3234 19.1666 16.5984 20.8916 16.5984 23V42.1666H29.3826V30.6666" stroke="#461F72" stroke-width="2" stroke-miterlimit="10" stroke-linecap="round" stroke-linejoin="round"/>
<path d="M38.3334 32.5834H29.3826V42.1667H42.1667V36.4167C42.1667 34.3084 40.4417 32.5834 38.3334 32.5834Z" stroke="#461F72" stroke-width="2" stroke-miterlimit="10" stroke-linecap="round" stroke-linejoin="round"/>
<path d="M23.9966 3.96753L25.0124 5.99919C25.1466 6.28669 25.5108 6.55502 25.8175 6.59335L27.6575 6.90002C28.8266 7.09169 29.1141 7.95415 28.2708 8.77832L26.8333 10.2158C26.5841 10.465 26.45 10.925 26.5266 11.2508L26.9291 13.0142C27.2549 14.4134 26.5074 14.95 25.2808 14.2217L23.5558 13.2059C23.2491 13.0142 22.7316 13.0142 22.425 13.2059L20.7 14.2217C19.4733 14.95 18.7258 14.4134 19.0516 13.0142L19.4541 11.2508C19.5308 10.925 19.3966 10.4458 19.1475 10.2158L17.7291 8.79751C16.8858 7.95417 17.1541 7.11082 18.3425 6.91915L20.1824 6.61254C20.4891 6.55504 20.8533 6.28671 20.9875 6.01837L22.0033 3.98665C22.5591 2.87499 23.4408 2.87503 23.9966 3.96753Z" stroke="#B266FF" stroke-width="2" stroke-linecap="round" stroke-linejoin="round"/>
</svg>
