<svg width="24" height="24" fill="none" xmlns="http://www.w3.org/2000/svg"><path d="M10 17a1 1 0 100-2v2zm-5-1v-1a1 1 0 00-1 1h1zm-1 5a1 1 0 102 0H4zm6-6H5v2h5v-2zm-6 1v5h2v-5H4z" fill="#62029E"/><path d="M19.418 14.997a8 8 0 01-14.332 1.027" stroke="#62029E" stroke-width="2" stroke-linecap="round" stroke-linejoin="round"/><path d="M14 7a1 1 0 100 2V7zm5 1v1a1 1 0 001-1h-1zm1-5a1 1 0 10-2 0h2zm-6 6h5V7h-5v2zm6-1V3h-2v5h2z" fill="#62029E"/><path d="M4.583 9.003a8 8 0 0114.331-1.027" stroke="#62029E" stroke-width="2" stroke-linecap="round" stroke-linejoin="round"/></svg>