<svg width="46" height="46" fill="none" xmlns="http://www.w3.org/2000/svg"><path d="M23 32.583c-3.2 0-4.791 1.591-4.791 4.792v4.792h9.583v-4.792c0-3.2-1.59-4.792-4.791-4.792z" stroke="#A94DCA" stroke-width="2" stroke-linecap="round" stroke-linejoin="round"/><path d="M5.77 30.11c0 8.607 3.45 12.057 12.056 12.057h10.33c8.607 0 12.056-3.45 12.056-12.056v-8.606M23 23c3.508 0 6.096-2.856 5.75-6.363L27.487 3.833h-8.951L17.25 16.637C16.906 20.144 19.493 23 23 23z" stroke="#62029E" stroke-width="2" stroke-linecap="round" stroke-linejoin="round"/><path d="M35.095 23c3.872 0 6.708-3.143 6.325-6.996l-.537-5.27c-.69-4.984-2.606-6.9-7.628-6.9h-5.846l1.342 13.435c.326 3.163 3.181 5.73 6.344 5.73zM10.81 23c3.163 0 6.02-2.568 6.326-5.73l.422-4.237.92-9.2h-5.846c-5.022 0-6.939 1.917-7.629 6.9l-.517 5.271C4.103 19.857 6.939 23 10.81 23z" stroke="#62029E" stroke-width="2" stroke-linecap="round" stroke-linejoin="round"/></svg>