<svg width="46" height="46" viewBox="0 0 46 46" fill="none" xmlns="http://www.w3.org/2000/svg">
<path d="M23.0007 32.5833C19.7998 32.5833 18.209 34.1741 18.209 37.3749V42.1666H27.7923V37.3749C27.7923 34.1741 26.2015 32.5833 23.0007 32.5833Z" stroke="#A94DCA" stroke-width="2" stroke-linecap="round" stroke-linejoin="round"/>
<path d="M5.77002 30.1107C5.77002 38.7166 9.22002 42.1666 17.8259 42.1666H28.1567C36.7625 42.1666 40.2125 38.7166 40.2125 30.1107V21.5049" stroke="#62029E" stroke-width="2" stroke-linecap="round" stroke-linejoin="round"/>
<path d="M23.0006 22.9999C26.5081 22.9999 29.0956 20.1441 28.7506 16.6366L27.4856 3.83325H18.5348L17.2506 16.6366C16.9056 20.1441 19.4931 22.9999 23.0006 22.9999Z" stroke="#62029E" stroke-width="2" stroke-linecap="round" stroke-linejoin="round"/>
<path d="M35.095 22.9999C38.9667 22.9999 41.8033 19.8566 41.42 16.0041L40.8833 10.7333C40.1933 5.74992 38.2767 3.83325 33.255 3.83325H27.4092L28.7508 17.2691C29.0767 20.4316 31.9325 22.9999 35.095 22.9999Z" stroke="#62029E" stroke-width="2" stroke-linecap="round" stroke-linejoin="round"/>
<path d="M10.8109 22.9999C13.9734 22.9999 16.8292 20.4316 17.1359 17.2691L17.5575 13.0333L18.4775 3.83325H12.6317C7.61004 3.83325 5.69337 5.74992 5.00337 10.7333L4.48587 16.0041C4.10254 19.8566 6.93921 22.9999 10.8109 22.9999Z" stroke="#62029E" stroke-width="2" stroke-linecap="round" stroke-linejoin="round"/>
</svg>
