<svg width="46" height="46" fill="none" xmlns="http://www.w3.org/2000/svg"><path d="M16.08 14.605h-2.912c-3.565 0-4.37 1.782-4.811 3.987l-1.63 7.762h23l-1.629-7.762c-.46-2.185-1.245-3.987-4.81-3.987" stroke="#461F72" stroke-width="2" stroke-linecap="round" stroke-linejoin="round"/><path d="M32.373 36.78l.21 2.243c.154 1.687-1.188 3.144-2.913 3.144h-2.702c-1.553 0-1.764-.671-2.051-1.476l-.288-.863c-.402-1.169-.67-1.974-2.74-1.974h-7.36c-2.07 0-2.377.901-2.742 1.974l-.287.863c-.268.824-.48 1.476-2.05 1.476H6.746c-1.725 0-3.086-1.457-2.914-3.144l.805-8.759c.211-2.166.614-3.929 4.39-3.929H27.37c3.776 0 4.178 1.763 4.39 3.93M6.708 22.042H5.271m25.875 0h-1.438" stroke="#461F72" stroke-width="2" stroke-linecap="round" stroke-linejoin="round"/><path d="M9.583 32.104h4.313m8.625 0h4.313m9.026-15.352c.537-1.246.346-2.933-.65-4.409-.978-1.476-2.473-2.3-3.834-2.28m3.852-5.195c-1.092-.536-2.223-.9-3.335-1.035m9.929 14.817c.805-2.895.23-6.44-1.821-9.507" stroke="#B266FF" stroke-width="2" stroke-linecap="round" stroke-linejoin="round"/></svg>