<svg width="46" height="46" viewBox="0 0 46 46" fill="none" xmlns="http://www.w3.org/2000/svg">
<path d="M16.0809 14.605H13.1675C9.60254 14.605 8.79755 16.3875 8.35672 18.5917L6.72754 26.3542H29.7275L28.0984 18.5917C27.6384 16.4067 26.8525 14.605 23.2875 14.605" stroke="#461F72" stroke-width="2" stroke-linecap="round" stroke-linejoin="round"/>
<path d="M32.3725 36.7808L32.5834 39.0233C32.7367 40.71 31.395 42.1666 29.67 42.1666H26.9676C25.4151 42.1666 25.2042 41.4958 24.9167 40.6908L24.6292 39.8284C24.2267 38.6592 23.9584 37.8541 21.8884 37.8541H14.5284C12.4584 37.8541 12.1517 38.755 11.7875 39.8284L11.5 40.6908C11.2317 41.5149 11.0209 42.1666 9.44919 42.1666H6.74671C5.02171 42.1666 3.66087 40.71 3.83337 39.0233L4.63837 30.2641C4.8492 28.0983 5.25172 26.335 9.02755 26.335H27.37C31.1459 26.335 31.5484 28.0983 31.7592 30.2641" stroke="#461F72" stroke-width="2" stroke-linecap="round" stroke-linejoin="round"/>
<path d="M6.70825 22.0416H5.27075" stroke="#461F72" stroke-width="2" stroke-linecap="round" stroke-linejoin="round"/>
<path d="M31.1458 22.0416H29.7083" stroke="#461F72" stroke-width="2" stroke-linecap="round" stroke-linejoin="round"/>
<path d="M9.58325 32.1041H13.8958" stroke="#B266FF" stroke-width="2" stroke-linecap="round" stroke-linejoin="round"/>
<path d="M22.521 32.1041H26.8335" stroke="#B266FF" stroke-width="2" stroke-linecap="round" stroke-linejoin="round"/>
<path d="M35.8608 16.7516C36.3974 15.5058 36.2057 13.8191 35.2091 12.3433C34.2316 10.8675 32.7366 10.0433 31.3757 10.0625" stroke="#B266FF" stroke-width="2" stroke-linecap="round" stroke-linejoin="round"/>
<path d="M35.2283 4.86833C34.1358 4.33167 33.005 3.96754 31.8933 3.83337" stroke="#B266FF" stroke-width="2" stroke-linecap="round" stroke-linejoin="round"/>
<path d="M41.8216 18.6493C42.6266 15.7551 42.0516 12.2094 40.0007 9.1427" stroke="#B266FF" stroke-width="2" stroke-linecap="round" stroke-linejoin="round"/>
</svg>
