<svg width="46" height="46" fill="none" xmlns="http://www.w3.org/2000/svg"><path d="M40.863 22.828c2.243-2.243 1.515-4.505-1.61-5.041l-4.887-.805c-.824-.134-1.802-.863-2.166-1.61l-2.702-5.405c-1.457-2.933-3.853-2.933-5.31 0l-2.702 5.405c-.364.747-1.342 1.456-2.166 1.61l-4.888.805c-3.124.517-3.852 2.779-1.61 5.04l3.815 3.815c.632.632.996 1.878.785 2.779l-1.092 4.715c-.862 3.718 1.13 5.175 4.408 3.22l4.581-2.722c.824-.498 2.204-.498 3.029 0l4.58 2.722c3.278 1.936 5.271.498 4.409-3.22l-1.093-4.715" stroke="#461F72" stroke-width="2" stroke-linecap="round" stroke-linejoin="round"/><path d="M15.333 9.583h-11.5m5.75 26.834h-5.75M5.75 23H3.833" stroke="#B266FF" stroke-width="2" stroke-linecap="round" stroke-linejoin="round"/></svg>