<svg width="46" height="46" viewBox="0 0 46 46" fill="none" xmlns="http://www.w3.org/2000/svg">
<path d="M40.8634 22.8276C43.1059 20.5851 42.3776 18.3234 39.2534 17.7867L34.3659 16.9817C33.5417 16.8475 32.5642 16.1192 32.2 15.3717L29.4976 9.96671C28.0409 7.03421 25.645 7.03421 24.1884 9.96671L21.4859 15.3717C21.1217 16.1192 20.1442 16.8284 19.32 16.9817L14.4325 17.7867C11.3084 18.3042 10.5801 20.5659 12.8226 22.8276L16.6367 26.6417C17.2692 27.2742 17.6334 28.5201 17.4225 29.4209L16.33 34.1359C15.4675 37.8542 17.4609 39.3109 20.7384 37.3559L25.3192 34.6342C26.1434 34.1359 27.5234 34.1359 28.3476 34.6342L32.9284 37.3559C36.2059 39.2917 38.1992 37.8542 37.3367 34.1359L36.2442 29.4209" stroke="#461F72" stroke-width="2" stroke-linecap="round" stroke-linejoin="round"/>
<path d="M15.3333 9.58325H3.83325" stroke="#B266FF" stroke-width="2" stroke-linecap="round" stroke-linejoin="round"/>
<path d="M9.58325 36.4167H3.83325" stroke="#B266FF" stroke-width="2" stroke-linecap="round" stroke-linejoin="round"/>
<path d="M5.74992 23H3.83325" stroke="#B266FF" stroke-width="2" stroke-linecap="round" stroke-linejoin="round"/>
</svg>
