<svg width="52" height="52" fill="none" xmlns="http://www.w3.org/2000/svg"><path fill="#fff" d="M10.4 9.1h31.2v33.8H10.4z"/><path d="M26 52c14.363 0 26-11.637 26-26S40.363 0 26 0 0 11.637 0 26s11.637 26 26 26zM11.897 25.437l25.069-9.666c1.163-.42 2.18.284 1.802 2.043l.002-.002-4.268 20.109c-.316 1.426-1.163 1.772-2.349 1.1l-6.5-4.79-3.135 3.02c-.346.347-.639.64-1.31.64l.46-6.615 12.047-10.883c.525-.462-.117-.722-.808-.262L18.02 29.503l-6.418-2.002c-1.393-.442-1.423-1.393.295-2.064z" fill="#472566"/></svg>