<svg width="22" height="7" viewBox="0 0 22 7" fill="none" xmlns="http://www.w3.org/2000/svg">
<path d="M1.82096 6.33514V1.88807L0.854869 2.15643L0.655518 1.38969L2.10465 0.929648H2.75638V6.33514H1.82096Z" fill="#060606"/>
<path d="M6.65511 6.33514V5.13136H3.94853L3.77218 4.45663L6.75479 0.929648H7.55986V4.35696H8.32659V5.13136H7.55986V6.33514H6.65511ZM4.89162 4.35696H6.65511V2.2331L4.89162 4.35696Z" fill="#060606"/>
<path d="M9.28226 3.3372V2.28677H10.302V3.3372H9.28226ZM9.28226 6.33514V5.27704H10.302V6.33514H9.28226Z" fill="#060606"/>
<path d="M15.3187 5.62974C14.8843 6.16134 14.322 6.42715 13.6319 6.42715C12.9419 6.42715 12.3796 6.1639 11.9451 5.63741C11.5157 5.1058 11.3011 4.44897 11.3011 3.6669V3.65156C11.3011 2.86949 11.5183 2.21265 11.9528 1.68105C12.3924 1.14433 12.9572 0.875977 13.6473 0.875977C14.3373 0.875977 14.897 1.14178 15.3264 1.67338C15.7609 2.19987 15.9781 2.85416 15.9781 3.63623V3.65156C15.9781 4.43363 15.7583 5.09303 15.3187 5.62974ZM13.6473 5.57607C14.0511 5.57607 14.3782 5.39205 14.6287 5.02402C14.8792 4.65599 15.0044 4.20361 15.0044 3.6669V3.65156C15.0044 3.10973 14.8766 2.6548 14.621 2.28677C14.3654 1.91363 14.0357 1.72705 13.6319 1.72705C13.2281 1.72705 12.901 1.91107 12.6505 2.2791C12.4 2.64202 12.2748 3.0944 12.2748 3.63623V3.65156C12.2748 4.19339 12.4 4.65087 12.6505 5.02402C12.9061 5.39205 13.2383 5.57607 13.6473 5.57607Z" fill="#060606"/>
<path d="M20.8671 5.62974C20.4326 6.16134 19.8703 6.42715 19.1803 6.42715C18.4902 6.42715 17.9279 6.1639 17.4935 5.63741C17.0641 5.1058 16.8494 4.44897 16.8494 3.6669V3.65156C16.8494 2.86949 17.0666 2.21265 17.5011 1.68105C17.9407 1.14433 18.5056 0.875977 19.1956 0.875977C19.8857 0.875977 20.4454 1.14178 20.8748 1.67338C21.3093 2.19987 21.5265 2.85416 21.5265 3.63623V3.65156C21.5265 4.43363 21.3067 5.09303 20.8671 5.62974ZM19.1956 5.57607C19.5994 5.57607 19.9266 5.39205 20.177 5.02402C20.4275 4.65599 20.5527 4.20361 20.5527 3.6669V3.65156C20.5527 3.10973 20.425 2.6548 20.1694 2.28677C19.9138 1.91363 19.5841 1.72705 19.1803 1.72705C18.7765 1.72705 18.4493 1.91107 18.1989 2.2791C17.9484 2.64202 17.8232 3.0944 17.8232 3.63623V3.65156C17.8232 4.19339 17.9484 4.65087 18.1989 5.02402C18.4544 5.39205 18.7867 5.57607 19.1956 5.57607Z" fill="#060606"/>
</svg>
