<svg width="10" height="3" viewBox="0 0 10 3" fill="none" xmlns="http://www.w3.org/2000/svg">
<path d="M1.05199 2.67487V0.872281L0.660396 0.981058L0.57959 0.670266L1.16699 0.483791H1.43116V2.67487H1.05199Z" fill="#060606"/>
<path d="M3.01148 2.67487V2.18693H1.91439L1.84291 1.91343L3.05189 0.483791H3.37822V1.87303H3.68901V2.18693H3.37822V2.67487H3.01148ZM2.29666 1.87303H3.01148V1.01214L2.29666 1.87303Z" fill="#060606"/>
<path d="M4.07638 1.45968V1.03389H4.48973V1.45968H4.07638ZM4.07638 2.67487V2.24598H4.48973V2.67487H4.07638Z" fill="#060606"/>
<path d="M6.52323 2.38894C6.34712 2.60442 6.1192 2.71217 5.83949 2.71217C5.55978 2.71217 5.33187 2.60546 5.15575 2.39205C4.98171 2.17657 4.89469 1.91032 4.89469 1.59332V1.5871C4.89469 1.27009 4.98274 1.00385 5.15886 0.788367C5.33705 0.570813 5.566 0.462036 5.84571 0.462036C6.12542 0.462036 6.3523 0.569777 6.52634 0.785259C6.70246 0.998669 6.79051 1.26388 6.79051 1.58088V1.5871C6.79051 1.90411 6.70142 2.17139 6.52323 2.38894ZM5.84571 2.36719C6.00939 2.36719 6.14199 2.2926 6.24352 2.14342C6.34505 1.99424 6.39581 1.81087 6.39581 1.59332V1.5871C6.39581 1.36747 6.34401 1.18307 6.24041 1.03389C6.13682 0.88264 6.00318 0.807015 5.83949 0.807015C5.67581 0.807015 5.5432 0.881604 5.44168 1.03078C5.34015 1.17789 5.28939 1.36126 5.28939 1.58088V1.5871C5.28939 1.80673 5.34015 1.99217 5.44168 2.14342C5.54528 2.2926 5.67995 2.36719 5.84571 2.36719Z" fill="#060606"/>
<path d="M8.77222 2.38894C8.59611 2.60442 8.36819 2.71217 8.08848 2.71217C7.80877 2.71217 7.58085 2.60546 7.40474 2.39205C7.2307 2.17657 7.14367 1.91032 7.14367 1.59332V1.5871C7.14367 1.27009 7.23173 1.00385 7.40785 0.788367C7.58603 0.570813 7.81498 0.462036 8.0947 0.462036C8.37441 0.462036 8.60129 0.569777 8.77533 0.785259C8.95144 0.998669 9.0395 1.26388 9.0395 1.58088V1.5871C9.0395 1.90411 8.95041 2.17139 8.77222 2.38894ZM8.0947 2.36719C8.25838 2.36719 8.39098 2.2926 8.49251 2.14342C8.59403 1.99424 8.6448 1.81087 8.6448 1.59332V1.5871C8.6448 1.36747 8.593 1.18307 8.4894 1.03389C8.3858 0.88264 8.25216 0.807015 8.08848 0.807015C7.9248 0.807015 7.79219 0.881604 7.69067 1.03078C7.58914 1.17789 7.53838 1.36126 7.53838 1.58088V1.5871C7.53838 1.80673 7.58914 1.99217 7.69067 2.14342C7.79426 2.2926 7.92894 2.36719 8.0947 2.36719Z" fill="#060606"/>
</svg>
