<svg width="46" height="46" viewBox="0 0 46 46" fill="none" xmlns="http://www.w3.org/2000/svg">
<path d="M23.0002 26.8333H24.9168C27.0252 26.8333 28.7502 25.1083 28.7502 22.9999V3.83325H11.5002C8.62518 3.83325 6.11437 5.42406 4.81104 7.76239" stroke="#62029E" stroke-width="2" stroke-linecap="round" stroke-linejoin="round"/>
<path d="M3.8335 32.5833C3.8335 35.7649 6.40183 38.3333 9.5835 38.3333H11.5002C11.5002 36.2249 13.2252 34.4999 15.3335 34.4999C17.4418 34.4999 19.1668 36.2249 19.1668 38.3333H26.8335C26.8335 36.2249 28.5585 34.4999 30.6668 34.4999C32.7752 34.4999 34.5002 36.2249 34.5002 38.3333H36.4168C39.5985 38.3333 42.1668 35.7649 42.1668 32.5833V26.8333H36.4168C35.3627 26.8333 34.5002 25.9708 34.5002 24.9166V19.1666C34.5002 18.1124 35.3627 17.2499 36.4168 17.2499H38.8893L35.6119 11.5191C34.9219 10.3308 33.6569 9.58325 32.2769 9.58325H28.7502V22.9999C28.7502 25.1083 27.0252 26.8333 24.9168 26.8333H23.0002" stroke="#62029E" stroke-width="2" stroke-linecap="round" stroke-linejoin="round"/>
<path d="M15.3333 42.1667C17.4504 42.1667 19.1667 40.4504 19.1667 38.3333C19.1667 36.2162 17.4504 34.5 15.3333 34.5C13.2162 34.5 11.5 36.2162 11.5 38.3333C11.5 40.4504 13.2162 42.1667 15.3333 42.1667Z" stroke="#62029E" stroke-width="2" stroke-linecap="round" stroke-linejoin="round"/>
<path d="M30.6668 42.1667C32.7839 42.1667 34.5002 40.4504 34.5002 38.3333C34.5002 36.2162 32.7839 34.5 30.6668 34.5C28.5497 34.5 26.8335 36.2162 26.8335 38.3333C26.8335 40.4504 28.5497 42.1667 30.6668 42.1667Z" stroke="#62029E" stroke-width="2" stroke-linecap="round" stroke-linejoin="round"/>
<path d="M42.1667 23V26.8333H36.4167C35.3625 26.8333 34.5 25.9708 34.5 24.9167V19.1667C34.5 18.1125 35.3625 17.25 36.4167 17.25H38.8891L42.1667 23Z" stroke="#62029E" stroke-width="2" stroke-linecap="round" stroke-linejoin="round"/>
<path d="M3.8335 15.3333H15.3335" stroke="#A94DCA" stroke-width="2" stroke-linecap="round" stroke-linejoin="round"/>
<path d="M3.8335 21.0833H11.5002" stroke="#A94DCA" stroke-width="2" stroke-linecap="round" stroke-linejoin="round"/>
<path d="M3.8335 26.8333H7.66683" stroke="#A94DCA" stroke-width="2" stroke-linecap="round" stroke-linejoin="round"/>
</svg>
