<svg width="28" height="28" fill="none" xmlns="http://www.w3.org/2000/svg"><path d="M23.672 10.5h-1.505A1.17 1.17 0 0021 11.667v3.5a1.17 1.17 0 001.167 1.166h3.5v3.5c0 1.937-1.563 3.5-3.5 3.5H21A2.34 2.34 0 0018.667 21a2.34 2.34 0 00-2.333 2.333h-4.667A2.34 2.34 0 009.334 21 2.34 2.34 0 007 23.333H5.834a3.498 3.498 0 01-2.94-1.598" stroke="#461F72" stroke-width="2" stroke-linecap="round" stroke-linejoin="round"/><path d="M2.333 16.334h12.834A2.34 2.34 0 0017.5 14V5.834h2.147c.42 0 .828.116 1.178.315" stroke="#461F72" stroke-width="2" stroke-linecap="round" stroke-linejoin="round"/><path d="M17.5 2.333V14a2.34 2.34 0 01-2.333 2.334H2.333V8.89a4.549 4.549 0 003.605 1.61 4.484 4.484 0 003.034-1.236 3.95 3.95 0 00.898-1.109c.42-.712.653-1.552.63-2.427a4.647 4.647 0 00-1.587-3.394H17.5zM9.333 25.667a2.333 2.333 0 100-4.667 2.333 2.333 0 000 4.667zm9.334 0a2.333 2.333 0 100-4.667 2.333 2.333 0 000 4.667zm7-11.667v2.333h-3.5A1.17 1.17 0 0121 15.167v-3.5a1.17 1.17 0 011.167-1.167h1.505l1.995 3.5z" stroke="#461F72" stroke-width="2" stroke-linecap="round" stroke-linejoin="round"/><path d="M10.5 5.833c0 .875-.245 1.704-.677 2.403-.245.42-.56.794-.921 1.097A4.556 4.556 0 015.833 10.5a4.631 4.631 0 01-3.99-2.264 4.574 4.574 0 01-.676-2.403 4.63 4.63 0 011.75-3.64 4.665 4.665 0 017.583 3.64zM7.082 7.047L4.62 4.585m2.427.035L4.585 7.082" stroke="#B266FF" stroke-width="2" stroke-miterlimit="10" stroke-linecap="round" stroke-linejoin="round"/></svg>