<svg width="28" height="28" viewBox="0 0 28 28" fill="none" xmlns="http://www.w3.org/2000/svg">
<path d="M17.5 2.3335V14.0002C17.5 15.2835 16.45 16.3335 15.1667 16.3335H2.33334V8.89016C3.18501 9.90516 4.49171 10.5352 5.93838 10.5002C7.11671 10.4768 8.17835 10.0218 8.97168 9.2635C9.33335 8.96017 9.6367 8.57515 9.87004 8.15515C10.29 7.44348 10.5233 6.60346 10.5 5.72846C10.465 4.36346 9.85836 3.16183 8.91336 2.3335H17.5Z" stroke="#461F72" stroke-width="2" stroke-linecap="round" stroke-linejoin="round"/>
<path d="M23.6719 10.5H22.1669C21.5252 10.5 21.0002 11.025 21.0002 11.6667V15.1667C21.0002 15.8083 21.5252 16.3333 22.1669 16.3333H25.6669V19.8333C25.6669 21.77 24.1036 23.3333 22.1669 23.3333H21.0002C21.0002 22.05 19.9502 21 18.6669 21C17.3836 21 16.3336 22.05 16.3336 23.3333H11.6669C11.6669 22.05 10.6169 21 9.33358 21C8.05024 21 7.00024 22.05 7.00024 23.3333H5.83358C4.59691 23.3333 3.51189 22.6917 2.89355 21.735" stroke="#461F72" stroke-width="2" stroke-linecap="round" stroke-linejoin="round"/>
<path d="M2.33334 16.3335H15.1667C16.45 16.3335 17.5 15.2835 17.5 14.0002V5.8335H19.6467C20.0667 5.8335 20.475 5.95019 20.825 6.14852" stroke="#461F72" stroke-width="2" stroke-linecap="round" stroke-linejoin="round"/>
<path d="M9.33333 25.6667C10.622 25.6667 11.6667 24.622 11.6667 23.3333C11.6667 22.0447 10.622 21 9.33333 21C8.04467 21 7 22.0447 7 23.3333C7 24.622 8.04467 25.6667 9.33333 25.6667Z" stroke="#461F72" stroke-width="2" stroke-linecap="round" stroke-linejoin="round"/>
<path d="M18.6667 25.6667C19.9553 25.6667 21 24.622 21 23.3333C21 22.0447 19.9553 21 18.6667 21C17.378 21 16.3333 22.0447 16.3333 23.3333C16.3333 24.622 17.378 25.6667 18.6667 25.6667Z" stroke="#461F72" stroke-width="2" stroke-linecap="round" stroke-linejoin="round"/>
<path d="M25.6667 14V16.3333H22.1667C21.525 16.3333 21 15.8083 21 15.1667V11.6667C21 11.025 21.525 10.5 22.1667 10.5H23.6716L25.6667 14Z" stroke="#461F72" stroke-width="2" stroke-linecap="round" stroke-linejoin="round"/>
<path d="M10.5 5.83317C10.5 7.23317 9.88167 8.4815 8.91334 9.33317C8.08501 10.0565 7.01166 10.4998 5.83332 10.4998C3.25499 10.4998 1.16666 8.4115 1.16666 5.83317C1.16666 4.36317 1.84332 3.04484 2.91666 2.19318C3.72166 1.55151 4.73666 1.1665 5.83332 1.1665C8.41166 1.1665 10.5 3.25484 10.5 5.83317Z" stroke="#B266FF" stroke-width="2" stroke-miterlimit="10" stroke-linecap="round" stroke-linejoin="round"/>
<path d="M6.12499 4.375V6.125L4.66666 7" stroke="#B266FF" stroke-width="2" stroke-miterlimit="10" stroke-linecap="round" stroke-linejoin="round"/>
</svg>
