<svg width="42" height="42" fill="none" xmlns="http://www.w3.org/2000/svg"><path d="M35.507 15.75H33.25c-.963 0-1.75.788-1.75 1.75v5.25c0 .962.787 1.75 1.75 1.75h5.25v5.25A5.243 5.243 0 0133.25 35H31.5a3.51 3.51 0 00-3.5-3.5 3.51 3.51 0 00-3.5 3.5h-7a3.51 3.51 0 00-3.5-3.5 3.51 3.51 0 00-3.5 3.5H8.75a5.247 5.247 0 01-4.41-2.398" stroke="#461F72" stroke-width="2" stroke-linecap="round" stroke-linejoin="round"/><path d="M3.5 24.5h19.25a3.51 3.51 0 003.5-3.5V8.75h3.22c.63 0 1.242.175 1.768.473" stroke="#461F72" stroke-width="2" stroke-linecap="round" stroke-linejoin="round"/><path d="M26.25 3.5V21a3.51 3.51 0 01-3.5 3.5H3.5V13.335a6.823 6.823 0 005.408 2.415 6.726 6.726 0 004.55-1.855 5.926 5.926 0 001.347-1.662c.63-1.068.98-2.328.945-3.64A6.97 6.97 0 0013.37 3.5h12.88z" stroke="#B266FF" stroke-width="2" stroke-linecap="round" stroke-linejoin="round"/><path d="M14 38.5a3.5 3.5 0 100-7 3.5 3.5 0 000 7zm14 0a3.5 3.5 0 100-7 3.5 3.5 0 000 7zM38.5 21v3.5h-5.25c-.962 0-1.75-.788-1.75-1.75V17.5c0-.962.788-1.75 1.75-1.75h2.258L38.5 21z" stroke="#461F72" stroke-width="2" stroke-linecap="round" stroke-linejoin="round"/><path d="M15.75 8.75a6.862 6.862 0 01-1.015 3.605A6.27 6.27 0 0113.352 14a6.834 6.834 0 01-4.602 1.75 6.947 6.947 0 01-5.985-3.395A6.862 6.862 0 011.75 8.75a6.948 6.948 0 012.625-5.46A7.005 7.005 0 018.75 1.75c3.867 0 7 3.133 7 7z" stroke="#461F72" stroke-width="2" stroke-miterlimit="10" stroke-linecap="round" stroke-linejoin="round"/><path d="M10.622 10.57L6.93 6.877m3.64.053l-3.693 3.692" stroke="#B266FF" stroke-width="2" stroke-miterlimit="10" stroke-linecap="round" stroke-linejoin="round"/></svg>