<svg width="46" height="46" fill="none" xmlns="http://www.w3.org/2000/svg"><path d="M23 26.833h1.917A3.845 3.845 0 0028.75 23V3.833H11.5a7.659 7.659 0 00-6.689 3.93" stroke="#62029E" stroke-width="2" stroke-linecap="round" stroke-linejoin="round"/><path d="M3.833 32.583a5.742 5.742 0 005.75 5.75H11.5a3.845 3.845 0 013.834-3.833 3.845 3.845 0 013.833 3.833h7.666a3.845 3.845 0 013.834-3.833 3.845 3.845 0 013.833 3.833h1.917a5.742 5.742 0 005.75-5.75v-5.75h-5.75a1.922 1.922 0 01-1.917-1.916v-5.75c0-1.055.863-1.917 1.917-1.917h2.472l-3.277-5.73a3.865 3.865 0 00-3.335-1.937H28.75V23a3.845 3.845 0 01-3.833 3.833H23" stroke="#62029E" stroke-width="2" stroke-linecap="round" stroke-linejoin="round"/><path d="M15.333 42.167a3.833 3.833 0 100-7.667 3.833 3.833 0 000 7.667zm15.334 0a3.833 3.833 0 100-7.667 3.833 3.833 0 000 7.667zM42.167 23v3.833h-5.75a1.922 1.922 0 01-1.917-1.916v-5.75c0-1.055.862-1.917 1.917-1.917h2.472L42.167 23z" stroke="#62029E" stroke-width="2" stroke-linecap="round" stroke-linejoin="round"/><path d="M3.833 15.333h11.5m-11.5 5.75H11.5m-7.667 5.75h3.834" stroke="#A94DCA" stroke-width="2" stroke-linecap="round" stroke-linejoin="round"/></svg>