<svg width="52" height="52" fill="none" xmlns="http://www.w3.org/2000/svg"><g clip-path="url(#clip0_918_1820)"><path fill="#fff" d="M10.4 9.1h31.2v33.8H10.4z"/><path d="M26 0a26 26 0 100 52 26 26 0 000-52zm12.949 18.132a10.975 10.975 0 01-2.227 2.446.953.953 0 00-.343.742v.085a15.592 15.592 0 01-1.005 5.426 15.89 15.89 0 01-2.96 4.96A14.617 14.617 0 0126 36.032c-1.628.528-3.33.793-5.043.783-2.716 0-5.383-.72-7.731-2.084a.445.445 0 01-.212-.492.428.428 0 01.417-.322h.65a10.369 10.369 0 005.795-1.758 5.627 5.627 0 01-4.447-3.821.294.294 0 01.342-.38c.311.058.627.088.944.089h.12a5.617 5.617 0 01-3.274-5.17.293.293 0 01.289-.292.293.293 0 01.146.036c.4.224.832.391 1.279.496a5.618 5.618 0 01-.907-6.811.294.294 0 01.483-.038 14.71 14.71 0 0010.095 5.395h.028a.212.212 0 00.205-.23 5.947 5.947 0 01.13-2.052 5.443 5.443 0 013.66-3.913 6.017 6.017 0 011.776-.274 5.597 5.597 0 013.708 1.4.724.724 0 00.483.184.732.732 0 00.17-.024 10.361 10.361 0 002.738-1.13.291.291 0 01.427.343 5.553 5.553 0 01-1.474 2.35 10.048 10.048 0 001.793-.605.294.294 0 01.359.42z" fill="#472566"/></g><defs><clipPath id="clip0_918_1820"><path fill="#fff" d="M0 0h52v52H0z"/></clipPath></defs></svg>