<svg width="36" height="36" fill="none" xmlns="http://www.w3.org/2000/svg"><g clip-path="url(#clip0_1045_1731)"><path d="M11.325 32.625c13.582 0 21.012-11.255 21.012-21.012 0-.316-.007-.64-.02-.956A15.001 15.001 0 0036 6.833a14.56 14.56 0 01-4.24 1.16 7.426 7.426 0 003.25-4.083 14.847 14.847 0 01-4.69 1.79 7.395 7.395 0 00-12.59 6.735A20.977 20.977 0 012.51 4.724a7.394 7.394 0 002.285 9.856 7.395 7.395 0 01-3.347-.921v.091a7.383 7.383 0 005.926 7.243 7.342 7.342 0 01-3.332.126 7.4 7.4 0 006.896 5.133A14.813 14.813 0 010 29.308a20.954 20.954 0 0011.325 3.317z" fill="#8F95A7"/></g><defs><clipPath id="clip0_1045_1731"><path fill="#fff" d="M0 0h36v36H0z"/></clipPath></defs></svg>