<svg width="52" height="52" viewBox="0 0 52 52" fill="none" xmlns="http://www.w3.org/2000/svg">
<g clip-path="url(#clip0_918_1820)">
<rect x="10.3999" y="9.1001" width="31.2" height="33.8" fill="white"/>
<path d="M26 0C20.8577 0 15.8309 1.52487 11.5552 4.38179C7.27951 7.23871 3.94703 11.2994 1.97915 16.0502C0.0112653 20.8011 -0.503622 26.0288 0.499595 31.0724C1.50281 36.1159 3.97907 40.7486 7.61524 44.3848C11.2514 48.0209 15.8842 50.4972 20.9277 51.5004C25.9712 52.5036 31.1989 51.9888 35.9498 50.0209C40.7007 48.053 44.7613 44.7205 47.6183 40.4448C50.4752 36.1692 52 31.1423 52 26C52 19.1044 49.2608 12.4912 44.3848 7.61522C39.5089 2.73928 32.8957 0 26 0V0ZM38.9487 18.1316C38.3342 19.0547 37.5833 19.8795 36.7216 20.5776C36.613 20.6682 36.5259 20.7818 36.4667 20.9102C36.4076 21.0386 36.3778 21.1786 36.3795 21.32V21.4055C36.3695 23.2595 36.0289 25.0969 35.3737 26.8313C34.6986 28.6517 33.6957 30.333 32.4145 31.7918C30.6929 33.7518 28.4781 35.2153 26 36.0305C24.3717 36.559 22.6693 36.8235 20.9574 36.8139C18.2415 36.8136 15.5741 36.0948 13.2258 34.7305C13.1417 34.6827 13.0754 34.6087 13.0371 34.5198C12.9989 34.4309 12.9906 34.3319 13.0137 34.2379C13.0374 34.1454 13.0913 34.0635 13.167 34.0052C13.2426 33.9469 13.3356 33.9156 13.4311 33.9163H14.0811C16.1448 33.9199 18.1626 33.3077 19.8763 32.1579C18.8554 31.9912 17.9002 31.5464 17.1157 30.8722C16.3311 30.1981 15.7475 29.3207 15.429 28.3366C15.4127 28.2873 15.4097 28.2346 15.4204 28.1838C15.4311 28.133 15.455 28.0859 15.4897 28.0474C15.5245 28.0088 15.5688 27.9801 15.6182 27.9642C15.6676 27.9483 15.7204 27.9458 15.7711 27.9568C16.0824 28.0154 16.3985 28.0452 16.7153 28.0458H16.835C15.848 27.5928 15.0135 26.8635 14.4325 25.9461C13.8514 25.0286 13.5487 23.9625 13.5611 22.8766C13.5614 22.8258 13.5749 22.7759 13.6003 22.7319C13.6256 22.6879 13.6619 22.6511 13.7057 22.6253C13.7494 22.5995 13.7991 22.5854 13.8499 22.5845C13.9007 22.5835 13.9509 22.5958 13.9955 22.62C14.3969 22.8441 14.8275 23.011 15.275 23.1161C14.3913 22.2412 13.8229 21.0978 13.6588 19.8652C13.4947 18.6325 13.7443 17.3803 14.3684 16.3047C14.3924 16.2636 14.4259 16.229 14.4662 16.2037C14.5065 16.1784 14.5523 16.1632 14.5998 16.1595C14.6472 16.1558 14.6948 16.1637 14.7385 16.1824C14.7823 16.2012 14.8208 16.2302 14.8508 16.2671C16.0877 17.7954 17.6183 19.0602 19.3523 19.9868C21.0863 20.9135 22.9884 21.4831 24.9463 21.6621H24.9737C25.0025 21.6613 25.0308 21.6546 25.0569 21.6425C25.083 21.6303 25.1064 21.613 25.1256 21.5916C25.1448 21.5701 25.1594 21.545 25.1686 21.5177C25.1778 21.4905 25.1813 21.4616 25.179 21.4329C25.1028 20.7463 25.1468 20.0517 25.309 19.3803C25.5297 18.4676 25.9828 17.6275 26.6242 16.9417C27.2657 16.2559 28.0736 15.7478 28.9695 15.4666C29.5443 15.287 30.1428 15.1948 30.745 15.1929C32.1105 15.1913 33.4294 15.689 34.4535 16.5921C34.5861 16.7108 34.7578 16.7766 34.9358 16.7768C34.9936 16.7756 35.051 16.7676 35.1069 16.7529C36.0685 16.5095 36.9902 16.1293 37.8437 15.6239C37.8948 15.5925 37.9543 15.5775 38.0141 15.5812C38.074 15.5848 38.1312 15.6069 38.178 15.6444C38.2249 15.6818 38.259 15.7328 38.2757 15.7904C38.2924 15.848 38.2909 15.9094 38.2714 15.9661C37.9867 16.8616 37.4793 17.6703 36.7969 18.3163C37.4121 18.1713 38.0123 17.9686 38.5895 17.7108C38.6461 17.6895 38.7079 17.6862 38.7664 17.7013C38.825 17.7165 38.8774 17.7492 38.9167 17.7952C38.9559 17.8412 38.9801 17.8982 38.9858 17.9583C38.9915 18.0185 38.9786 18.079 38.9487 18.1316Z" fill="#472566"/>
</g>
<defs>
<clipPath id="clip0_918_1820">
<rect width="52" height="52" fill="white"/>
</clipPath>
</defs>
</svg>
