<svg width="36" height="36" fill="none" xmlns="http://www.w3.org/2000/svg"><path fill-rule="evenodd" clip-rule="evenodd" d="M2.53 2.53C0 5.062 0 9.135 0 17.28v1.44c0 8.146 0 12.219 2.53 14.75C5.062 36 9.135 36 17.28 36h1.44c8.146 0 12.219 0 14.75-2.53C36 30.938 36 26.865 36 18.72v-1.44c0-8.146 0-12.219-2.53-14.75C30.938 0 26.865 0 18.72 0h-1.44C9.134 0 5.061 0 2.53 2.53zm3.545 8.42c.195 9.36 4.875 14.985 13.08 14.985h.465V20.58c3.015.3 5.295 2.505 6.21 5.355h4.26c-1.17-4.26-4.245-6.615-6.165-7.515 1.92-1.11 4.62-3.81 5.265-7.47h-3.87c-.84 2.97-3.33 5.67-5.7 5.925V10.95h-3.87v10.38c-2.4-.6-5.43-3.51-5.565-10.38h-4.11z" fill="#8F95A7"/></svg>