<svg width="28" height="28" fill="none" xmlns="http://www.w3.org/2000/svg"><path d="M16.917 18.013h-5.834M14 15.167V21" stroke="#B266FF" stroke-width="2" stroke-miterlimit="10" stroke-linecap="round" stroke-linejoin="round"/><path d="M14 25.667H9.45c-.28 0-.56-.024-.828-.059-3.71-.245-5.694-2.228-5.939-5.938a6.44 6.44 0 01-.058-.828v-2.275a5.71 5.71 0 013.453-5.239 5.777 5.777 0 012.24-.455h11.387a5.84 5.84 0 011.645.234 5.692 5.692 0 014.037 5.448v2.275c0 .233-.012.467-.024.7-.221 4.083-2.496 6.137-6.813 6.137" stroke="#461F72" stroke-width="2" stroke-linecap="round" stroke-linejoin="round"/><path d="M15.05 2.94l-.035.082-3.383 7.851H8.307c-.794 0-1.552.164-2.24.455l2.041-4.876.047-.117.082-.187a.977.977 0 01.081-.198c1.529-3.535 3.255-4.34 6.732-3.01z" stroke="#461F72" stroke-width="2" stroke-linecap="round" stroke-linejoin="round"/><path d="M21.338 11.107a5.554 5.554 0 00-1.645-.234h-8.061l3.383-7.851.035-.082c.175.058.338.14.513.21l2.579 1.085c1.435.595 2.438 1.213 3.045 1.96.116.14.21.268.291.42.105.163.187.327.234.502.046.105.081.21.105.303.315.98.128 2.182-.479 3.687zM8.108 6.452l-2.041 4.877a5.71 5.71 0 00-3.454 5.238v-3.418a6.823 6.823 0 015.495-6.697z" stroke="#461F72" stroke-width="2" stroke-linecap="round" stroke-linejoin="round"/><path d="M25.387 13.148v3.419a5.692 5.692 0 00-4.037-5.449c.607-1.516.782-2.706.49-3.698a1.33 1.33 0 00-.105-.303 6.793 6.793 0 013.652 6.031z" stroke="#461F72" stroke-width="2" stroke-linecap="round" stroke-linejoin="round"/></svg>