<svg width="52" height="52" fill="none" xmlns="http://www.w3.org/2000/svg"><g clip-path="url(#clip0_918_1825)"><path fill="#fff" d="M10.4 9.1h31.2v33.8H10.4z"/><path d="M22.89 21.019l8.111 4.98-8.11 4.985V21.02z" fill="#472566"/><path d="M26 0a26 26 0 100 52 26 26 0 000-52zm12.391 32.257c-.52 1.598-2.24 2.57-3.825 2.792a81.022 81.022 0 01-17.132 0c-1.584-.223-3.305-1.194-3.825-2.792-.81-4.13-.81-8.38 0-12.51.52-1.615 2.24-2.57 3.838-2.792a81.021 81.021 0 0117.133 0c1.584.222 3.305 1.19 3.825 2.791a32.48 32.48 0 01-.014 12.511z" fill="#472566"/></g><defs><clipPath id="clip0_918_1825"><path fill="#fff" d="M0 0h52v52H0z"/></clipPath></defs></svg>