<svg width="52" height="52" viewBox="0 0 52 52" fill="none" xmlns="http://www.w3.org/2000/svg">
<g clip-path="url(#clip0_918_1825)">
<rect x="10.3999" y="9.1001" width="31.2" height="33.8" fill="white"/>
<path d="M22.8901 21.0186L31.0015 25.9996L22.8901 30.9841V21.0186Z" fill="#472566"/>
<path d="M26 0C20.8577 0 15.8309 1.52487 11.5552 4.38179C7.27951 7.23871 3.94703 11.2994 1.97915 16.0502C0.0112653 20.8011 -0.503622 26.0288 0.499595 31.0724C1.50281 36.1159 3.97907 40.7486 7.61524 44.3848C11.2514 48.0209 15.8842 50.4972 20.9277 51.5004C25.9712 52.5036 31.1989 51.9888 35.9498 50.0209C40.7007 48.053 44.7613 44.7205 47.6183 40.4448C50.4752 36.1692 52 31.1423 52 26C52 19.1044 49.2608 12.4912 44.3848 7.61522C39.5089 2.73928 32.8957 0 26 0V0ZM38.3911 32.2571C37.8711 33.8547 36.1503 34.8263 34.5664 35.0487C28.8715 35.6542 23.1285 35.6542 17.4337 35.0487C15.8498 34.8263 14.129 33.8547 13.609 32.2571C12.7982 28.1263 12.7982 23.8772 13.609 19.7463C14.129 18.1316 15.8498 17.1771 17.4474 16.9547C23.1422 16.3492 28.8852 16.3492 34.58 16.9547C36.164 17.1771 37.8848 18.1453 38.4048 19.7463C39.211 23.8781 39.2064 28.1271 38.3911 32.2571Z" fill="#472566"/>
</g>
<defs>
<clipPath id="clip0_918_1825">
<rect width="52" height="52" fill="white"/>
</clipPath>
</defs>
</svg>
