<svg width="143" height="39" fill="none" xmlns="http://www.w3.org/2000/svg"><path d="M.358 20.704H10.41c.198 1.44.388 1.769.996 2.524.99 1.22 1.764 1.564 3.604 1.564 1.372 0 2.536-.258 3.279-.883.742-.624.74-1.027.74-1.85 0-.783-.14-1.376-.848-1.993-.707-.617-2.348-1.2-4.923-1.75-4.215-.918-7.221-2.14-9.018-3.663-1.81-1.523-2.716-3.464-2.716-5.824 0-1.55.463-3.015 1.39-4.394.926-1.378 2.32-2.462 4.18-3.252C8.955.395 11.505 0 14.745 0c3.975 0 7.006.717 9.092 2.15 2.087 1.434 3.328 4.23 3.725 7.358H18.5c-.24-1.358-.747-1.545-1.518-2.163-.77-.617-1.835-.926-3.193-.926-1.118 0-1.532.07-2.098.53-.657.823-.889 1.899-.309 2.493.453.398 1.26.608 2.959.951 4.201.878 7.21 1.767 9.028 2.665 1.818.9 3.141 2.014 3.968 3.345.828 1.33 1.242 2.82 1.242 4.466 0 1.934-.552 3.718-1.655 5.35-1.103 1.634-2.645 2.872-4.626 3.716-1.98.844-4.477 1.265-7.49 1.265-5.291 0-8.955-.988-10.992-2.963C1.78 26.26.627 23.75.357 20.704zm52.574 9.981h-8.064v-3.54c-1.202 1.455-2.415 2.49-3.639 3.108-1.223.618-2.727.927-4.509.927-2.377 0-4.24-.69-5.591-2.069s-2.027-3.502-2.027-6.37V8.83h8.68v12.019c0 1.372.26 2.346.784 2.922.524.577 1.26.865 2.207.865 1.033 0 1.878-.384 2.536-1.152.658-.769.986-2.148.986-4.137V8.829h8.637v21.856zM54.834.515h8.657v30.17h-8.657V.515zM65.72 39V8.829h8.085v3.23c1.118-1.357 2.143-2.277 3.077-2.757 1.259-.645 2.652-.967 4.18-.967 3.013 0 5.344 1.118 6.992 3.354 1.648 2.237 2.472 5.002 2.472 8.294 0 3.636-.899 6.411-2.695 8.325-1.797 1.914-4.067 2.871-6.811 2.871-1.33 0-2.543-.22-3.64-.659a8.678 8.678 0 01-2.939-1.955V39l-8.72.001zm8.658-19.181c0 1.729.375 3.011 1.125 3.848.75.837 1.697 1.256 2.843 1.256 1.004 0 1.846-.401 2.525-1.204.68-.803 1.019-2.164 1.019-4.085 0-1.77-.354-3.07-1.061-3.9-.708-.83-1.57-1.246-2.59-1.246-1.102 0-2.022.419-2.757 1.256-.736.837-1.104 2.195-1.104 4.075z" fill="#fff"/><path d="M99.794 15.162l-8.841-.097c.311-1.4.76-2.5 1.347-3.303.587-.803 1.433-1.5 2.536-2.09.792-.424 1.881-.754 3.268-.987a27.158 27.158 0 014.498-.35c2.589 0 4.668.14 6.239.422 1.57.282 2.879.868 3.926 1.76.735.617 1.315 1.492 1.74 2.624.424 1.132.636 2.212.636 3.241v9.653c0 1.029.068 1.835.202 2.418.134.583.428 1.328.881 2.233h-8.106c-.326-.562-.538-.991-.637-1.286-.099-.295-.198-.758-.297-1.39-1.132 1.057-2.256 1.812-3.374 2.265-1.528.603-3.303.905-5.326.905-2.688 0-4.728-.603-6.122-1.811-1.393-1.207-2.09-2.696-2.09-4.466 0-1.66.502-3.025 1.506-4.095 1.005-1.07 2.858-1.866 5.56-2.388 3.239-.63 5.34-1.073 6.302-1.327.962-.254 1.98-.587 3.055-.998 0-1.03-.539-2.23-.977-2.642-.439-.412-.89-.457-1.993-.457-1.415 0-1.942.112-2.649.551-.552.343-.944.668-1.284 1.614zm6.797 5.578c-1.188.412-2.106.615-3.393.93-1.754.453-2.598.9-3.065 1.338-.48.453-.828.7-.828 1.277 0 .659.237.983.711 1.402.474.418.85.628 1.77.628.962 0 1.59-.12 2.417-.573.828-.452 1.415-.951 1.761-1.603.347-.652.574-1.072.574-2.115l.053-1.284zm10.4-20.226h8.827v15.56l5.49-7.245h10.631l-8.084 7.656 8.551 14.2h-9.74l-5.096-7.913-1.752 2.233v5.68h-8.827V.515z" fill="#fff"/></svg>