<svg width="96" height="40" fill="none" xmlns="http://www.w3.org/2000/svg"><path fill-rule="evenodd" clip-rule="evenodd" d="M95.262 38.016v-2.012h-2.144v2.012h-.64v-4.433h.64v1.865h2.144v-1.865h.647v4.433h-.647zM95.03 27.51h-4.4c-.5 0-1.027-.38-1.181-.851l-1.21-3.933c-.147-.486-.682-.866-1.16-.866h-8.332c-.499 0-1.026.38-1.18.851L76.25 26.66c-.147.464-.681.851-1.18.851h-4.22c-.498 0-.766-.366-.597-.851L79.436.85c.168-.463.717-.85 1.209-.85h4.661c.5 0 1.048.38 1.196.851l9.112 25.809c.028.084.042.162.049.232v.07c0 .317-.246.549-.633.549zM86.1 16.26l-2.868-9.098c-.147-.465-.4-.465-.562 0l-2.974 9.097c-.17.486.12.866.611.866h5.161c.5 0 .78-.394.633-.866zM70.233 4.896h-6.391c-.478 0-.9.401-.9.9V26.61c0 .5-.4.901-.893.901h-3.986a.892.892 0 01-.893-.9V5.797c0-.5-.415-.9-.914-.9h-6.427a.92.92 0 01-.9-.902V.901c.007-.486.422-.901.9-.901h20.404a.9.9 0 01.893.9v3.096a.9.9 0 01-.893.901zm-24.982 33.12v-3.877h-1.519v-.556h3.621v.556h-1.448v3.877h-.654zM44.154 27.51H25.86a.905.905 0 01-.893-.9V.9c0-.486.415-.901.893-.901h18.273c.5 0 .9.415.9.9v3.096c0 .486-.4.901-.9.901H31.47a.91.91 0 00-.913.9V9.83c0 .5.414.915.914.915h11.488c.478 0 .9.401.9.9v2.97c0 .5-.415.9-.9.9H31.47a.922.922 0 00-.913.915v5.25a.92.92 0 00.914.914h12.683c.5 0 .9.4.9.9v3.117c0 .5-.4.901-.9.901zM19.602 37.1c.218.268.542.401.977.401.26 0 .472-.042.647-.12.17-.084.345-.21.52-.38l.444.388a3.162 3.162 0 01-.338.295 1.848 1.848 0 01-.358.211 2.285 2.285 0 01-.422.134 2.726 2.726 0 01-.506.042c-.296 0-.563-.042-.802-.134a1.53 1.53 0 01-.612-.415 1.86 1.86 0 01-.386-.71 3.367 3.367 0 01-.134-1.014c0-.724.162-1.287.485-1.681.323-.394.767-.591 1.336-.591.584 0 1.034.19 1.343.57.316.38.471.907.471 1.583v.288h-2.988c-.007.493.105.866.323 1.133zm2.025-1.611a7.043 7.043 0 00-.042-.415.557.557 0 00-.042-.155 2.202 2.202 0 01-.063-.169 1.2 1.2 0 00-.408-.485 1.092 1.092 0 00-.626-.183c-.24 0-.45.063-.626.183a1.15 1.15 0 00-.408.485 2.94 2.94 0 00-.07.169c-.014.05-.028.105-.035.155a6.523 6.523 0 00-.021.183c0 .063-.007.14-.014.232h2.355zm-1.21-7.902H.9c-.5 0-.9-.415-.9-.9V23.64c0-.5.246-1.217.548-1.618l13.05-16.359c.316-.38.147-.696-.33-.696L1.49 4.996a.905.905 0 01-.893-.9V1.012c0-.5.414-.9.893-.9L20.36.077c.5 0 .915.402.915.901v2.815c0 .5-.267 1.217-.563 1.597L7.523 22.03c-.316.38-.148.718.33.718h12.565c.5 0 .9.4.9.9v3.047a.91.91 0 01-.9.893zM.929 37.004l2.278-3.413h.647v4.433h-.647V34.59L.928 38.023h-.64V33.59h.64v3.413zm6.708-1.555H9.78v-1.865h.647v4.433H9.78v-2.012H7.636v2.012h-.64v-4.433h.64v1.865zm7.354-1.302v3.877h-.647v-3.877h-1.519v-.556h3.621v.556H14.99zm10.827-.035c.183-.225.38-.38.577-.457.197-.078.422-.12.675-.12.225 0 .436.035.619.105.183.07.337.162.457.282.105.105.197.232.267.38.07.14.127.295.169.457.042.162.063.33.084.507.014.176.021.359.021.535 0 .358-.035.71-.105 1.04a1.68 1.68 0 01-.436.845c-.12.12-.274.218-.457.282a1.73 1.73 0 01-.619.105 1.81 1.81 0 01-.668-.12c-.204-.077-.394-.232-.584-.457V40h-.646v-6.417h.646v.528zm.035 2.322c.022.204.078.387.155.541.084.155.197.282.338.38.14.099.337.141.583.141.24 0 .436-.05.584-.14a.975.975 0 00.337-.38 1.75 1.75 0 00.155-.542c.021-.204.035-.416.035-.634 0-.218-.014-.429-.035-.633a1.575 1.575 0 00-.155-.542.975.975 0 00-.337-.38c-.148-.098-.338-.14-.584-.14-.246 0-.443.049-.583.14a1.114 1.114 0 00-.338.38 1.434 1.434 0 00-.155.542 6.142 6.142 0 00-.035.633c0 .218.014.43.035.634zm6.392-.985h2.144v-1.865h.647v4.433h-.647v-2.012h-2.144v2.012h-.64v-4.433h.64v1.865zm7.516-1.914c.583 0 1.033.19 1.343.57.316.38.47.907.47 1.583v.288h-2.987c0 .486.112.866.33 1.133.218.268.542.401.977.401.26 0 .471-.042.647-.12.169-.084.345-.21.52-.38l.444.388a3.162 3.162 0 01-.338.295 1.846 1.846 0 01-.359.211 2.284 2.284 0 01-.421.134 2.727 2.727 0 01-.507.042c-.295 0-.562-.042-.801-.133a1.53 1.53 0 01-.612-.416 1.862 1.862 0 01-.387-.71 3.37 3.37 0 01-.133-1.014c0-.724.162-1.287.485-1.681.316-.394.76-.591 1.329-.591zm1.174 1.956a7.329 7.329 0 00-.02-.232l-.022-.183a.56.56 0 00-.042-.155 2.202 2.202 0 01-.063-.169 1.2 1.2 0 00-.408-.485 1.093 1.093 0 00-.626-.183c-.239 0-.45.063-.626.183a1.16 1.16 0 00-.408.485 2.94 2.94 0 00-.07.169c-.014.05-.028.105-.035.155a7.37 7.37 0 00-.021.183c0 .063-.007.14-.014.232h2.355zm10.82.401h-2.467v-.605h2.468v.605zm5.175.675l1.484-2.983h.64v4.433h-.647v-3.152l-1.23 2.448h-.493l-1.251-2.448v3.152h-.64v-4.433h.64l1.497 2.983zm6.469-1.076h1.322v-.422c0-.324-.085-.57-.253-.732-.169-.162-.464-.246-.88-.246-.28 0-.505.042-.667.12-.162.077-.31.21-.45.393l-.443-.408c.19-.26.408-.436.654-.527.246-.092.548-.141.914-.141.597 0 1.047.127 1.336.38.288.253.436.619.436 1.098v3.01h-.647v-.421a1.652 1.652 0 01-.549.373c-.19.07-.436.105-.73.105-.31 0-.556-.028-.739-.091a1.325 1.325 0 01-.513-.317.98.98 0 01-.253-.401 1.49 1.49 0 01-.085-.5c0-.394.134-.71.394-.935.274-.226.654-.338 1.153-.338zm-.668 1.837c.162.12.422.182.78.182.183 0 .36-.014.52-.049a.944.944 0 00.458-.246c.147-.14.225-.401.225-.767v-.479H63.49c-.669 0-.999.26-.999.781 0 .268.077.458.24.578zm6.434-3.181v3.877h-.647V33.59h2.812v.556h-2.165zm5.695 1.344h1.321v-.422c0-.324-.084-.57-.253-.732-.168-.162-.464-.246-.879-.246-.28 0-.506.042-.668.12-.161.077-.309.21-.45.393l-.442-.408c.19-.26.407-.436.653-.527a2.62 2.62 0 01.914-.141c.598 0 1.048.127 1.336.38.289.253.436.619.436 1.098v3.01h-.647v-.421a1.652 1.652 0 01-.548.373c-.19.07-.436.105-.731.105-.31 0-.556-.028-.738-.091a1.325 1.325 0 01-.514-.317.98.98 0 01-.253-.401 1.49 1.49 0 01-.084-.5c0-.394.133-.71.394-.935.274-.226.653-.338 1.153-.338zm-.668 1.837c.161.12.421.182.78.182.183 0 .359-.014.52-.049a.944.944 0 00.457-.246c.148-.14.225-.401.225-.767v-.479h-1.23c-.668 0-.998.26-.998.781 0 .268.084.458.246.578zm6.166.07a2.1 2.1 0 00.71.105 1.473 1.473 0 00.752-.197.795.795 0 00.26-.246.584.584 0 00.099-.324c0-.253-.084-.436-.253-.556-.169-.12-.387-.183-.654-.183h-.647v-.534h.654a.946.946 0 00.597-.183c.155-.127.233-.296.233-.528 0-.225-.092-.401-.268-.506-.182-.113-.422-.17-.73-.17-.437 0-.838.127-1.19.373l-.372-.429c.246-.176.5-.295.767-.373.267-.07.548-.105.857-.105.218 0 .422.028.612.077.19.05.359.127.5.232a1.07 1.07 0 01.45.894 1.037 1.037 0 01-.704.992 1.057 1.057 0 01.773 1.041c0 .197-.042.38-.133.542a1.24 1.24 0 01-.366.408 1.63 1.63 0 01-.534.254 2.13 2.13 0 01-.64.091c-.358 0-.682-.042-.956-.134a2.282 2.282 0 01-.816-.492l.408-.422c.204.169.401.302.59.373zm6.046-.394l2.278-3.413h.647v4.433h-.647V34.59l-2.278 3.434h-.64V33.59h.64v3.413z" fill="#fff"/></svg>