<svg width="46" height="46" viewBox="0 0 46 46" fill="none" xmlns="http://www.w3.org/2000/svg">
<path d="M12.8418 17.7483L23.0001 23.6325L33.0818 17.7866" stroke="#B266FF" stroke-width="2" stroke-linecap="round" stroke-linejoin="round"/>
<path d="M23 34.0591V23.6133" stroke="#B266FF" stroke-width="2" stroke-linecap="round" stroke-linejoin="round"/>
<path d="M11.9409 19.7417C11.9409 18.1509 13.0717 16.2151 14.4709 15.4484L20.6042 12.0367C21.9076 11.3084 24.0542 11.3084 25.3767 12.0367L31.5101 15.4484C32.8901 16.2151 34.0401 18.1509 34.0401 19.7417V26.2392C34.0401 27.8301 32.9092 29.7659 31.5101 30.5326L25.3767 33.9442C24.0734 34.6726 21.9267 34.6726 20.6042 33.9442L14.4709 30.5326C13.7809 30.1492 13.1484 29.4784 12.6884 28.6926" stroke="#B266FF" stroke-width="2" stroke-linecap="round" stroke-linejoin="round"/>
<path d="M42.1667 28.75C42.1667 36.1675 36.1675 42.1667 28.75 42.1667L30.7625 38.8125" stroke="#461F72" stroke-width="2" stroke-linecap="round" stroke-linejoin="round"/>
<path d="M3.8335 17.2499C3.8335 9.83242 9.83266 3.83325 17.2502 3.83325L15.2377 7.18742" stroke="#461F72" stroke-width="2" stroke-linecap="round" stroke-linejoin="round"/>
</svg>
