<svg width="5" height="3" viewBox="0 0 5 3" fill="none" xmlns="http://www.w3.org/2000/svg">
<path d="M4.33701 0.983333H1.10157V2.5059H4.33701V0.983333Z" fill="#060606"/>
<path d="M4.71767 1.36406V0.98342C4.71767 0.773201 4.54725 0.602783 4.33703 0.602783H1.10158C0.891365 0.602775 0.720947 0.773193 0.720947 0.983412V2.50598C0.720947 2.7162 0.891365 2.88661 1.10158 2.88661H4.33703C4.54725 2.88661 4.71766 2.7162 4.71766 2.50598V2.12534C4.82277 2.12534 4.90799 2.04013 4.90799 1.93502V1.55438C4.90799 1.44926 4.82278 1.36406 4.71767 1.36406ZM4.52736 2.50598C4.52736 2.61109 4.44214 2.6963 4.33703 2.6963H1.10158C0.996475 2.6963 0.911262 2.61109 0.911262 2.50598V0.983412C0.911262 0.878302 0.996475 0.793089 1.10158 0.793089H4.33703C4.44214 0.793089 4.52735 0.878302 4.52735 0.983412L4.52736 2.50598Z" fill="#BFBFBF"/>
</svg>
