<svg width="11" height="6" viewBox="0 0 11 6" fill="none" xmlns="http://www.w3.org/2000/svg">
<path d="M9.28354 1.16247H1.30155V4.9187H9.28354V1.16247Z" fill="#060606"/>
<path d="M10.2226 2.10173V1.16268C10.2226 0.644061 9.80222 0.223633 9.2836 0.223633H1.3016C0.782977 0.223613 0.362549 0.644041 0.362549 1.16266V4.91889C0.362549 5.43752 0.782977 5.85794 1.3016 5.85794H9.28358C9.8022 5.85794 10.2226 5.43752 10.2226 4.91889V3.97985C10.4819 3.97985 10.6922 3.76962 10.6922 3.51031V2.57126C10.6922 2.31193 10.482 2.10173 10.2226 2.10173ZM9.75313 4.91889C9.75313 5.17821 9.54291 5.38843 9.2836 5.38843H1.3016C1.04229 5.38843 0.832063 5.17821 0.832063 4.91889V1.16266C0.832063 0.903351 1.04229 0.693127 1.3016 0.693127H9.28358C9.54289 0.693127 9.75311 0.903351 9.75311 1.16266L9.75313 4.91889Z" fill="#BFBFBF"/>
</svg>
