<svg width="46" height="46" viewBox="0 0 46 46" fill="none" xmlns="http://www.w3.org/2000/svg">
<path d="M6.07593 14.26L23.0001 24.0541L39.8092 14.3174" stroke="#461F72" stroke-width="2" stroke-linecap="round" stroke-linejoin="round"/>
<path d="M23 41.4191V24.0349" stroke="#461F72" stroke-width="2" stroke-linecap="round" stroke-linejoin="round"/>
<path d="M4.58081 28.4243V17.5759C4.58081 14.9309 6.47828 11.7109 8.79744 10.4267L19.0324 4.75337C21.2174 3.52671 24.7825 3.52671 26.9675 4.75337L37.2025 10.4267C39.5216 11.7109 41.4191 14.9309 41.4191 17.5759V28.4243C41.4191 28.5201 41.4191 28.5967 41.4 28.6925C40.0583 27.5234 38.3333 26.8334 36.4166 26.8334C34.615 26.8334 32.9475 27.4659 31.625 28.5201C29.8616 29.9193 28.75 32.0851 28.75 34.5001C28.75 35.9376 29.1524 37.2984 29.8616 38.4484C30.0341 38.7551 30.2449 39.0426 30.4749 39.3109L26.9675 41.2468C24.7825 42.4734 21.2174 42.4734 19.0324 41.2468L8.79744 35.5734" stroke="#461F72" stroke-width="2" stroke-linecap="round" stroke-linejoin="round"/>
<path d="M44.0833 34.3274C44.1217 35.7649 43.7383 37.1258 43.0483 38.2949C42.665 38.9849 42.1475 39.6175 41.5725 40.135C40.25 41.3616 38.5058 42.1091 36.57 42.1666C33.7716 42.2241 31.2992 40.7866 29.9383 38.5825C29.21 37.4516 28.7692 36.0908 28.75 34.6533C28.6925 32.2383 29.7658 30.0533 31.4908 28.6158C32.7942 27.5425 34.4425 26.8716 36.2442 26.8333C40.48 26.7375 43.9875 30.0916 44.0833 34.3274Z" stroke="#B266FF" stroke-width="2" stroke-miterlimit="10" stroke-linecap="round" stroke-linejoin="round"/>
<path d="M33.4268 34.5575L35.3626 36.3975L39.3684 32.5258" stroke="#B266FF" stroke-width="2" stroke-linecap="round" stroke-linejoin="round"/>
</svg>
