<svg width="28" height="28" viewBox="0 0 28 28" fill="none" xmlns="http://www.w3.org/2000/svg">
<path d="M3.69835 8.67993L14 14.6416L24.2317 8.71489" stroke="#461F72" stroke-width="2" stroke-linecap="round" stroke-linejoin="round"/>
<path d="M14 25.2116V14.6299" stroke="#461F72" stroke-width="2" stroke-linecap="round" stroke-linejoin="round"/>
<path d="M2.78835 17.3016V10.6983C2.78835 9.08825 3.94332 7.12828 5.35499 6.34661L11.585 2.89325C12.915 2.14659 15.085 2.14659 16.415 2.89325L22.645 6.34661C24.0567 7.12828 25.2116 9.08825 25.2116 10.6983V17.3016C25.2116 17.36 25.2117 17.4066 25.2 17.4649C24.3833 16.7532 23.3333 16.3333 22.1667 16.3333C21.07 16.3333 20.055 16.7183 19.25 17.3599C18.1767 18.2116 17.5 19.5299 17.5 20.9999C17.5 21.8749 17.745 22.7033 18.1766 23.4033C18.2816 23.5899 18.41 23.765 18.55 23.9283L16.415 25.1066C15.085 25.8533 12.915 25.8533 11.585 25.1066L5.35499 21.6533" stroke="#461F72" stroke-width="2" stroke-linecap="round" stroke-linejoin="round"/>
<path d="M26.8333 20.9999C26.8333 22.3999 26.215 23.6483 25.2467 24.4999C24.4184 25.2233 23.345 25.6666 22.1667 25.6666C19.5883 25.6666 17.5 23.5783 17.5 20.9999C17.5 19.5299 18.1767 18.2116 19.25 17.3599C20.055 16.7183 21.07 16.3333 22.1667 16.3333C24.745 16.3333 26.8333 18.4216 26.8333 20.9999Z" stroke="#B266FF" stroke-width="2" stroke-miterlimit="10" stroke-linecap="round" stroke-linejoin="round"/>
<path d="M22.4583 19.5415V21.2915L21 22.1665" stroke="#B266FF" stroke-width="2" stroke-miterlimit="10" stroke-linecap="round" stroke-linejoin="round"/>
</svg>
