<svg width="46" height="46" viewBox="0 0 46 46" fill="none" xmlns="http://www.w3.org/2000/svg">
<path d="M20.8097 38.3334H11.4203C7.23022 38.3334 3.8335 34.9367 3.8335 30.7466C3.8335 29.5946 4.08841 28.4515 4.76426 27.5184C6.75201 24.7743 12.1423 19.1667 23.0002 19.1667C33.858 19.1667 39.2483 24.7743 41.2361 27.5184C41.9119 28.4515 42.1668 29.5946 42.1668 30.7466C42.1668 34.9367 38.7701 38.3334 34.58 38.3334H28.7901" stroke="#62029E" stroke-width="2" stroke-linecap="round" stroke-linejoin="round"/>
<path d="M11.5 8.625V12.4583" stroke="#A94DCA" stroke-width="2" stroke-linecap="round"/>
<path d="M13.4165 21.0833V24.9166" stroke="#62029E" stroke-width="2" stroke-linecap="round"/>
<path d="M34.5 8.625V12.4583" stroke="#A94DCA" stroke-width="2" stroke-linecap="round"/>
<path d="M32.5835 21.0833V24.9166" stroke="#62029E" stroke-width="2" stroke-linecap="round"/>
<path d="M23 6.70825V12.4583" stroke="#A94DCA" stroke-width="2" stroke-linecap="round"/>
<path d="M23 19.1667V26.8334" stroke="#62029E" stroke-width="2" stroke-linecap="round"/>
<path d="M38.3332 24.3833C35.3679 21.8297 30.482 19.1667 22.9998 19.1667C15.5176 19.1667 10.6318 21.8297 7.6665 24.3833" stroke="#62029E" stroke-width="2" stroke-linecap="round"/>
</svg>
