<svg width="46" height="46" viewBox="0 0 46 46" fill="none" xmlns="http://www.w3.org/2000/svg">
<path d="M38.6595 10.1583L37.7395 26.8524C37.6245 26.8333 37.5095 26.8333 37.3753 26.8333H8.62531C8.49115 26.8333 8.37615 26.8333 8.26115 26.8524L7.34115 10.1583C6.99614 6.76575 9.66031 3.83325 13.0528 3.83325H32.9478C36.3403 3.83325 39.0045 6.76575 38.6595 10.1583Z" stroke="#A94DCA" stroke-width="2" stroke-linecap="round" stroke-linejoin="round"/>
<path d="M15.3145 3.83325V13.4166" stroke="#A94DCA" stroke-width="2" stroke-linecap="round" stroke-linejoin="round"/>
<path d="M23 3.83325V7.66659" stroke="#A94DCA" stroke-width="2" stroke-linecap="round" stroke-linejoin="round"/>
<path d="M18.2082 37.3749V34.4999H8.62484C7.57067 34.4999 6.61234 34.0783 5.92234 33.3691C5.21317 32.6791 4.7915 31.7208 4.7915 30.6666C4.7915 28.6924 6.32484 27.0441 8.26067 26.8524C8.37567 26.8333 8.49067 26.8333 8.62484 26.8333H37.3748C37.509 26.8333 37.624 26.8333 37.739 26.8524C38.659 26.9291 39.464 27.3316 40.0773 27.9641C40.8632 28.7308 41.2848 29.8233 41.189 31.0116C41.0165 33.0241 39.1957 34.4999 37.164 34.4999H27.7915V37.3749C27.7915 40.0199 25.6448 42.1666 22.9998 42.1666C20.3548 42.1666 18.2082 40.0199 18.2082 37.3749Z" stroke="#62029E" stroke-width="2" stroke-linecap="round" stroke-linejoin="round"/>
</svg>
