<svg width="46" height="46" viewBox="0 0 46 46" fill="none" xmlns="http://www.w3.org/2000/svg">
<path d="M3.8335 21.0833C3.8335 17.2499 5.75016 15.3333 9.5835 15.3333H19.1668V36.4166C19.1668 40.2499 21.0835 42.1666 24.9168 42.1666H9.5835C5.75016 42.1666 3.8335 40.2499 3.8335 36.4166V28.7499" stroke="#62029E" stroke-width="2" stroke-miterlimit="10" stroke-linecap="round" stroke-linejoin="round"/>
<path d="M19.3776 7.66675C19.2243 8.24175 19.1668 8.87425 19.1668 9.58341V15.3334H9.5835V11.5001C9.5835 9.39175 11.3085 7.66675 13.4168 7.66675H19.3776Z" stroke="#62029E" stroke-width="2" stroke-miterlimit="10" stroke-linecap="round" stroke-linejoin="round"/>
<path d="M26.8335 15.3333V24.9166" stroke="#A94DCA" stroke-width="2" stroke-miterlimit="10" stroke-linecap="round" stroke-linejoin="round"/>
<path d="M34.5 15.3333V24.9166" stroke="#A94DCA" stroke-width="2" stroke-miterlimit="10" stroke-linecap="round" stroke-linejoin="round"/>
<path d="M32.5835 32.5833H28.7502C27.696 32.5833 26.8335 33.4458 26.8335 34.4999V42.1666H34.5002V34.4999C34.5002 33.4458 33.6377 32.5833 32.5835 32.5833Z" stroke="#62029E" stroke-width="2" stroke-miterlimit="10" stroke-linecap="round" stroke-linejoin="round"/>
<path d="M11.5 24.9167V32.5834" stroke="#A94DCA" stroke-width="2" stroke-miterlimit="10" stroke-linecap="round" stroke-linejoin="round"/>
<path d="M19.1665 36.4166V9.58325C19.1665 5.74992 21.0832 3.83325 24.9165 3.83325H36.4165C40.2498 3.83325 42.1665 5.74992 42.1665 9.58325V36.4166C42.1665 40.2499 40.2498 42.1666 36.4165 42.1666H24.9165C21.0832 42.1666 19.1665 40.2499 19.1665 36.4166Z" stroke="#62029E" stroke-width="2" stroke-miterlimit="10" stroke-linecap="round" stroke-linejoin="round"/>
</svg>
