<svg width="46" height="46" viewBox="0 0 46 46" fill="none" xmlns="http://www.w3.org/2000/svg">
<path d="M42.1091 28.865V36.11C42.1091 40.25 40.1925 42.1667 36.0525 42.1667H23.9583V19.9717L24.8591 20.1633L33.4841 22.0992L37.375 22.9617C39.905 23.5175 41.975 24.8208 42.09 28.5008C42.1091 28.6158 42.1091 28.7308 42.1091 28.865Z" stroke="#B266FF" stroke-width="2" stroke-linecap="round" stroke-linejoin="round"/>
<path d="M10.5417 17.25H17.1925" stroke="#461F72" stroke-width="2" stroke-linecap="round" stroke-linejoin="round"/>
<path d="M10.5417 24.9165H17.1925" stroke="#461F72" stroke-width="2" stroke-linecap="round" stroke-linejoin="round"/>
<path d="M33.4842 22.0994V28.2711C33.4842 30.6477 31.5484 32.5836 29.1717 32.5836C26.795 32.5836 24.8592 30.6477 24.8592 28.2711V20.1636L33.4842 22.0994Z" stroke="#B266FF" stroke-width="2" stroke-linecap="round" stroke-linejoin="round"/>
<path d="M42.09 28.5008C41.975 30.7625 40.0967 32.5833 37.7967 32.5833C35.42 32.5833 33.4842 30.6475 33.4842 28.2708V22.0991L37.375 22.9616C39.905 23.5175 41.975 24.8208 42.09 28.5008Z" stroke="#B266FF" stroke-width="2" stroke-linecap="round" stroke-linejoin="round"/>
<path d="M3.77582 11.404V9.75569C3.77582 4.73402 7.51332 2.45319 12.0942 4.69569L20.6042 8.87402C22.4442 9.77486 23.9583 12.1707 23.9583 14.2024V42.1665H7.81998C5.59665 42.1665 3.77582 40.384 3.77582 38.199V19.2049" stroke="#461F72" stroke-width="2" stroke-linecap="round" stroke-linejoin="round"/>
</svg>
