<svg width="28" height="28" viewBox="0 0 28 28" fill="none" xmlns="http://www.w3.org/2000/svg">
<path d="M10.955 7.01183C11.165 7.3035 11.3167 7.57183 11.4217 7.8285C11.5267 8.0735 11.585 8.3185 11.585 8.54016C11.585 8.82016 11.5033 9.10016 11.34 9.3685C11.1883 9.63683 10.9667 9.91683 10.6867 10.1968L9.80001 11.1185C9.67168 11.2468 9.61334 11.3985 9.61334 11.5852C9.61334 11.6785 9.62501 11.7602 9.64834 11.8535C9.68334 11.9468 9.71834 12.0168 9.74168 12.0868C9.95168 12.4718 10.3133 12.9735 10.8267 13.5802C11.3517 14.1868 11.9117 14.8052 12.5183 15.4235C13.1483 16.0418 13.755 16.6135 14.3733 17.1385C14.98 17.6518 15.4817 18.0018 15.8783 18.2118C15.9367 18.2352 16.0067 18.2702 16.0883 18.3052C16.1817 18.3402 16.275 18.3518 16.38 18.3518C16.5783 18.3518 16.73 18.2818 16.8583 18.1535L17.745 17.2785C18.0367 16.9868 18.3167 16.7652 18.585 16.6252C18.8533 16.4618 19.1217 16.3802 19.4133 16.3802C19.635 16.3802 19.8683 16.4268 20.125 16.5318C20.3817 16.6368 20.65 16.7885 20.9417 16.9868L24.8033 19.7285C25.1067 19.9385 25.3167 20.1835 25.445 20.4752C25.5617 20.7668 25.6317 21.0585 25.6317 21.3852C25.6317 21.8052 25.5383 22.2368 25.34 22.6568C25.1417 23.0768 24.885 23.4735 24.5467 23.8468C23.975 24.4768 23.345 24.9318 22.6333 25.2235C21.9333 25.5152 21.175 25.6668 20.3583 25.6668C19.1683 25.6668 17.8967 25.3868 16.555 24.8152C15.2133 24.2435 13.8717 23.4735 12.5417 22.5052C11.2 21.5252 9.92834 20.4402 8.71501 19.2385C7.51334 18.0252 6.42834 16.7535 5.46001 15.4235C4.50334 14.0935 3.73334 12.7635 3.17334 11.4452C2.61334 10.1152 2.33334 8.8435 2.33334 7.63016C2.33334 6.83683 2.47334 6.0785 2.75334 5.3785C3.03334 4.66683 3.47668 4.0135 4.09501 3.43016C4.84168 2.69516 5.65834 2.3335 6.52168 2.3335C6.84834 2.3335 7.17501 2.4035 7.46668 2.5435C7.77001 2.6835 8.03834 2.8935 8.24834 3.19683" stroke="#461F72" stroke-width="2" stroke-miterlimit="10" stroke-linecap="round" stroke-linejoin="round"/>
<path d="M21.5833 10.4998C21.5833 9.79984 21.035 8.7265 20.2183 7.8515C19.4717 7.0465 18.48 6.4165 17.5 6.4165" stroke="#B266FF" stroke-width="2" stroke-linecap="round" stroke-linejoin="round"/>
<path d="M19.845 2.67183C19.0983 2.45016 18.3167 2.3335 17.5 2.3335" stroke="#B266FF" stroke-width="2" stroke-linecap="round" stroke-linejoin="round"/>
<path d="M25.6667 10.5002C25.6667 7.73519 24.29 5.28519 22.19 3.81519" stroke="#B266FF" stroke-width="2" stroke-linecap="round" stroke-linejoin="round"/>
</svg>
