<svg width="46" height="46" viewBox="0 0 46 46" fill="none" xmlns="http://www.w3.org/2000/svg">
<path d="M9.58329 42.1666L13.4166 42.1666C17.25 42.1666 19.1666 40.25 19.1666 36.4166L19.1666 32.5833C19.1666 28.75 17.25 26.8333 13.4166 26.8333L9.58329 26.8333C5.74996 26.8333 3.83329 28.75 3.83329 32.5833L3.83329 36.4166" stroke="#461F72" stroke-width="2" stroke-miterlimit="10" stroke-linecap="round" stroke-linejoin="round"/>
<path d="M36.4166 3.83329L32.5833 3.83329C28.75 3.83329 26.8333 5.74996 26.8333 9.58329L26.8333 13.4166C26.8333 17.25 28.75 19.1666 32.5833 19.1666L36.4166 19.1666C40.25 19.1666 42.1666 17.25 42.1666 13.4166L42.1666 9.58329" stroke="#461F72" stroke-width="2" stroke-miterlimit="10" stroke-linecap="round" stroke-linejoin="round"/>
<path d="M34.5 26.8333C30.2658 26.8333 26.8333 30.2658 26.8333 34.5C26.8333 38.7341 30.2658 42.1666 34.5 42.1666C38.7341 42.1666 42.1666 38.7341 42.1666 34.5C42.1666 30.2658 38.7341 26.8333 34.5 26.8333Z" stroke="#461F72" stroke-width="2" stroke-miterlimit="10" stroke-linecap="round" stroke-linejoin="round"/>
<path d="M11.5 3.83329C7.26578 3.83329 3.83329 7.26578 3.83329 11.5C3.83329 15.7341 7.26578 19.1666 11.5 19.1666C15.7341 19.1666 19.1666 15.7341 19.1666 11.5C19.1666 7.26578 15.7341 3.83329 11.5 3.83329Z" stroke="#B266FF" stroke-width="2" stroke-miterlimit="10" stroke-linecap="round" stroke-linejoin="round"/>
</svg>
