<svg width="46" height="46" viewBox="0 0 46 46" fill="none" xmlns="http://www.w3.org/2000/svg">
<path d="M36.1292 3.83337H30.9542C26.6417 3.83337 24.9167 5.55837 24.9167 9.87087V16.9625C24.9167 21.275 26.6417 23 30.9542 23H36.1292C40.4417 23 42.1667 21.275 42.1667 16.9625V11.4234" stroke="#461F72" stroke-width="2" stroke-linecap="round" stroke-linejoin="round"/>
<path d="M9.87081 42.1667H15.0458C19.3583 42.1667 21.0833 40.4417 21.0833 36.1292V29.0375C21.0833 24.725 19.3583 23 15.0458 23H9.87081C5.55831 23 3.83331 24.725 3.83331 29.0375V34.8067" stroke="#461F72" stroke-width="2" stroke-linecap="round" stroke-linejoin="round"/>
<path d="M42.1667 28.75C42.1667 36.1675 36.1675 42.1667 28.75 42.1667L30.7625 38.8125" stroke="#B266FF" stroke-width="2" stroke-linecap="round" stroke-linejoin="round"/>
<path d="M3.83331 17.25C3.83331 9.83254 9.83248 3.83337 17.25 3.83337L15.2375 7.18754" stroke="#B266FF" stroke-width="2" stroke-linecap="round" stroke-linejoin="round"/>
</svg>
