<svg width="46" height="46" viewBox="0 0 46 46" fill="none" xmlns="http://www.w3.org/2000/svg">
<path d="M13.4167 23C5.75 23 5.75 26.4308 5.75 30.6667V32.5833C5.75 37.8733 5.75 42.1667 15.3333 42.1667H30.6667C38.3333 42.1667 40.25 37.8733 40.25 32.5833V30.6667C40.25 26.4308 40.25 23 32.5833 23C30.6667 23 30.13 23.4025 29.1333 24.15L27.1783 26.22C24.9167 28.635 21.0833 28.635 18.8025 26.22L16.8667 24.15C15.87 23.4025 15.3333 23 13.4167 23Z" stroke="#461F72" stroke-width="2" stroke-miterlimit="10" stroke-linecap="round" stroke-linejoin="round"/>
<path d="M9.58337 19.09V23" stroke="#461F72" stroke-width="2" stroke-miterlimit="10" stroke-linecap="round" stroke-linejoin="round"/>
<path d="M36.4167 23V11.5C36.4167 7.26421 36.4167 3.83337 28.75 3.83337H17.25C9.58337 3.83337 9.58337 7.26421 9.58337 11.5" stroke="#461F72" stroke-width="2" stroke-miterlimit="10" stroke-linecap="round" stroke-linejoin="round"/>
<path d="M19.7992 17.6333H26.1817" stroke="#B266FF" stroke-width="2" stroke-linecap="round" stroke-linejoin="round"/>
<path d="M26.1816 11.8833H27.7916" stroke="#B266FF" stroke-width="2" stroke-linecap="round" stroke-linejoin="round"/>
<path d="M18.2084 11.8833H21.2367" stroke="#B266FF" stroke-width="2" stroke-linecap="round" stroke-linejoin="round"/>
</svg>
