<svg width="46" height="46" viewBox="0 0 46 46" fill="none" xmlns="http://www.w3.org/2000/svg">
<path d="M21.62 3.83337H18.1125C14.6625 3.83337 13.8958 5.55839 13.455 7.68589L11.8833 15.1992H34.1166L32.545 7.68589C32.1041 5.57756 31.3375 3.83337 27.8875 3.83337" stroke="#461F72" stroke-width="2" stroke-linecap="round" stroke-linejoin="round"/>
<path d="M36.7232 25.7408L36.8766 27.4466C37.0299 29.0758 35.7266 30.475 34.0591 30.475H31.4524C29.9574 30.475 29.7466 29.8425 29.4782 29.0375L29.1907 28.2132C28.8074 27.0824 28.5582 26.3158 26.5457 26.3158H19.4349C17.4416 26.3158 17.1349 27.1782 16.7899 28.2132L16.5024 29.0375C16.2341 29.8233 16.0232 30.475 14.5282 30.475H11.9216C10.2541 30.475 8.95073 29.0758 9.10407 27.4466L9.88991 18.975C10.0816 16.8858 10.4841 15.1799 14.1257 15.1799H31.8549C35.4966 15.1799 35.8991 16.8858 36.0907 18.975" stroke="#461F72" stroke-width="2" stroke-linecap="round" stroke-linejoin="round"/>
<path d="M11.8833 11.0209H10.4841" stroke="#461F72" stroke-width="2" stroke-linecap="round" stroke-linejoin="round"/>
<path d="M35.5159 11.0209H34.1167" stroke="#461F72" stroke-width="2" stroke-linecap="round" stroke-linejoin="round"/>
<path d="M14.6624 20.7577H18.8215" stroke="#B266FF" stroke-width="2" stroke-linecap="round" stroke-linejoin="round"/>
<path d="M27.1782 20.7577H31.3374" stroke="#B266FF" stroke-width="2" stroke-linecap="round" stroke-linejoin="round"/>
<path d="M23 32.5834V34.5" stroke="#B266FF" stroke-width="2" stroke-linecap="round" stroke-linejoin="round"/>
<path d="M23 40.25V42.1667" stroke="#B266FF" stroke-width="2" stroke-linecap="round" stroke-linejoin="round"/>
<path d="M5.74992 34.5L3.83325 42.1667" stroke="#B266FF" stroke-width="2" stroke-linecap="round" stroke-linejoin="round"/>
<path d="M40.25 34.5L42.1667 42.1667" stroke="#B266FF" stroke-width="2" stroke-linecap="round" stroke-linejoin="round"/>
</svg>
