<svg width="28" height="28" viewBox="0 0 28 28" fill="none" xmlns="http://www.w3.org/2000/svg">
<path d="M10.5349 16.3332C10.0799 15.6682 9.82324 14.8632 9.82324 13.9999C9.82324 11.6899 11.6899 9.82324 13.9999 9.82324C16.3099 9.82324 18.1766 11.6899 18.1766 13.9999C18.1766 16.3099 16.3099 18.1766 13.9999 18.1766" stroke="#B266FF" stroke-width="2" stroke-linecap="round" stroke-linejoin="round"/>
<path d="M20.4865 6.5099C18.5148 5.1099 16.2982 4.35156 13.9998 4.35156C9.88148 4.35156 6.04315 6.77823 3.37148 10.9782C2.32148 12.6232 2.32148 15.3882 3.37148 17.0332C6.04315 21.2332 9.88148 23.6599 13.9998 23.6599C18.1182 23.6599 21.9565 21.2332 24.6282 17.0332C25.6782 15.3882 25.6782 12.6232 24.6282 10.9782" stroke="#461F72" stroke-width="2" stroke-linecap="round" stroke-linejoin="round"/>
</svg>
