<svg width="46" height="46" viewBox="0 0 46 46" fill="none" xmlns="http://www.w3.org/2000/svg">
<path d="M17.3075 26.8333C16.56 25.7408 16.1383 24.4183 16.1383 23C16.1383 19.205 19.205 16.1383 23 16.1383C26.795 16.1383 29.8616 19.205 29.8616 23C29.8616 26.795 26.795 29.8616 23 29.8616" stroke="#B266FF" stroke-width="2" stroke-linecap="round" stroke-linejoin="round"/>
<path d="M33.6566 10.695C30.4174 8.395 26.7758 7.14917 22.9999 7.14917C16.2341 7.14917 9.92828 11.1358 5.53911 18.0358C3.81411 20.7383 3.81411 25.2808 5.53911 27.9833C9.92828 34.8833 16.2341 38.87 22.9999 38.87C29.7658 38.87 36.0716 34.8833 40.4608 27.9833C42.1858 25.2808 42.1858 20.7383 40.4608 18.0358" stroke="#461F72" stroke-width="2" stroke-linecap="round" stroke-linejoin="round"/>
</svg>
