<svg width="52" height="52" viewBox="0 0 52 52" fill="none" xmlns="http://www.w3.org/2000/svg">
<g clip-path="url(#clip0_918_1815)">
<rect x="10.3999" y="9.1001" width="31.2" height="33.8" fill="white"/>
<path d="M26 0C20.8577 0 15.8309 1.52487 11.5552 4.38179C7.27951 7.23871 3.94703 11.2994 1.97915 16.0502C0.0112653 20.8011 -0.503622 26.0288 0.499595 31.0724C1.50281 36.1159 3.97907 40.7486 7.61524 44.3848C11.2514 48.0209 15.8842 50.4972 20.9277 51.5004C25.9712 52.5036 31.1989 51.9888 35.9498 50.0209C40.7007 48.053 44.7613 44.7205 47.6183 40.4448C50.4752 36.1692 52.0001 31.1423 52.0001 26C52.0001 19.1044 49.2608 12.4912 44.3848 7.61522C39.5089 2.73928 32.8957 0 26 0V0ZM32.589 23.5368L32.1579 27.1597C32.1393 27.3279 32.0591 27.4831 31.9328 27.5956C31.8064 27.708 31.6429 27.7697 31.4737 27.7687H27.7106V38.5108C27.7115 38.639 27.6616 38.7625 27.5719 38.8541C27.4822 38.9458 27.3599 38.9982 27.2316 39H23.4C23.3362 38.9991 23.2732 38.9857 23.2146 38.9604C23.156 38.9352 23.103 38.8986 23.0585 38.8529C23.014 38.8071 22.979 38.7531 22.9554 38.6938C22.9318 38.6345 22.9202 38.5712 22.9211 38.5074L22.9416 27.7687H20.0919C19.9104 27.7687 19.7364 27.6966 19.6081 27.5683C19.4797 27.44 19.4077 27.2659 19.4077 27.0845V23.465C19.4077 23.2835 19.4797 23.1095 19.6081 22.9812C19.7364 22.8529 19.9104 22.7808 20.0919 22.7808H22.9211V19.2708C22.9211 15.21 25.3398 13 28.8737 13H31.7714C31.9528 13 32.1268 13.0721 32.2552 13.2004C32.3835 13.3287 32.4556 13.5027 32.4556 13.6842V16.7324C32.4556 16.9138 32.3835 17.0879 32.2552 17.2162C32.1268 17.3445 31.9528 17.4166 31.7714 17.4166H29.9958C28.0732 17.4474 27.7106 18.3676 27.7106 19.7429V22.7705H31.9253C32.0208 22.7727 32.1147 22.7948 32.2011 22.8355C32.2875 22.8762 32.3644 22.9344 32.4269 23.0066C32.4895 23.0788 32.5362 23.1633 32.5641 23.2546C32.592 23.3459 32.6005 23.4421 32.589 23.5368V23.5368Z" fill="#472566"/>
</g>
<defs>
<clipPath id="clip0_918_1815">
<rect width="52" height="52" fill="white"/>
</clipPath>
</defs>
</svg>
