<svg width="28" height="28" viewBox="0 0 28 28" fill="none" xmlns="http://www.w3.org/2000/svg">
<path d="M24.5 10.5002C21.0933 9.36857 17.5467 8.79688 14 8.79688" stroke="#461F72" stroke-width="2" stroke-linecap="round" stroke-linejoin="round"/>
<path d="M3.5 10.4998C5.355 9.88145 7.24501 9.43815 9.15834 9.14648" stroke="#461F72" stroke-width="2" stroke-linecap="round" stroke-linejoin="round"/>
<path d="M25.6668 13.9997C25.6668 7.55967 20.4402 2.33301 14.0002 2.33301C7.56016 2.33301 2.3335 7.55967 2.3335 13.9997C2.3335 20.4397 7.56016 25.6663 14.0002 25.6663" stroke="#461F72" stroke-width="2" stroke-linecap="round" stroke-linejoin="round"/>
<path d="M9.33353 3.5H10.5002C8.2252 10.3133 8.2252 17.6867 10.5002 24.5H9.33353" stroke="#461F72" stroke-width="2" stroke-linecap="round" stroke-linejoin="round"/>
<path d="M17.5 3.5C18.6317 6.90667 19.2033 10.4533 19.2033 14" stroke="#461F72" stroke-width="2" stroke-linecap="round" stroke-linejoin="round"/>
<path d="M3.5 18.6667V17.5C6.90667 18.6317 10.4533 19.2034 14 19.2034" stroke="#461F72" stroke-width="2" stroke-linecap="round" stroke-linejoin="round"/>
<path d="M22.7499 17.1504C22.3182 17.0221 21.8282 16.9404 21.2915 16.9404C18.8765 16.9404 16.9282 18.9004 16.9282 21.3038C16.9282 23.7188 18.8882 25.6671 21.2915 25.6671C23.6949 25.6671 25.6549 23.7071 25.6549 21.3038C25.6549 20.4054 25.3865 19.5654 24.9199 18.8771" stroke="#B266FF" stroke-width="2" stroke-linecap="round" stroke-linejoin="round"/>
<path d="M23.3802 17.267L21.9219 15.5986" stroke="#B266FF" stroke-width="2" stroke-linecap="round" stroke-linejoin="round"/>
<path d="M23.3801 17.2666L21.6768 18.5033" stroke="#B266FF" stroke-width="2" stroke-linecap="round" stroke-linejoin="round"/>
</svg>
