<svg width="46" height="46" viewBox="0 0 46 46" fill="none" xmlns="http://www.w3.org/2000/svg">
<path d="M18.9559 28.4048L21.735 30.5515C22.0991 30.9156 22.9042 31.0882 23.4408 31.0882H26.8333C27.9067 31.0882 29.0758 30.2832 29.3442 29.2099L31.4908 22.6548C31.9316 21.409 31.1267 20.3165 29.785 20.3165H26.2008C25.6642 20.3165 25.2233 19.8758 25.3 19.2433L25.7408 16.3683C25.9133 15.5633 25.3767 14.6624 24.5717 14.3941C23.8625 14.1258 22.9617 14.4898 22.5975 15.0265L18.9175 20.489" stroke="#B266FF" stroke-width="2" stroke-miterlimit="10"/>
<path d="M14.375 28.4045V19.6263C14.375 18.3613 14.9117 17.9204 16.1767 17.9204H17.0775C18.3233 17.9204 18.8792 18.3613 18.8792 19.6263V28.4045C18.8792 29.6504 18.3425 30.1104 17.0775 30.1104H16.1767C14.9117 30.1104 14.375 29.6695 14.375 28.4045Z" stroke="#B266FF" stroke-width="2" stroke-linecap="round" stroke-linejoin="round"/>
<path d="M28.0983 38.3523L25.185 41.2657C23.9967 42.454 22.0417 42.454 20.8533 41.2657L17.94 38.3523C17.4416 37.854 16.4642 37.4515 15.7742 37.4515H11.6533C9.96664 37.4515 8.58668 36.0714 8.58668 34.3847V30.264C8.58668 29.574 8.18418 28.5965 7.68585 28.0982L4.77248 25.1848C3.58414 23.9965 3.58414 22.0415 4.77248 20.8531L7.68585 17.9398C8.18418 17.4414 8.58668 16.4639 8.58668 15.7739V11.653C8.58668 9.96638 9.96664 8.58643 11.6533 8.58643" stroke="#461F72" stroke-width="2" stroke-linecap="round" stroke-linejoin="round"/>
<path d="M17.9017 7.64739L20.815 4.73402C22.0033 3.54569 23.9583 3.54569 25.1467 4.73402L28.06 7.64739C28.5584 8.14573 29.5358 8.54817 30.2258 8.54817H34.3467C36.0334 8.54817 37.4133 9.92836 37.4133 11.615V15.7357C37.4133 16.4257 37.8158 17.4032 38.3142 17.9015L41.2275 20.8149C42.4159 22.0032 42.4159 23.9582 41.2275 25.1466L38.3142 28.0599C37.8158 28.5583 37.4133 29.5358 37.4133 30.2258V34.3467C37.4133 36.0333 36.0334 37.4133 34.3467 37.4133" stroke="#461F72" stroke-width="2" stroke-linecap="round" stroke-linejoin="round"/>
</svg>
