<svg width="46" height="46" viewBox="0 0 46 46" fill="none" xmlns="http://www.w3.org/2000/svg">
<path d="M42.1668 17.2501V28.7501C42.1668 33.5417 41.2085 36.8959 39.0618 39.0617L26.8335 26.8334L41.6494 12.0176C41.9944 13.5317 42.1668 15.2567 42.1668 17.2501Z" stroke="#461F72" stroke-width="2" stroke-linecap="round" stroke-linejoin="round"/>
<path d="M3.8335 17.2499C3.8335 7.66659 7.66683 3.83325 17.2502 3.83325H28.7502C36.3402 3.83325 40.3269 6.24826 41.6494 12.0174L12.0176 41.6491C6.24848 40.3266 3.8335 36.3399 3.8335 28.7499V24.8016" stroke="#461F72" stroke-width="2" stroke-linecap="round" stroke-linejoin="round"/>
<path d="M39.0618 39.0616C36.8959 41.2083 33.5418 42.1666 28.7501 42.1666H17.2501C15.2568 42.1666 13.5317 41.9941 12.0176 41.6491L26.8334 26.8333L39.0618 39.0616Z" stroke="#461F72" stroke-width="2" stroke-linecap="round" stroke-linejoin="round"/>
<path d="M11.9598 15.2949C13.2631 9.67905 21.6965 9.67905 22.9998 15.2949C23.7473 18.5916 21.6773 21.3899 19.8564 23.1149C18.5339 24.3799 16.4448 24.3799 15.1031 23.1149C13.2823 21.3899 11.1931 18.5916 11.9598 15.2949Z" stroke="#B266FF" stroke-width="2"/>
<path d="M17.4317 16.6749H17.4489" stroke="#B266FF" stroke-width="2" stroke-linecap="round" stroke-linejoin="round"/>
</svg>
