<svg width="46" height="46" viewBox="0 0 46 46" fill="none" xmlns="http://www.w3.org/2000/svg">
<path d="M42.1667 22.1183V25.7408C42.1667 28.6158 41.2084 31.0116 39.5217 32.6983C37.8542 34.3658 35.4584 35.3241 32.5834 35.3241V39.4066C32.5834 40.94 30.8776 41.86 29.6126 41.0167L21.0834 35.3241H17.02C17.1734 34.7491 17.25 34.155 17.25 33.5417C17.25 31.5867 16.5025 29.785 15.2759 28.4242C13.8959 26.8525 11.845 25.875 9.58337 25.875C7.43671 25.875 5.48172 26.7567 4.08255 28.1942C3.91005 27.4275 3.83337 26.6033 3.83337 25.7408V14.2408C3.83337 8.4908 7.66671 4.65747 13.4167 4.65747H32.5834C38.3334 4.65747 42.1667 8.4908 42.1667 14.2408" stroke="#461F72" stroke-width="2" stroke-miterlimit="10" stroke-linecap="round" stroke-linejoin="round"/>
<path d="M17.25 33.5417C17.25 35.8417 16.2342 37.8925 14.6433 39.2917C13.2825 40.48 11.5191 41.2083 9.58329 41.2083C5.34746 41.2083 1.91663 37.7775 1.91663 33.5417C1.91663 31.1267 3.02829 28.9608 4.79163 27.5617C6.11413 26.5075 7.78163 25.875 9.58329 25.875C13.8191 25.875 17.25 29.3058 17.25 33.5417Z" stroke="#B266FF" stroke-width="2" stroke-miterlimit="10" stroke-linecap="round" stroke-linejoin="round"/>
<path d="M10.0625 31.1459V34.0209L7.66663 35.4584" stroke="#B266FF" stroke-width="2" stroke-miterlimit="10" stroke-linecap="round" stroke-linejoin="round"/>
<path d="M16.2916 20.125H29.7083" stroke="#461F72" stroke-width="2" stroke-miterlimit="10" stroke-linecap="round" stroke-linejoin="round"/>
</svg>
