<svg width="28" height="28" viewBox="0 0 28 28" fill="none" xmlns="http://www.w3.org/2000/svg">
<path d="M20.125 11.8766V14.945C20.125 15.1433 20.1133 15.3299 20.09 15.5166C19.915 17.5816 18.69 18.6083 16.45 18.6083H16.1467C15.96 18.6083 15.7733 18.7016 15.6567 18.8533L14.735 20.0783C14.3267 20.6266 13.6733 20.6266 13.265 20.0783L12.3433 18.8533C12.2383 18.725 12.0167 18.6083 11.8533 18.6083H11.55C9.09999 18.6083 7.875 18.0016 7.875 14.9333V11.865C7.875 9.62497 8.91333 8.39994 10.9667 8.22494C11.1533 8.20161 11.34 8.18994 11.5384 8.18994H16.4383C18.9 8.21327 20.125 9.43828 20.125 11.8766Z" stroke="#B266FF" stroke-width="2" stroke-miterlimit="10" stroke-linecap="round" stroke-linejoin="round"/>
<path d="M4.66668 6.99992C3.20834 8.94825 2.33334 11.3749 2.33334 13.9999C2.33334 20.4399 7.56001 25.6666 14 25.6666C20.44 25.6666 25.6667 20.4399 25.6667 13.9999C25.6667 7.55992 20.44 2.33325 14 2.33325C12.3317 2.33325 10.7333 2.68326 9.29835 3.32493" stroke="#461F72" stroke-width="2" stroke-linecap="round" stroke-linejoin="round"/>
</svg>
