<svg width="48" height="48" viewBox="0 0 48 48" fill="none" xmlns="http://www.w3.org/2000/svg">
<path d="M3.40002 15.8397C3.40002 9.67972 6.92001 7.03979 12.2 7.03979H29.78C34.26 7.03979 37.48 8.93979 38.34 13.2798C38.5 14.0598 38.58 14.8997 38.58 15.8397V26.1398C38.58 32.2998 35.06 34.9397 29.78 34.9397H12.2C11.3 34.9397 10.44 34.8598 9.64001 34.6798C9.14001 34.5998 8.65997 34.4598 8.21997 34.2998C5.21997 33.1798 3.40002 30.5798 3.40002 26.1398V23.9998" stroke="#461F72" stroke-width="2" stroke-miterlimit="10" stroke-linecap="round" stroke-linejoin="round"/>
<path d="M44.5999 30.02V32.14C44.5999 38.3 41.0799 40.9399 35.7999 40.9399H18.2199C16.7399 40.9399 15.3999 40.7401 14.2399 40.3001C11.8599 39.4201 10.2399 37.6001 9.65991 34.6801C10.4599 34.8601 11.3199 34.9399 12.2199 34.9399H29.7999C35.0799 34.9399 38.5999 32.3 38.5999 26.14V15.84C38.5999 14.9 38.5199 14.06 38.3599 13.28C42.1799 14.06 44.5999 16.74 44.5999 21.84" stroke="#461F72" stroke-width="2" stroke-miterlimit="10" stroke-linecap="round" stroke-linejoin="round"/>
<path d="M26.28 20.9998C26.28 18.0798 23.92 15.7197 21 15.7197C18.08 15.7197 15.72 18.0798 15.72 20.9998C15.72 23.9198 18.08 26.2798 21 26.2798" stroke="#B266FF" stroke-width="2" stroke-miterlimit="10" stroke-linecap="round" stroke-linejoin="round"/>
</svg>
