<svg width="46" height="46" viewBox="0 0 46 46" fill="none" xmlns="http://www.w3.org/2000/svg">
<path d="M34.4998 13.7233C34.3848 13.7041 34.2507 13.7041 34.1357 13.7233C31.4907 13.6274 29.3823 11.4616 29.3823 8.77826C29.3823 6.03742 31.5865 3.83325 34.3273 3.83325C37.0682 3.83325 39.2723 6.05659 39.2723 8.77826C39.2532 11.4616 37.1448 13.6274 34.4998 13.7233Z" stroke="#461F72" stroke-width="2" stroke-linecap="round" stroke-linejoin="round"/>
<path d="M32.5258 27.6767C35.1516 28.1175 38.0458 27.6575 40.0774 26.2966C42.7799 24.495 42.7799 21.5433 40.0774 19.7417C38.0266 18.3808 35.0941 17.9208 32.4683 18.3808" stroke="#461F72" stroke-width="2" stroke-linecap="round" stroke-linejoin="round"/>
<path d="M11.4424 13.7233C11.5574 13.7041 11.6916 13.7041 11.8066 13.7233C14.4516 13.6274 16.5599 11.4616 16.5599 8.77826C16.5599 6.03742 14.3558 3.83325 11.6149 3.83325C8.87409 3.83325 6.66992 6.05659 6.66992 8.77826C6.68909 11.4616 8.79743 13.6274 11.4424 13.7233Z" stroke="#461F72" stroke-width="2" stroke-linecap="round" stroke-linejoin="round"/>
<path d="M13.4164 27.6767C10.7906 28.1175 7.89643 27.6575 5.86477 26.2966C3.16227 24.495 3.16227 21.5433 5.86477 19.7417C7.9156 18.3808 10.8481 17.9208 13.4739 18.3808" stroke="#461F72" stroke-width="2" stroke-linecap="round" stroke-linejoin="round"/>
<path d="M22.9998 28.0409C22.8848 28.0217 22.7507 28.0217 22.6357 28.0409C19.9907 27.9451 17.8823 25.7792 17.8823 23.0959C17.8823 20.355 20.0865 18.1509 22.8273 18.1509C25.5682 18.1509 27.7723 20.3742 27.7723 23.0959C27.7532 25.7792 25.6448 27.9642 22.9998 28.0409Z" stroke="#B266FF" stroke-width="2" stroke-linecap="round" stroke-linejoin="round"/>
<path d="M28.5774 34.0784C25.5299 32.0468 20.489 32.0468 17.4224 34.0784C14.7199 35.8801 14.7199 38.8318 17.4224 40.6334C20.489 42.6843 25.5107 42.6843 28.5774 40.6334" stroke="#B266FF" stroke-width="2" stroke-linecap="round" stroke-linejoin="round"/>
</svg>
