<svg width="28" height="28" viewBox="0 0 28 28" fill="none" xmlns="http://www.w3.org/2000/svg">
<path d="M2.33333 9.33333C2.33333 4.66667 3.49999 3.5 8.16666 3.5H19.8333C24.5 3.5 25.6667 4.66667 25.6667 9.33333V18.6667C25.6667 23.3333 24.5 24.5 19.8333 24.5H8.16666C3.49999 24.5 2.33333 23.3333 2.33333 18.6667V14.4667" stroke="#461F72" stroke-width="2" stroke-linecap="round" stroke-linejoin="round"/>
<path d="M16.3333 9.33325H22.1667" stroke="#461F72" stroke-width="2" stroke-linecap="round" stroke-linejoin="round"/>
<path d="M17.5 14H22.1667" stroke="#461F72" stroke-width="2" stroke-linecap="round" stroke-linejoin="round"/>
<path d="M19.8333 18.6667H22.1667" stroke="#461F72" stroke-width="2" stroke-linecap="round" stroke-linejoin="round"/>
<path d="M9.91666 13.1716C11.0829 13.1716 12.0283 12.2261 12.0283 11.0599C12.0283 9.89367 11.0829 8.94824 9.91666 8.94824C8.75042 8.94824 7.80499 9.89367 7.80499 11.0599C7.80499 12.2261 8.75042 13.1716 9.91666 13.1716Z" stroke="#B266FF" stroke-width="2" stroke-linecap="round" stroke-linejoin="round"/>
<path d="M14 19.0516C13.8367 17.3599 12.495 16.0299 10.8033 15.8782C10.22 15.8199 9.62499 15.8199 9.02999 15.8782C7.33833 16.0416 5.99666 17.3599 5.83333 19.0516" stroke="#B266FF" stroke-width="2" stroke-linecap="round" stroke-linejoin="round"/>
</svg>
