<svg width="12" height="12" viewBox="0 0 12 12" fill="none" xmlns="http://www.w3.org/2000/svg">
<path d="M10.2302 4.59773L2.46695 0.217852C2.21342 0.0729661 1.92604 -0.00218309 1.63404 4.82813e-05C1.34204 0.00227965 1.05584 0.0818121 0.804557 0.230555C0.559743 0.370571 0.35635 0.57289 0.21504 0.816959C0.0737306 1.06103 -0.000461197 1.33815 2.15712e-06 1.62018V10.3799C-0.000461197 10.662 0.0737306 10.9391 0.21504 11.1832C0.35635 11.4272 0.559743 11.6295 0.804557 11.7696C1.05587 11.9182 1.34206 11.9977 1.63404 12C1.92603 12.0022 2.2134 11.9271 2.46695 11.7823L10.2302 7.40238C10.4806 7.26368 10.6893 7.06048 10.8346 6.81388C10.9799 6.56729 11.0565 6.28628 11.0565 6.00006C11.0565 5.71383 10.9799 5.43283 10.8346 5.18623C10.6893 4.93963 10.4806 4.73643 10.2302 4.59773V4.59773Z" fill="#62029E"/>
</svg>
