<svg width="28" height="28" viewBox="0 0 28 28" fill="none" xmlns="http://www.w3.org/2000/svg">
<path d="M2.33334 9.91659C2.33334 5.83325 4.66668 4.08325 8.16668 4.08325H16.3333" stroke="#461F72" stroke-width="2" stroke-miterlimit="10" stroke-linecap="round" stroke-linejoin="round"/>
<path d="M25.6667 12.25V18.0833C25.6667 22.1667 23.3333 23.9167 19.8333 23.9167H8.16668C4.66668 23.9167 2.33334 22.1667 2.33334 18.0833V15.1433" stroke="#461F72" stroke-width="2" stroke-miterlimit="10" stroke-linecap="round" stroke-linejoin="round"/>
<path d="M8.16666 10.5L11.8183 13.4167C13.02 14.3733 14.9917 14.3733 16.1933 13.4167L17.57 12.32" stroke="#461F72" stroke-width="2" stroke-miterlimit="10" stroke-linecap="round" stroke-linejoin="round"/>
<path d="M22.75 9.33333C24.3608 9.33333 25.6667 8.0275 25.6667 6.41667C25.6667 4.80584 24.3608 3.5 22.75 3.5C21.1392 3.5 19.8333 4.80584 19.8333 6.41667C19.8333 8.0275 21.1392 9.33333 22.75 9.33333Z" stroke="#B266FF" stroke-width="2" stroke-miterlimit="10" stroke-linecap="round" stroke-linejoin="round"/>
</svg>
