<svg width="52" height="52" viewBox="0 0 52 52" fill="none" xmlns="http://www.w3.org/2000/svg">
<rect x="10.3999" y="9.1001" width="31.2" height="33.8" fill="white"/>
<path d="M26 52C40.3628 52 52 40.3628 52 26C52 11.6372 40.3628 0 26 0C11.6372 0 0 11.6372 0 26C0 40.3628 11.6372 52 26 52ZM11.8972 25.4367L36.9655 15.7712C38.129 15.3508 39.1452 16.055 38.7682 17.8143L38.7703 17.8122L34.502 37.921C34.1857 39.3467 33.3385 39.6933 32.1533 39.0217L25.6533 34.2312L22.5182 37.2515C22.1715 37.5982 21.879 37.8907 21.2073 37.8907L21.6688 31.2758L33.7155 20.3927C34.2398 19.9312 33.5985 19.6712 32.9073 20.1305L18.0202 29.5035L11.6025 27.5015C10.2093 27.0595 10.179 26.1083 11.8972 25.4367Z" fill="#472566"/>
</svg>
