<svg width="42" height="42" viewBox="0 0 42 42" fill="none" xmlns="http://www.w3.org/2000/svg">
<path d="M35.5073 15.75H33.2499C32.2874 15.75 31.4999 16.5375 31.4999 17.5V22.75C31.4999 23.7125 32.2874 24.5 33.2499 24.5H38.4999V29.75C38.4999 32.655 36.1549 35 33.2499 35H31.4999C31.4999 33.075 29.9249 31.5 27.9999 31.5C26.0749 31.5 24.4999 33.075 24.4999 35H17.4999C17.4999 33.075 15.9249 31.5 13.9999 31.5C12.0749 31.5 10.4999 33.075 10.4999 35H8.74988C6.89488 35 5.26734 34.0375 4.33984 32.6025" stroke="#461F72" stroke-width="2" stroke-linecap="round" stroke-linejoin="round"/>
<path d="M3.5 24.5H22.75C24.675 24.5 26.25 22.925 26.25 21V8.75H29.47C30.1 8.75 30.7125 8.92503 31.2375 9.22253" stroke="#461F72" stroke-width="2" stroke-linecap="round" stroke-linejoin="round"/>
<path d="M26.25 3.5V21C26.25 22.925 24.675 24.5 22.75 24.5H3.5V13.335C4.7775 14.8575 6.73755 15.8025 8.90755 15.75C10.675 15.715 12.2675 15.0325 13.4575 13.895C14 13.44 14.455 12.8625 14.805 12.2325C15.435 11.165 15.785 9.90495 15.75 8.59245C15.6975 6.54495 14.7875 4.7425 13.37 3.5H26.25Z" stroke="#B266FF" stroke-width="2" stroke-linecap="round" stroke-linejoin="round"/>
<path d="M14 38.5C15.933 38.5 17.5 36.933 17.5 35C17.5 33.067 15.933 31.5 14 31.5C12.067 31.5 10.5 33.067 10.5 35C10.5 36.933 12.067 38.5 14 38.5Z" stroke="#461F72" stroke-width="2" stroke-linecap="round" stroke-linejoin="round"/>
<path d="M28 38.5C29.933 38.5 31.5 36.933 31.5 35C31.5 33.067 29.933 31.5 28 31.5C26.067 31.5 24.5 33.067 24.5 35C24.5 36.933 26.067 38.5 28 38.5Z" stroke="#461F72" stroke-width="2" stroke-linecap="round" stroke-linejoin="round"/>
<path d="M38.5 21V24.5H33.25C32.2875 24.5 31.5 23.7125 31.5 22.75V17.5C31.5 16.5375 32.2875 15.75 33.25 15.75H35.5075L38.5 21Z" stroke="#461F72" stroke-width="2" stroke-linecap="round" stroke-linejoin="round"/>
<path d="M15.75 8.75C15.75 10.0625 15.3825 11.305 14.735 12.355C14.3675 12.985 13.895 13.545 13.3525 14C12.1275 15.1025 10.5175 15.75 8.75 15.75C6.195 15.75 3.97253 14.385 2.76503 12.355C2.11753 11.305 1.75 10.0625 1.75 8.75C1.75 6.545 2.765 4.56751 4.375 3.29001C5.5825 2.32751 7.105 1.75 8.75 1.75C12.6175 1.75 15.75 4.8825 15.75 8.75Z" stroke="#461F72" stroke-width="2" stroke-miterlimit="10" stroke-linecap="round" stroke-linejoin="round"/>
<path d="M10.6224 10.5699L6.92993 6.87744" stroke="#B266FF" stroke-width="2" stroke-miterlimit="10" stroke-linecap="round" stroke-linejoin="round"/>
<path d="M10.5699 6.92993L6.87744 10.6224" stroke="#B266FF" stroke-width="2" stroke-miterlimit="10" stroke-linecap="round" stroke-linejoin="round"/>
</svg>
