<svg width="28" height="28" viewBox="0 0 28 28" fill="none" xmlns="http://www.w3.org/2000/svg">
<path d="M16.9167 18.0133H11.0833" stroke="#B266FF" stroke-width="2" stroke-miterlimit="10" stroke-linecap="round" stroke-linejoin="round"/>
<path d="M14 15.1666V21" stroke="#B266FF" stroke-width="2" stroke-miterlimit="10" stroke-linecap="round" stroke-linejoin="round"/>
<path d="M14 25.6667H9.45C9.17 25.6667 8.89 25.6434 8.62167 25.6084C4.91167 25.3634 2.92833 23.3801 2.68333 19.6701C2.64833 19.4017 2.625 19.1217 2.625 18.8417V16.5667C2.625 14.2217 4.04833 12.2034 6.07833 11.3284C6.77833 11.0367 7.525 10.8734 8.31833 10.8734H19.705C20.2767 10.8734 20.8367 10.9551 21.35 11.1067C23.6833 11.8067 25.3867 13.9884 25.3867 16.5551V18.8301C25.3867 19.0634 25.375 19.2967 25.3633 19.5301C25.1417 23.6134 22.8667 25.6667 18.55 25.6667" stroke="#461F72" stroke-width="2" stroke-linecap="round" stroke-linejoin="round"/>
<path d="M15.05 2.94006L15.015 3.02173L11.6317 10.8734H8.30665C7.51332 10.8734 6.75498 11.0367 6.06665 11.3284L8.10832 6.45173L8.15498 6.33506L8.23665 6.1484C8.25998 6.0784 8.28332 6.0084 8.31832 5.95006C9.84665 2.41506 11.5733 1.61006 15.05 2.94006Z" stroke="#461F72" stroke-width="2" stroke-linecap="round" stroke-linejoin="round"/>
<path d="M21.3383 11.1067C20.8133 10.9434 20.2533 10.8734 19.6933 10.8734H11.6317L15.015 3.02173L15.05 2.94006C15.225 2.9984 15.3883 3.08006 15.5633 3.15006L18.1417 4.23506C19.5767 4.83006 20.58 5.4484 21.1867 6.19506C21.3033 6.33506 21.3967 6.4634 21.4783 6.61506C21.5833 6.7784 21.665 6.94173 21.7117 7.11673C21.7583 7.22173 21.7933 7.32673 21.8167 7.42006C22.1317 8.40006 21.945 9.60173 21.3383 11.1067Z" stroke="#461F72" stroke-width="2" stroke-linecap="round" stroke-linejoin="round"/>
<path d="M8.10833 6.45178L6.06666 11.3285C4.03666 12.2035 2.61333 14.2218 2.61333 16.5668V13.1485C2.61333 9.83512 4.96999 7.07012 8.10833 6.45178Z" stroke="#461F72" stroke-width="2" stroke-linecap="round" stroke-linejoin="round"/>
<path d="M25.3867 13.1482V16.5666C25.3867 13.9999 23.6834 11.8182 21.35 11.1182C21.9567 9.60158 22.1317 8.41158 21.84 7.41991C21.8167 7.31491 21.7817 7.20991 21.735 7.11658C23.905 8.23658 25.3867 10.5349 25.3867 13.1482Z" stroke="#461F72" stroke-width="2" stroke-linecap="round" stroke-linejoin="round"/>
</svg>
