<svg width="8" height="7" viewBox="0 0 8 7" fill="none" xmlns="http://www.w3.org/2000/svg">
<path d="M3.99121 6.35488C4.48591 6.35488 4.88695 5.95384 4.88695 5.45914C4.88695 4.96443 4.48591 4.56339 3.99121 4.56339C3.4965 4.56339 3.09546 4.96443 3.09546 5.45914C3.09546 5.95384 3.4965 6.35488 3.99121 6.35488Z" fill="#030104"/>
<path d="M6.13191 3.30066C6.11862 3.287 6.10459 3.27482 6.09093 3.26226L6.05068 3.22423C6.04403 3.21722 6.03665 3.21205 6.02816 3.2054C4.86989 2.15311 3.09724 2.19483 1.99177 3.30029L1.86217 3.43026L1.68273 3.60971C1.46415 3.82829 1.46526 4.18459 1.68421 4.40354C1.90353 4.62323 2.25983 4.6236 2.47804 4.40502L2.78746 4.09561C3.49046 3.39297 4.63396 3.39297 5.3366 4.09524L5.55998 4.31161C5.77634 4.52797 6.12933 4.5276 6.3468 4.30976C6.45203 4.2049 6.51 4.06496 6.51037 3.91616C6.51074 3.7681 6.45351 3.62817 6.34828 3.52368L6.13191 3.30066Z" fill="#030104"/>
<path d="M7.65801 2.19393L7.47192 2.00784L7.46934 2.00563L7.32238 1.85794C7.29654 1.83246 7.26848 1.81031 7.23894 1.79111C5.35108 0.133647 2.47961 0.184601 0.651939 1.94286C0.643078 1.95098 0.633109 1.95652 0.624247 1.96538L0.288251 2.30175C0.088869 2.50076 0.0899767 2.82457 0.290467 3.02506C0.490587 3.22519 0.814399 3.22666 1.01378 3.02691L1.34978 2.69128C1.35199 2.68833 1.35384 2.68574 1.35605 2.6839C2.83407 1.2561 5.17865 1.24724 6.66848 2.65473L6.93285 2.91947C7.13186 3.11848 7.45641 3.11774 7.65653 2.91762C7.85628 2.71713 7.85702 2.39295 7.65801 2.19393Z" fill="#030104"/>
</svg>
