<svg width="4" height="3" viewBox="0 0 4 3" fill="none" xmlns="http://www.w3.org/2000/svg">
<path d="M2.13821 2.68267C2.33873 2.68267 2.50129 2.52011 2.50129 2.31959C2.50129 2.11906 2.33873 1.9565 2.13821 1.9565C1.93768 1.9565 1.77512 2.11906 1.77512 2.31959C1.77512 2.52011 1.93768 2.68267 2.13821 2.68267Z" fill="#030104"/>
<path d="M3.00593 1.44466C3.00054 1.43913 2.99485 1.43419 2.98931 1.4291L2.973 1.41368C2.97031 1.41084 2.96731 1.40874 2.96387 1.40605C2.49438 0.979509 1.77584 0.996422 1.32775 1.44451L1.27522 1.4972L1.20248 1.56993C1.11388 1.65853 1.11433 1.80296 1.20308 1.89171C1.29198 1.98076 1.43641 1.98091 1.52486 1.89231L1.65027 1.76689C1.93523 1.48208 2.39874 1.48208 2.68355 1.76674L2.7741 1.85444C2.8618 1.94215 3.00488 1.942 3.09303 1.85369C3.13568 1.81119 3.15918 1.75447 3.15933 1.69415C3.15948 1.63414 3.13628 1.57742 3.09363 1.53506L3.00593 1.44466Z" fill="#030104"/>
<path d="M3.62452 0.996059L3.54909 0.920628L3.54804 0.91973L3.48848 0.859865C3.478 0.849538 3.46663 0.840558 3.45465 0.832775C2.68942 0.160935 1.52549 0.181589 0.784657 0.894287C0.781065 0.89758 0.777024 0.899825 0.773432 0.903417L0.637238 1.03976C0.55642 1.12043 0.556869 1.25168 0.638136 1.33295C0.719254 1.41407 0.850509 1.41467 0.931327 1.3337L1.06752 1.19766C1.06842 1.19646 1.06917 1.19541 1.07007 1.19466C1.66917 0.615913 2.61953 0.612321 3.22342 1.18284L3.33058 1.29015C3.41125 1.37082 3.5428 1.37052 3.62392 1.2894C3.70489 1.20813 3.70519 1.07673 3.62452 0.996059Z" fill="#030104"/>
</svg>
